<?xml version="1.0" encoding="UTF-8" standalone="no"?>
<svg
   xmlns:dc="http://purl.org/dc/elements/1.1/"
   xmlns:cc="http://creativecommons.org/ns#"
   xmlns:rdf="http://www.w3.org/1999/02/22-rdf-syntax-ns#"
   xmlns:svg="http://www.w3.org/2000/svg"
   xmlns="http://www.w3.org/2000/svg"
   xmlns:sodipodi="http://sodipodi.sourceforge.net/DTD/sodipodi-0.dtd"
   xmlns:inkscape="http://www.inkscape.org/namespaces/inkscape"
   width="29.958in"
   height="22.597in"
   viewBox="0 0 29.958 22.597"
   version="1.1"
   preserveAspectRatio="xMidYMid meet"
   id="svg847"
   sodipodi:docname="bodgery-doorbot-box.svg"
   inkscape:version="0.92.3 (2405546, 2018-03-11)">
  <metadata
     id="metadata853">
    <rdf:RDF>
      <cc:Work
         rdf:about="">
        <dc:format>image/svg+xml</dc:format>
        <dc:type
           rdf:resource="http://purl.org/dc/dcmitype/StillImage" />
        <dc:title />
      </cc:Work>
    </rdf:RDF>
  </metadata>
  <defs
     id="defs851" />
  <sodipodi:namedview
     pagecolor="#ffffff"
     bordercolor="#666666"
     borderopacity="1"
     objecttolerance="10"
     gridtolerance="10"
     guidetolerance="10"
     inkscape:pageopacity="0"
     inkscape:pageshadow="2"
     inkscape:window-width="1861"
     inkscape:window-height="1025"
     id="namedview849"
     showgrid="false"
     inkscape:zoom="1.6226343"
     inkscape:cx="507.1816"
     inkscape:cy="759.94879"
     inkscape:window-x="59"
     inkscape:window-y="27"
     inkscape:window-maximized="1"
     inkscape:current-layer="svg847" />
  <g
     id="svgGroup"
     stroke-linecap="round"
     fill-rule="evenodd"
     font-size="9pt"
     stroke="#000"
     stroke-width="0.25mm"
     fill="none"
     style="stroke:#000;stroke-width:0.25mm;fill:none">
    <path
       d="M 0 17.361 L 0 17.737 L 0.118 17.737 L 0.118 17.973 L 0 17.973 L 0 18.209 L 0.118 18.209 L 0.118 18.445 L 0 18.445 L 0 18.681 L 0.118 18.681 L 0.118 18.917 L 0 18.917 L 0 19.153 L 0.118 19.153 L 0.118 19.389 L 0 19.389 L 0 19.625 L 0.118 19.625 L 0.118 19.861 L 0 19.861 L 0 20.097 L 0.118 20.097 L 0.118 20.333 L 0 20.333 L 0 20.569 L 0.118 20.569 L 0.118 20.805 L 0 20.805 L 0 21.041 L 0.118 21.041 L 0.118 21.277 L 0 21.277 L 0 21.513 L 0.118 21.513 L 0.118 21.749 L 0 21.749 L 0 21.985 L 0.118 21.985 L 0.118 22.221 L 0 22.221 L 0 22.457 L 0 22.597 L 0.488 22.597 L 0.488 22.479 L 0.724 22.479 L 0.724 22.597 L 0.96 22.597 L 0.96 22.479 L 1.196 22.479 L 1.196 22.597 L 1.432 22.597 L 1.432 22.479 L 1.668 22.479 L 1.668 22.597 L 1.904 22.597 L 1.904 22.479 L 2.14 22.479 L 2.14 22.597 L 2.376 22.597 L 2.376 22.479 L 2.612 22.479 L 2.612 22.597 L 2.848 22.597 L 2.848 22.479 L 3.084 22.479 L 3.084 22.597 L 3.32 22.597 L 3.32 22.479 L 3.556 22.479 L 3.556 22.597 L 3.792 22.597 L 3.792 22.479 L 4.028 22.479 L 4.028 22.597 L 4.264 22.597 L 4.264 22.479 L 4.5 22.479 L 4.5 22.597 L 4.736 22.597 L 4.736 22.479 L 4.972 22.479 L 4.972 22.597 L 5.208 22.597 L 5.208 22.479 L 5.444 22.479 L 5.444 22.597 L 5.68 22.597 L 5.68 22.479 L 5.916 22.479 L 5.916 22.597 L 6.152 22.597 L 6.152 22.479 L 6.388 22.479 L 6.388 22.597 L 6.624 22.597 L 6.624 22.479 L 6.86 22.479 L 6.86 22.597 L 7.096 22.597 L 7.096 22.479 L 7.332 22.479 L 7.332 22.597 L 7.568 22.597 L 7.568 22.479 L 7.804 22.479 L 7.804 22.597 L 8.04 22.597 L 8.04 22.479 L 8.276 22.479 L 8.276 22.597 L 8.512 22.597 L 8.512 22.479 L 8.748 22.479 L 8.748 22.597 L 8.984 22.597 L 9.236 22.597 L 9.236 22.221 L 9.118 22.221 L 9.118 21.985 L 9.236 21.985 L 9.236 21.749 L 9.118 21.749 L 9.118 21.513 L 9.236 21.513 L 9.236 21.277 L 9.118 21.277 L 9.118 21.041 L 9.236 21.041 L 9.236 20.805 L 9.118 20.805 L 9.118 20.569 L 9.236 20.569 L 9.236 20.333 L 9.118 20.333 L 9.118 20.097 L 9.236 20.097 L 9.236 19.861 L 9.118 19.861 L 9.118 19.625 L 9.236 19.625 L 9.236 19.389 L 9.118 19.389 L 9.118 19.153 L 9.236 19.153 L 9.236 18.917 L 9.118 18.917 L 9.118 18.681 L 9.236 18.681 L 9.236 18.445 L 9.118 18.445 L 9.118 18.209 L 9.236 18.209 L 9.236 17.973 L 9.118 17.973 L 9.118 17.737 L 9.236 17.737 L 9.236 17.501 L 9.236 17.361 L 8.748 17.361 L 8.748 17.479 L 8.512 17.479 L 8.512 17.361 L 8.276 17.361 L 8.276 17.479 L 8.04 17.479 L 8.04 17.361 L 7.804 17.361 L 7.804 17.479 L 7.568 17.479 L 7.568 17.361 L 7.332 17.361 L 7.332 17.479 L 7.096 17.479 L 7.096 17.361 L 6.86 17.361 L 6.86 17.479 L 6.624 17.479 L 6.624 17.361 L 6.388 17.361 L 6.388 17.479 L 6.152 17.479 L 6.152 17.361 L 5.916 17.361 L 5.916 17.479 L 5.68 17.479 L 5.68 17.361 L 5.444 17.361 L 5.444 17.479 L 5.208 17.479 L 5.208 17.361 L 4.972 17.361 L 4.972 17.479 L 4.736 17.479 L 4.736 17.361 L 4.5 17.361 L 4.5 17.479 L 4.264 17.479 L 4.264 17.361 L 4.028 17.361 L 4.028 17.479 L 3.792 17.479 L 3.792 17.361 L 3.556 17.361 L 3.556 17.479 L 3.32 17.479 L 3.32 17.361 L 3.084 17.361 L 3.084 17.479 L 2.848 17.479 L 2.848 17.361 L 2.612 17.361 L 2.612 17.479 L 2.376 17.479 L 2.376 17.361 L 2.14 17.361 L 2.14 17.479 L 1.904 17.479 L 1.904 17.361 L 1.668 17.361 L 1.668 17.479 L 1.432 17.479 L 1.432 17.361 L 1.196 17.361 L 1.196 17.479 L 0.96 17.479 L 0.96 17.361 L 0.724 17.361 L 0.724 17.479 L 0.488 17.479 L 0.488 17.361 L 0.252 17.361 L 0 17.361 Z"
       id="front_outsideCutPath"
       stroke="#FF0000"
       stroke-width="0.1"
       style="stroke:#FF0000;stroke-width:0.1"
       vector-effect="non-scaling-stroke" />
    <path
       d="M 5.381 20.375 L 5.296 20.375 L 5.296 20.012 Q 5.296 19.968 5.284 19.939 A 0.101 0.101 0 0 0 5.265 19.91 A 0.096 0.096 0 0 0 5.226 19.885 Q 5.201 19.876 5.167 19.876 Q 5.109 19.876 5.072 19.897 A 0.12 0.12 0 0 0 5.039 19.924 Q 5.001 19.967 4.998 20.062 A 0.544 0.544 0 0 0 4.998 20.08 L 4.998 20.375 L 4.913 20.375 L 4.913 19.814 L 4.982 19.814 L 4.996 19.891 L 5 19.891 A 0.172 0.172 0 0 1 5.067 19.83 A 0.207 0.207 0 0 1 5.073 19.827 A 0.23 0.23 0 0 1 5.155 19.805 A 0.278 0.278 0 0 1 5.178 19.804 A 0.335 0.335 0 0 1 5.235 19.808 Q 5.294 19.819 5.33 19.853 A 0.147 0.147 0 0 1 5.366 19.909 Q 5.374 19.932 5.378 19.961 A 0.37 0.37 0 0 1 5.381 20.009 L 5.381 20.375 Z M 3.751 19.814 L 3.751 19.88 L 3.608 19.88 L 3.608 20.375 L 3.523 20.375 L 3.523 19.88 L 3.423 19.88 L 3.423 19.842 L 3.523 19.811 L 3.523 19.78 Q 3.523 19.573 3.703 19.573 Q 3.738 19.573 3.782 19.584 A 0.549 0.549 0 0 1 3.808 19.591 L 3.786 19.659 Q 3.751 19.648 3.723 19.645 A 0.183 0.183 0 0 0 3.702 19.643 A 0.114 0.114 0 0 0 3.674 19.646 A 0.074 0.074 0 0 0 3.631 19.675 Q 3.61 19.704 3.608 19.765 A 0.401 0.401 0 0 0 3.608 19.778 L 3.608 19.814 L 3.751 19.814 Z M 5.813 20.304 L 5.813 20.369 Q 5.801 20.375 5.778 20.38 A 0.317 0.317 0 0 1 5.773 20.38 Q 5.746 20.385 5.724 20.385 A 0.222 0.222 0 0 1 5.659 20.376 Q 5.587 20.354 5.568 20.276 A 0.267 0.267 0 0 1 5.562 20.213 L 5.562 19.88 L 5.481 19.88 L 5.481 19.839 L 5.562 19.804 L 5.597 19.684 L 5.647 19.684 L 5.647 19.814 L 5.809 19.814 L 5.809 19.88 L 5.647 19.88 L 5.647 20.21 A 0.171 0.171 0 0 0 5.649 20.24 Q 5.652 20.256 5.658 20.269 A 0.082 0.082 0 0 0 5.671 20.288 Q 5.695 20.315 5.737 20.315 A 0.279 0.279 0 0 0 5.777 20.312 A 0.26 0.26 0 0 0 5.78 20.311 A 0.459 0.459 0 0 0 5.792 20.309 Q 5.804 20.307 5.812 20.305 A 0.131 0.131 0 0 0 5.813 20.304 Z M 4.175 19.81 L 4.164 19.889 A 0.374 0.374 0 0 0 4.137 19.884 Q 4.123 19.882 4.111 19.881 A 0.199 0.199 0 0 0 4.102 19.881 Q 4.034 19.881 3.986 19.936 Q 3.938 19.992 3.938 20.074 L 3.938 20.375 L 3.853 20.375 L 3.853 19.814 L 3.923 19.814 L 3.933 19.918 L 3.937 19.918 Q 3.968 19.863 4.012 19.834 Q 4.056 19.804 4.108 19.804 A 0.39 0.39 0 0 1 4.143 19.805 A 0.284 0.284 0 0 1 4.175 19.81 Z M 4.695 20.308 A 0.237 0.237 0 0 0 4.723 20.269 Q 4.764 20.199 4.764 20.094 A 0.498 0.498 0 0 0 4.764 20.08 Q 4.763 20.034 4.752 19.994 A 0.264 0.264 0 0 0 4.695 19.882 A 0.222 0.222 0 0 0 4.592 19.816 A 0.285 0.285 0 0 0 4.508 19.804 Q 4.386 19.804 4.318 19.88 Q 4.249 19.957 4.249 20.094 A 0.425 0.425 0 0 0 4.254 20.163 A 0.314 0.314 0 0 0 4.281 20.248 A 0.279 0.279 0 0 0 4.287 20.26 A 0.23 0.23 0 0 0 4.371 20.349 A 0.236 0.236 0 0 0 4.425 20.374 A 0.273 0.273 0 0 0 4.504 20.385 A 0.33 0.33 0 0 0 4.562 20.38 A 0.226 0.226 0 0 0 4.695 20.308 Z M 4.337 20.094 A 0.43 0.43 0 0 0 4.341 20.155 Q 4.346 20.186 4.355 20.212 A 0.178 0.178 0 0 0 4.38 20.257 A 0.139 0.139 0 0 0 4.471 20.311 A 0.211 0.211 0 0 0 4.506 20.314 A 0.197 0.197 0 0 0 4.558 20.307 A 0.137 0.137 0 0 0 4.633 20.258 Q 4.665 20.216 4.673 20.146 A 0.447 0.447 0 0 0 4.676 20.094 Q 4.676 20.025 4.658 19.978 A 0.175 0.175 0 0 0 4.633 19.931 A 0.14 0.14 0 0 0 4.546 19.88 A 0.214 0.214 0 0 0 4.505 19.876 A 0.202 0.202 0 0 0 4.455 19.882 A 0.135 0.135 0 0 0 4.379 19.931 A 0.175 0.175 0 0 0 4.352 19.983 Q 4.344 20.008 4.34 20.037 A 0.449 0.449 0 0 0 4.337 20.094 Z"
       id="front_labelLayer"
       stroke="#777777"
       fill="#777777"
       style="stroke:#777777;fill:#777777"
       vector-effect="non-scaling-stroke" />
    <path
       d="M 9.479 17.361 L 9.479 17.737 L 9.361 17.737 L 9.361 17.973 L 9.479 17.973 L 9.479 18.209 L 9.361 18.209 L 9.361 18.445 L 9.479 18.445 L 9.479 18.681 L 9.361 18.681 L 9.361 18.917 L 9.479 18.917 L 9.479 19.153 L 9.361 19.153 L 9.361 19.389 L 9.479 19.389 L 9.479 19.625 L 9.361 19.625 L 9.361 19.861 L 9.479 19.861 L 9.479 20.097 L 9.361 20.097 L 9.361 20.333 L 9.479 20.333 L 9.479 20.569 L 9.361 20.569 L 9.361 20.805 L 9.479 20.805 L 9.479 21.041 L 9.361 21.041 L 9.361 21.277 L 9.479 21.277 L 9.479 21.513 L 9.361 21.513 L 9.361 21.749 L 9.479 21.749 L 9.479 21.985 L 9.361 21.985 L 9.361 22.221 L 9.479 22.221 L 9.479 22.457 L 9.479 22.597 L 9.905 22.597 L 9.905 22.479 L 10.141 22.479 L 10.141 22.597 L 10.377 22.597 L 10.377 22.479 L 10.613 22.479 L 10.613 22.597 L 10.849 22.597 L 10.849 22.479 L 11.085 22.479 L 11.085 22.597 L 11.321 22.597 L 11.321 22.479 L 11.557 22.479 L 11.557 22.597 L 11.793 22.597 L 11.793 22.479 L 12.029 22.479 L 12.029 22.597 L 12.265 22.597 L 12.265 22.479 L 12.501 22.479 L 12.501 22.597 L 12.737 22.597 L 12.737 22.479 L 12.973 22.479 L 12.973 22.597 L 13.209 22.597 L 13.209 22.479 L 13.445 22.479 L 13.445 22.597 L 13.681 22.597 L 13.681 22.479 L 13.917 22.479 L 13.917 22.597 L 14.153 22.597 L 14.153 22.479 L 14.389 22.479 L 14.389 22.597 L 14.625 22.597 L 14.625 22.479 L 14.861 22.479 L 14.861 22.597 L 15.097 22.597 L 15.097 22.479 L 15.333 22.479 L 15.333 22.597 L 15.569 22.597 L 15.569 22.479 L 15.805 22.479 L 15.805 22.597 L 16.041 22.597 L 16.041 22.479 L 16.277 22.479 L 16.277 22.597 L 16.513 22.597 L 16.513 22.479 L 16.749 22.479 L 16.749 22.597 L 16.985 22.597 L 16.985 22.479 L 17.221 22.479 L 17.221 22.597 L 17.457 22.597 L 17.457 22.479 L 17.693 22.479 L 17.693 22.597 L 17.929 22.597 L 17.929 22.479 L 18.165 22.479 L 18.165 22.597 L 18.401 22.597 L 18.401 22.479 L 18.637 22.479 L 18.637 22.597 L 18.873 22.597 L 18.873 22.479 L 19.109 22.479 L 19.109 22.597 L 19.345 22.597 L 19.345 22.479 L 19.581 22.479 L 19.581 22.597 L 19.817 22.597 L 19.817 22.479 L 20.053 22.479 L 20.053 22.597 L 20.289 22.597 L 20.479 22.597 L 20.479 22.221 L 20.597 22.221 L 20.597 21.985 L 20.479 21.985 L 20.479 21.749 L 20.597 21.749 L 20.597 21.513 L 20.479 21.513 L 20.479 21.277 L 20.597 21.277 L 20.597 21.041 L 20.479 21.041 L 20.479 20.805 L 20.597 20.805 L 20.597 20.569 L 20.479 20.569 L 20.479 20.333 L 20.597 20.333 L 20.597 20.097 L 20.479 20.097 L 20.479 19.861 L 20.597 19.861 L 20.597 19.625 L 20.479 19.625 L 20.479 19.389 L 20.597 19.389 L 20.597 19.153 L 20.479 19.153 L 20.479 18.917 L 20.597 18.917 L 20.597 18.681 L 20.479 18.681 L 20.479 18.445 L 20.597 18.445 L 20.597 18.209 L 20.479 18.209 L 20.479 17.973 L 20.597 17.973 L 20.597 17.737 L 20.479 17.737 L 20.479 17.501 L 20.479 17.361 L 20.053 17.361 L 20.053 17.479 L 19.817 17.479 L 19.817 17.361 L 19.581 17.361 L 19.581 17.479 L 19.345 17.479 L 19.345 17.361 L 19.109 17.361 L 19.109 17.479 L 18.873 17.479 L 18.873 17.361 L 18.637 17.361 L 18.637 17.479 L 18.401 17.479 L 18.401 17.361 L 18.165 17.361 L 18.165 17.479 L 17.929 17.479 L 17.929 17.361 L 17.693 17.361 L 17.693 17.479 L 17.457 17.479 L 17.457 17.361 L 17.221 17.361 L 17.221 17.479 L 16.985 17.479 L 16.985 17.361 L 16.749 17.361 L 16.749 17.479 L 16.513 17.479 L 16.513 17.361 L 16.277 17.361 L 16.277 17.479 L 16.041 17.479 L 16.041 17.361 L 15.805 17.361 L 15.805 17.479 L 15.569 17.479 L 15.569 17.361 L 15.333 17.361 L 15.333 17.479 L 15.097 17.479 L 15.097 17.361 L 14.861 17.361 L 14.861 17.479 L 14.625 17.479 L 14.625 17.361 L 14.389 17.361 L 14.389 17.479 L 14.153 17.479 L 14.153 17.361 L 13.917 17.361 L 13.917 17.479 L 13.681 17.479 L 13.681 17.361 L 13.445 17.361 L 13.445 17.479 L 13.209 17.479 L 13.209 17.361 L 12.973 17.361 L 12.973 17.479 L 12.737 17.479 L 12.737 17.361 L 12.501 17.361 L 12.501 17.479 L 12.265 17.479 L 12.265 17.361 L 12.029 17.361 L 12.029 17.479 L 11.793 17.479 L 11.793 17.361 L 11.557 17.361 L 11.557 17.479 L 11.321 17.479 L 11.321 17.361 L 11.085 17.361 L 11.085 17.479 L 10.849 17.479 L 10.849 17.361 L 10.613 17.361 L 10.613 17.479 L 10.377 17.479 L 10.377 17.361 L 10.141 17.361 L 10.141 17.479 L 9.905 17.479 L 9.905 17.361 L 9.669 17.361 L 9.479 17.361 Z"
       id="left_outsideCutPath"
       stroke="#FF0000"
       stroke-width="0.1"
       style="stroke:#FF0000;stroke-width:0.1"
       vector-effect="non-scaling-stroke" />
    <path
       d="M 15.352 19.814 L 15.352 19.88 L 15.209 19.88 L 15.209 20.375 L 15.124 20.375 L 15.124 19.88 L 15.024 19.88 L 15.024 19.842 L 15.124 19.811 L 15.124 19.78 Q 15.124 19.573 15.304 19.573 Q 15.339 19.573 15.383 19.584 A 0.549 0.549 0 0 1 15.409 19.591 L 15.387 19.659 Q 15.352 19.648 15.324 19.645 A 0.183 0.183 0 0 0 15.303 19.643 A 0.114 0.114 0 0 0 15.275 19.646 A 0.074 0.074 0 0 0 15.232 19.675 Q 15.211 19.704 15.209 19.765 A 0.401 0.401 0 0 0 15.209 19.778 L 15.209 19.814 L 15.352 19.814 Z M 14.954 20.056 L 14.954 20.11 L 14.568 20.11 A 0.341 0.341 0 0 0 14.574 20.167 Q 14.58 20.198 14.593 20.222 A 0.159 0.159 0 0 0 14.618 20.259 A 0.154 0.154 0 0 0 14.699 20.305 A 0.234 0.234 0 0 0 14.751 20.311 A 0.448 0.448 0 0 0 14.919 20.277 A 0.513 0.513 0 0 0 14.93 20.273 L 14.93 20.348 A 0.51 0.51 0 0 1 14.884 20.366 A 0.39 0.39 0 0 1 14.845 20.376 Q 14.814 20.383 14.773 20.384 A 0.691 0.691 0 0 1 14.748 20.385 A 0.33 0.33 0 0 1 14.666 20.375 A 0.234 0.234 0 0 1 14.552 20.309 A 0.25 0.25 0 0 1 14.492 20.199 Q 14.48 20.154 14.48 20.099 A 0.446 0.446 0 0 1 14.488 20.011 Q 14.499 19.957 14.525 19.915 A 0.251 0.251 0 0 1 14.547 19.884 A 0.218 0.218 0 0 1 14.705 19.805 A 0.3 0.3 0 0 1 14.726 19.804 Q 14.831 19.804 14.893 19.873 Q 14.954 19.942 14.954 20.056 Z M 15.711 20.304 L 15.711 20.369 Q 15.699 20.375 15.676 20.38 A 0.317 0.317 0 0 1 15.671 20.38 Q 15.644 20.385 15.623 20.385 A 0.222 0.222 0 0 1 15.557 20.376 Q 15.485 20.354 15.467 20.276 A 0.267 0.267 0 0 1 15.46 20.213 L 15.46 19.88 L 15.38 19.88 L 15.38 19.839 L 15.46 19.804 L 15.496 19.684 L 15.545 19.684 L 15.545 19.814 L 15.707 19.814 L 15.707 19.88 L 15.545 19.88 L 15.545 20.21 A 0.171 0.171 0 0 0 15.547 20.24 Q 15.55 20.256 15.557 20.269 A 0.082 0.082 0 0 0 15.569 20.288 Q 15.593 20.315 15.635 20.315 A 0.279 0.279 0 0 0 15.676 20.312 A 0.26 0.26 0 0 0 15.678 20.311 A 0.459 0.459 0 0 0 15.69 20.309 Q 15.702 20.307 15.71 20.305 A 0.131 0.131 0 0 0 15.711 20.304 Z M 14.331 19.579 L 14.331 20.375 L 14.247 20.375 L 14.247 19.579 L 14.331 19.579 Z M 14.57 20.041 L 14.863 20.041 Q 14.863 19.986 14.847 19.949 A 0.131 0.131 0 0 0 14.827 19.918 A 0.116 0.116 0 0 0 14.757 19.878 A 0.174 0.174 0 0 0 14.725 19.875 A 0.167 0.167 0 0 0 14.677 19.882 A 0.129 0.129 0 0 0 14.617 19.919 A 0.168 0.168 0 0 0 14.584 19.975 Q 14.576 19.998 14.572 20.026 A 0.321 0.321 0 0 0 14.57 20.041 Z"
       id="left_labelLayer"
       stroke="#777777"
       fill="#777777"
       style="stroke:#777777;fill:#777777"
       vector-effect="non-scaling-stroke" />
    <path
       d="M 20.84 11.479 L 20.84 11.905 L 20.722 11.905 L 20.722 12.141 L 20.84 12.141 L 20.84 12.377 L 20.722 12.377 L 20.722 12.613 L 20.84 12.613 L 20.84 12.849 L 20.722 12.849 L 20.722 13.085 L 20.84 13.085 L 20.84 13.321 L 20.722 13.321 L 20.722 13.557 L 20.84 13.557 L 20.84 13.793 L 20.722 13.793 L 20.722 14.029 L 20.84 14.029 L 20.84 14.265 L 20.722 14.265 L 20.722 14.501 L 20.84 14.501 L 20.84 14.737 L 20.722 14.737 L 20.722 14.973 L 20.84 14.973 L 20.84 15.209 L 20.722 15.209 L 20.722 15.445 L 20.84 15.445 L 20.84 15.681 L 20.722 15.681 L 20.722 15.917 L 20.84 15.917 L 20.84 16.153 L 20.722 16.153 L 20.722 16.389 L 20.84 16.389 L 20.84 16.625 L 20.722 16.625 L 20.722 16.861 L 20.84 16.861 L 20.84 17.097 L 20.722 17.097 L 20.722 17.333 L 20.84 17.333 L 20.84 17.569 L 20.722 17.569 L 20.722 17.805 L 20.84 17.805 L 20.84 18.041 L 20.722 18.041 L 20.722 18.277 L 20.84 18.277 L 20.84 18.513 L 20.722 18.513 L 20.722 18.749 L 20.84 18.749 L 20.84 18.985 L 20.722 18.985 L 20.722 19.221 L 20.84 19.221 L 20.84 19.457 L 20.722 19.457 L 20.722 19.693 L 20.84 19.693 L 20.84 19.929 L 20.722 19.929 L 20.722 20.165 L 20.84 20.165 L 20.84 20.401 L 20.722 20.401 L 20.722 20.637 L 20.84 20.637 L 20.84 20.873 L 20.722 20.873 L 20.722 21.109 L 20.84 21.109 L 20.84 21.345 L 20.722 21.345 L 20.722 21.581 L 20.84 21.581 L 20.84 21.817 L 20.722 21.817 L 20.722 22.053 L 20.84 22.053 L 20.84 22.289 L 20.84 22.479 L 21.21 22.479 L 21.21 22.597 L 21.446 22.597 L 21.446 22.479 L 21.682 22.479 L 21.682 22.597 L 21.918 22.597 L 21.918 22.479 L 22.154 22.479 L 22.154 22.597 L 22.39 22.597 L 22.39 22.479 L 22.626 22.479 L 22.626 22.597 L 22.862 22.597 L 22.862 22.479 L 23.098 22.479 L 23.098 22.597 L 23.334 22.597 L 23.334 22.479 L 23.57 22.479 L 23.57 22.597 L 23.806 22.597 L 23.806 22.479 L 24.042 22.479 L 24.042 22.597 L 24.278 22.597 L 24.278 22.479 L 24.514 22.479 L 24.514 22.597 L 24.75 22.597 L 24.75 22.479 L 24.986 22.479 L 24.986 22.597 L 25.222 22.597 L 25.222 22.479 L 25.458 22.479 L 25.458 22.597 L 25.694 22.597 L 25.694 22.479 L 25.93 22.479 L 25.93 22.597 L 26.166 22.597 L 26.166 22.479 L 26.402 22.479 L 26.402 22.597 L 26.638 22.597 L 26.638 22.479 L 26.874 22.479 L 26.874 22.597 L 27.11 22.597 L 27.11 22.479 L 27.346 22.479 L 27.346 22.597 L 27.582 22.597 L 27.582 22.479 L 27.818 22.479 L 27.818 22.597 L 28.054 22.597 L 28.054 22.479 L 28.29 22.479 L 28.29 22.597 L 28.526 22.597 L 28.526 22.479 L 28.762 22.479 L 28.762 22.597 L 28.998 22.597 L 28.998 22.479 L 29.234 22.479 L 29.234 22.597 L 29.47 22.597 L 29.47 22.479 L 29.706 22.479 L 29.84 22.479 L 29.84 22.053 L 29.958 22.053 L 29.958 21.817 L 29.84 21.817 L 29.84 21.581 L 29.958 21.581 L 29.958 21.345 L 29.84 21.345 L 29.84 21.109 L 29.958 21.109 L 29.958 20.873 L 29.84 20.873 L 29.84 20.637 L 29.958 20.637 L 29.958 20.401 L 29.84 20.401 L 29.84 20.165 L 29.958 20.165 L 29.958 19.929 L 29.84 19.929 L 29.84 19.693 L 29.958 19.693 L 29.958 19.457 L 29.84 19.457 L 29.84 19.221 L 29.958 19.221 L 29.958 18.985 L 29.84 18.985 L 29.84 18.749 L 29.958 18.749 L 29.958 18.513 L 29.84 18.513 L 29.84 18.277 L 29.958 18.277 L 29.958 18.041 L 29.84 18.041 L 29.84 17.805 L 29.958 17.805 L 29.958 17.569 L 29.84 17.569 L 29.84 17.333 L 29.958 17.333 L 29.958 17.097 L 29.84 17.097 L 29.84 16.861 L 29.958 16.861 L 29.958 16.625 L 29.84 16.625 L 29.84 16.389 L 29.958 16.389 L 29.958 16.153 L 29.84 16.153 L 29.84 15.917 L 29.958 15.917 L 29.958 15.681 L 29.84 15.681 L 29.84 15.445 L 29.958 15.445 L 29.958 15.209 L 29.84 15.209 L 29.84 14.973 L 29.958 14.973 L 29.958 14.737 L 29.84 14.737 L 29.84 14.501 L 29.958 14.501 L 29.958 14.265 L 29.84 14.265 L 29.84 14.029 L 29.958 14.029 L 29.958 13.793 L 29.84 13.793 L 29.84 13.557 L 29.958 13.557 L 29.958 13.321 L 29.84 13.321 L 29.84 13.085 L 29.958 13.085 L 29.958 12.849 L 29.84 12.849 L 29.84 12.613 L 29.958 12.613 L 29.958 12.377 L 29.84 12.377 L 29.84 12.141 L 29.958 12.141 L 29.958 11.905 L 29.84 11.905 L 29.84 11.669 L 29.84 11.479 L 29.47 11.479 L 29.47 11.361 L 29.234 11.361 L 29.234 11.479 L 28.998 11.479 L 28.998 11.361 L 28.762 11.361 L 28.762 11.479 L 28.526 11.479 L 28.526 11.361 L 28.29 11.361 L 28.29 11.479 L 28.054 11.479 L 28.054 11.361 L 27.818 11.361 L 27.818 11.479 L 27.582 11.479 L 27.582 11.361 L 27.346 11.361 L 27.346 11.479 L 27.11 11.479 L 27.11 11.361 L 26.874 11.361 L 26.874 11.479 L 26.638 11.479 L 26.638 11.361 L 26.402 11.361 L 26.402 11.479 L 26.166 11.479 L 26.166 11.361 L 25.93 11.361 L 25.93 11.479 L 25.694 11.479 L 25.694 11.361 L 25.458 11.361 L 25.458 11.479 L 25.222 11.479 L 25.222 11.361 L 24.986 11.361 L 24.986 11.479 L 24.75 11.479 L 24.75 11.361 L 24.514 11.361 L 24.514 11.479 L 24.278 11.479 L 24.278 11.361 L 24.042 11.361 L 24.042 11.479 L 23.806 11.479 L 23.806 11.361 L 23.57 11.361 L 23.57 11.479 L 23.334 11.479 L 23.334 11.361 L 23.098 11.361 L 23.098 11.479 L 22.862 11.479 L 22.862 11.361 L 22.626 11.361 L 22.626 11.479 L 22.39 11.479 L 22.39 11.361 L 22.154 11.361 L 22.154 11.479 L 21.918 11.479 L 21.918 11.361 L 21.682 11.361 L 21.682 11.479 L 21.446 11.479 L 21.446 11.361 L 21.21 11.361 L 21.21 11.479 L 20.974 11.479 L 20.84 11.479 Z"
       id="top_outsideCutPath"
       stroke="#FF0000"
       stroke-width="0.1"
       style="stroke:#FF0000;stroke-width:0.1"
       vector-effect="non-scaling-stroke" />
    <path
       d="M 26.004 17.239 L 25.993 17.239 A 1.417 1.417 0 0 1 26.002 17.343 A 1.187 1.187 0 0 1 26.004 17.403 L 26.004 17.81 L 25.854 17.81 L 25.854 16.377 L 25.976 16.377 L 25.997 16.513 L 26.004 16.513 A 0.403 0.403 0 0 1 26.062 16.446 A 0.312 0.312 0 0 1 26.138 16.395 A 0.375 0.375 0 0 1 26.246 16.364 A 0.485 0.485 0 0 1 26.314 16.359 A 0.459 0.459 0 0 1 26.444 16.377 A 0.339 0.339 0 0 1 26.618 16.494 A 0.45 0.45 0 0 1 26.694 16.644 Q 26.714 16.708 26.721 16.786 A 0.975 0.975 0 0 1 26.724 16.871 Q 26.724 17.114 26.616 17.249 A 0.354 0.354 0 0 1 26.364 17.382 A 0.508 0.508 0 0 1 26.314 17.384 A 0.454 0.454 0 0 1 26.2 17.37 A 0.395 0.395 0 0 1 26.138 17.348 A 0.332 0.332 0 0 1 26.004 17.239 Z M 24.541 17.242 L 24.541 17.357 Q 24.519 17.368 24.478 17.375 A 0.56 0.56 0 0 1 24.469 17.376 A 0.649 0.649 0 0 1 24.427 17.382 Q 24.404 17.384 24.384 17.384 A 0.391 0.391 0 0 1 24.269 17.368 Q 24.097 17.316 24.097 17.082 L 24.097 16.494 L 23.955 16.494 L 23.955 16.422 L 24.097 16.359 L 24.16 16.148 L 24.247 16.148 L 24.247 16.377 L 24.534 16.377 L 24.534 16.494 L 24.247 16.494 L 24.247 17.076 Q 24.247 17.165 24.289 17.213 A 0.139 0.139 0 0 0 24.375 17.258 A 0.2 0.2 0 0 0 24.406 17.26 A 0.492 0.492 0 0 0 24.478 17.255 A 0.454 0.454 0 0 0 24.482 17.255 A 0.81 0.81 0 0 0 24.504 17.251 Q 24.525 17.247 24.539 17.243 A 0.228 0.228 0 0 0 24.541 17.242 Z M 25.578 17.021 A 0.773 0.773 0 0 0 25.592 16.871 Q 25.592 16.775 25.571 16.695 A 0.466 0.466 0 0 0 25.469 16.497 A 0.392 0.392 0 0 0 25.287 16.38 A 0.503 0.503 0 0 0 25.14 16.359 Q 24.925 16.359 24.804 16.494 A 0.414 0.414 0 0 0 24.753 16.565 Q 24.714 16.633 24.697 16.72 A 0.777 0.777 0 0 0 24.683 16.871 Q 24.683 17.027 24.739 17.143 A 0.492 0.492 0 0 0 24.75 17.164 A 0.405 0.405 0 0 0 24.898 17.322 A 0.417 0.417 0 0 0 24.994 17.364 A 0.481 0.481 0 0 0 25.133 17.384 Q 25.348 17.384 25.47 17.248 Q 25.551 17.158 25.578 17.021 Z M 24.839 16.871 A 0.758 0.758 0 0 0 24.846 16.979 Q 24.854 17.034 24.87 17.079 A 0.314 0.314 0 0 0 24.914 17.159 Q 24.99 17.259 25.137 17.259 A 0.348 0.348 0 0 0 25.229 17.247 A 0.242 0.242 0 0 0 25.36 17.16 A 0.321 0.321 0 0 0 25.41 17.062 Q 25.425 17.017 25.431 16.962 A 0.789 0.789 0 0 0 25.437 16.871 A 0.747 0.747 0 0 0 25.429 16.764 Q 25.422 16.71 25.405 16.666 A 0.308 0.308 0 0 0 25.36 16.584 Q 25.284 16.487 25.135 16.487 A 0.356 0.356 0 0 0 25.047 16.497 A 0.238 0.238 0 0 0 24.913 16.583 A 0.31 0.31 0 0 0 24.865 16.676 Q 24.851 16.719 24.844 16.771 A 0.791 0.791 0 0 0 24.839 16.871 Z M 26.004 16.837 L 26.004 16.871 Q 26.004 17.048 26.054 17.139 A 0.226 0.226 0 0 0 26.073 17.169 A 0.217 0.217 0 0 0 26.183 17.243 Q 26.22 17.255 26.265 17.258 A 0.481 0.481 0 0 0 26.296 17.259 A 0.252 0.252 0 0 0 26.394 17.24 Q 26.451 17.217 26.491 17.163 A 0.299 0.299 0 0 0 26.497 17.155 Q 26.569 17.051 26.569 16.869 A 0.756 0.756 0 0 0 26.562 16.762 Q 26.554 16.708 26.538 16.663 A 0.317 0.317 0 0 0 26.497 16.585 A 0.233 0.233 0 0 0 26.326 16.488 A 0.322 0.322 0 0 0 26.292 16.487 A 0.431 0.431 0 0 0 26.212 16.494 Q 26.121 16.511 26.073 16.57 Q 26.006 16.654 26.004 16.837 Z"
       id="top_labelLayer"
       stroke="#777777"
       fill="#777777"
       style="stroke:#777777;fill:#777777"
       vector-effect="non-scaling-stroke" />
    <path
       d="M 0 12 L 0 12.376 L 0.118 12.376 L 0.118 12.612 L 0 12.612 L 0 12.848 L 0.118 12.848 L 0.118 13.084 L 0 13.084 L 0 13.32 L 0.118 13.32 L 0.118 13.556 L 0 13.556 L 0 13.792 L 0.118 13.792 L 0.118 14.028 L 0 14.028 L 0 14.264 L 0.118 14.264 L 0.118 14.5 L 0 14.5 L 0 14.736 L 0.118 14.736 L 0.118 14.972 L 0 14.972 L 0 15.208 L 0.118 15.208 L 0.118 15.444 L 0 15.444 L 0 15.68 L 0.118 15.68 L 0.118 15.916 L 0 15.916 L 0 16.152 L 0.118 16.152 L 0.118 16.388 L 0 16.388 L 0 16.624 L 0.118 16.624 L 0.118 16.86 L 0 16.86 L 0 17.096 L 0 17.236 L 0.488 17.236 L 0.488 17.118 L 0.724 17.118 L 0.724 17.236 L 0.96 17.236 L 0.96 17.118 L 1.196 17.118 L 1.196 17.236 L 1.432 17.236 L 1.432 17.118 L 1.668 17.118 L 1.668 17.236 L 1.904 17.236 L 1.904 17.118 L 2.14 17.118 L 2.14 17.236 L 2.376 17.236 L 2.376 17.118 L 2.612 17.118 L 2.612 17.236 L 2.848 17.236 L 2.848 17.118 L 3.084 17.118 L 3.084 17.236 L 3.32 17.236 L 3.32 17.118 L 3.556 17.118 L 3.556 17.236 L 3.792 17.236 L 3.792 17.118 L 4.028 17.118 L 4.028 17.236 L 4.264 17.236 L 4.264 17.118 L 4.5 17.118 L 4.5 17.236 L 4.736 17.236 L 4.736 17.118 L 4.972 17.118 L 4.972 17.236 L 5.208 17.236 L 5.208 17.118 L 5.444 17.118 L 5.444 17.236 L 5.68 17.236 L 5.68 17.118 L 5.916 17.118 L 5.916 17.236 L 6.152 17.236 L 6.152 17.118 L 6.388 17.118 L 6.388 17.236 L 6.624 17.236 L 6.624 17.118 L 6.86 17.118 L 6.86 17.236 L 7.096 17.236 L 7.096 17.118 L 7.332 17.118 L 7.332 17.236 L 7.568 17.236 L 7.568 17.118 L 7.804 17.118 L 7.804 17.236 L 8.04 17.236 L 8.04 17.118 L 8.276 17.118 L 8.276 17.236 L 8.512 17.236 L 8.512 17.118 L 8.748 17.118 L 8.748 17.236 L 8.984 17.236 L 9.236 17.236 L 9.236 16.86 L 9.118 16.86 L 9.118 16.624 L 9.236 16.624 L 9.236 16.388 L 9.118 16.388 L 9.118 16.152 L 9.236 16.152 L 9.236 15.916 L 9.118 15.916 L 9.118 15.68 L 9.236 15.68 L 9.236 15.444 L 9.118 15.444 L 9.118 15.208 L 9.236 15.208 L 9.236 14.972 L 9.118 14.972 L 9.118 14.736 L 9.236 14.736 L 9.236 14.5 L 9.118 14.5 L 9.118 14.264 L 9.236 14.264 L 9.236 14.028 L 9.118 14.028 L 9.118 13.792 L 9.236 13.792 L 9.236 13.556 L 9.118 13.556 L 9.118 13.32 L 9.236 13.32 L 9.236 13.084 L 9.118 13.084 L 9.118 12.848 L 9.236 12.848 L 9.236 12.612 L 9.118 12.612 L 9.118 12.376 L 9.236 12.376 L 9.236 12.14 L 9.236 12 L 8.748 12 L 8.748 12.118 L 8.512 12.118 L 8.512 12 L 8.276 12 L 8.276 12.118 L 8.04 12.118 L 8.04 12 L 7.804 12 L 7.804 12.118 L 7.568 12.118 L 7.568 12 L 7.332 12 L 7.332 12.118 L 7.096 12.118 L 7.096 12 L 6.86 12 L 6.86 12.118 L 6.624 12.118 L 6.624 12 L 6.388 12 L 6.388 12.118 L 6.152 12.118 L 6.152 12 L 5.916 12 L 5.916 12.118 L 5.68 12.118 L 5.68 12 L 5.444 12 L 5.444 12.118 L 5.208 12.118 L 5.208 12 L 4.972 12 L 4.972 12.118 L 4.736 12.118 L 4.736 12 L 4.5 12 L 4.5 12.118 L 4.264 12.118 L 4.264 12 L 4.028 12 L 4.028 12.118 L 3.792 12.118 L 3.792 12 L 3.556 12 L 3.556 12.118 L 3.32 12.118 L 3.32 12 L 3.084 12 L 3.084 12.118 L 2.848 12.118 L 2.848 12 L 2.612 12 L 2.612 12.118 L 2.376 12.118 L 2.376 12 L 2.14 12 L 2.14 12.118 L 1.904 12.118 L 1.904 12 L 1.668 12 L 1.668 12.118 L 1.432 12.118 L 1.432 12 L 1.196 12 L 1.196 12.118 L 0.96 12.118 L 0.96 12 L 0.724 12 L 0.724 12.118 L 0.488 12.118 L 0.488 12 L 0.252 12 L 0 12 Z"
       id="back_outsideCutPath"
       stroke="#FF0000"
       stroke-width="0.1"
       style="stroke:#FF0000;stroke-width:0.1"
       vector-effect="non-scaling-stroke" />
    <path
       d="M 5.335 14.724 L 5.339 14.724 A 0.503 0.503 0 0 1 5.351 14.707 Q 5.366 14.688 5.386 14.665 A 1.825 1.825 0 0 1 5.406 14.642 L 5.587 14.45 L 5.688 14.45 L 5.461 14.689 L 5.704 15.011 L 5.601 15.011 L 5.403 14.746 L 5.339 14.801 L 5.339 15.011 L 5.255 15.011 L 5.255 14.215 L 5.339 14.215 L 5.339 14.637 A 0.566 0.566 0 0 1 5.339 14.653 Q 5.338 14.679 5.335 14.722 A 4.47 4.47 0 0 1 5.335 14.724 Z M 3.617 14.939 L 3.611 14.939 L 3.593 15.011 L 3.532 15.011 L 3.532 14.215 L 3.617 14.215 L 3.617 14.408 A 1.77 1.77 0 0 1 3.616 14.468 Q 3.615 14.498 3.613 14.525 L 3.617 14.525 A 0.193 0.193 0 0 1 3.758 14.443 A 0.29 0.29 0 0 1 3.793 14.441 A 0.259 0.259 0 0 1 3.866 14.451 A 0.194 0.194 0 0 1 3.965 14.516 A 0.25 0.25 0 0 1 4.009 14.601 Q 4.019 14.636 4.023 14.677 A 0.545 0.545 0 0 1 4.026 14.73 A 0.498 0.498 0 0 1 4.019 14.814 Q 4.006 14.893 3.964 14.944 A 0.201 0.201 0 0 1 3.821 15.02 A 0.288 0.288 0 0 1 3.793 15.021 A 0.257 0.257 0 0 1 3.729 15.013 A 0.224 0.224 0 0 1 3.693 15.001 A 0.188 0.188 0 0 1 3.617 14.939 Z M 4.582 15.011 L 4.519 15.011 L 4.502 14.931 L 4.498 14.931 A 0.352 0.352 0 0 1 4.469 14.963 Q 4.442 14.99 4.414 15.002 Q 4.38 15.018 4.331 15.02 A 0.382 0.382 0 0 1 4.31 15.021 A 0.26 0.26 0 0 1 4.257 15.016 Q 4.211 15.006 4.18 14.978 A 0.14 0.14 0 0 1 4.137 14.904 A 0.214 0.214 0 0 1 4.132 14.856 A 0.147 0.147 0 0 1 4.216 14.717 Q 4.283 14.681 4.404 14.678 L 4.499 14.675 L 4.499 14.64 Q 4.499 14.574 4.47 14.543 Q 4.442 14.511 4.38 14.511 Q 4.323 14.511 4.255 14.539 A 0.568 0.568 0 0 0 4.221 14.554 L 4.195 14.489 A 0.391 0.391 0 0 1 4.271 14.458 A 0.446 0.446 0 0 1 4.286 14.454 Q 4.335 14.441 4.385 14.441 A 0.358 0.358 0 0 1 4.439 14.445 Q 4.467 14.449 4.49 14.458 A 0.144 0.144 0 0 1 4.533 14.486 Q 4.571 14.52 4.579 14.588 A 0.334 0.334 0 0 1 4.582 14.628 L 4.582 15.011 Z M 5.13 14.469 L 5.104 14.541 A 0.378 0.378 0 0 0 5.063 14.528 A 0.451 0.451 0 0 0 5.043 14.523 Q 5.014 14.516 4.992 14.515 A 0.188 0.188 0 0 0 4.984 14.515 A 0.188 0.188 0 0 0 4.908 14.53 Q 4.828 14.565 4.815 14.687 A 0.469 0.469 0 0 0 4.813 14.733 Q 4.813 14.801 4.831 14.848 A 0.176 0.176 0 0 0 4.855 14.892 A 0.135 0.135 0 0 0 4.942 14.944 A 0.205 0.205 0 0 0 4.978 14.947 A 0.355 0.355 0 0 0 5.076 14.933 A 0.439 0.439 0 0 0 5.122 14.917 L 5.122 14.992 A 0.241 0.241 0 0 1 5.063 15.013 Q 5.026 15.021 4.981 15.021 A 0.317 0.317 0 0 1 4.903 15.012 A 0.215 0.215 0 0 1 4.792 14.946 Q 4.734 14.881 4.727 14.77 A 0.513 0.513 0 0 1 4.725 14.734 A 0.468 0.468 0 0 1 4.733 14.649 Q 4.741 14.601 4.761 14.564 A 0.234 0.234 0 0 1 4.793 14.517 A 0.22 0.22 0 0 1 4.913 14.448 A 0.333 0.333 0 0 1 4.986 14.44 Q 5.027 14.44 5.067 14.449 A 0.424 0.424 0 0 1 5.09 14.454 Q 5.114 14.461 5.13 14.469 Z M 3.781 14.512 A 0.239 0.239 0 0 0 3.735 14.516 Q 3.683 14.527 3.656 14.562 A 0.145 0.145 0 0 0 3.635 14.602 Q 3.617 14.651 3.617 14.73 A 0.561 0.561 0 0 0 3.62 14.788 Q 3.626 14.847 3.646 14.882 A 0.128 0.128 0 0 0 3.657 14.899 A 0.123 0.123 0 0 0 3.719 14.941 Q 3.74 14.948 3.766 14.949 A 0.273 0.273 0 0 0 3.783 14.95 A 0.169 0.169 0 0 0 3.831 14.943 A 0.122 0.122 0 0 0 3.9 14.893 Q 3.938 14.836 3.938 14.729 A 0.501 0.501 0 0 0 3.935 14.672 Q 3.928 14.609 3.903 14.572 A 0.141 0.141 0 0 0 3.9 14.566 A 0.124 0.124 0 0 0 3.821 14.516 A 0.196 0.196 0 0 0 3.781 14.512 Z M 4.497 14.786 L 4.497 14.735 L 4.412 14.739 Q 4.327 14.742 4.282 14.762 A 0.13 0.13 0 0 0 4.266 14.77 A 0.091 0.091 0 0 0 4.223 14.836 A 0.134 0.134 0 0 0 4.221 14.857 A 0.121 0.121 0 0 0 4.224 14.885 Q 4.229 14.906 4.243 14.921 A 0.076 0.076 0 0 0 4.249 14.927 Q 4.277 14.951 4.327 14.951 Q 4.396 14.951 4.439 14.918 A 0.142 0.142 0 0 0 4.452 14.907 A 0.142 0.142 0 0 0 4.491 14.836 A 0.216 0.216 0 0 0 4.497 14.787 Z"
       id="back_labelLayer"
       stroke="#777777"
       fill="#777777"
       style="stroke:#777777;fill:#777777"
       vector-effect="non-scaling-stroke" />
    <path
       d="M 9.479 12 L 9.479 12.376 L 9.361 12.376 L 9.361 12.612 L 9.479 12.612 L 9.479 12.848 L 9.361 12.848 L 9.361 13.084 L 9.479 13.084 L 9.479 13.32 L 9.361 13.32 L 9.361 13.556 L 9.479 13.556 L 9.479 13.792 L 9.361 13.792 L 9.361 14.028 L 9.479 14.028 L 9.479 14.264 L 9.361 14.264 L 9.361 14.5 L 9.479 14.5 L 9.479 14.736 L 9.361 14.736 L 9.361 14.972 L 9.479 14.972 L 9.479 15.208 L 9.361 15.208 L 9.361 15.444 L 9.479 15.444 L 9.479 15.68 L 9.361 15.68 L 9.361 15.916 L 9.479 15.916 L 9.479 16.152 L 9.361 16.152 L 9.361 16.388 L 9.479 16.388 L 9.479 16.624 L 9.361 16.624 L 9.361 16.86 L 9.479 16.86 L 9.479 17.096 L 9.479 17.236 L 9.905 17.236 L 9.905 17.118 L 10.141 17.118 L 10.141 17.236 L 10.377 17.236 L 10.377 17.118 L 10.613 17.118 L 10.613 17.236 L 10.849 17.236 L 10.849 17.118 L 11.085 17.118 L 11.085 17.236 L 11.321 17.236 L 11.321 17.118 L 11.557 17.118 L 11.557 17.236 L 11.793 17.236 L 11.793 17.118 L 12.029 17.118 L 12.029 17.236 L 12.265 17.236 L 12.265 17.118 L 12.501 17.118 L 12.501 17.236 L 12.737 17.236 L 12.737 17.118 L 12.973 17.118 L 12.973 17.236 L 13.209 17.236 L 13.209 17.118 L 13.445 17.118 L 13.445 17.236 L 13.681 17.236 L 13.681 17.118 L 13.917 17.118 L 13.917 17.236 L 14.153 17.236 L 14.153 17.118 L 14.389 17.118 L 14.389 17.236 L 14.625 17.236 L 14.625 17.118 L 14.861 17.118 L 14.861 17.236 L 15.097 17.236 L 15.097 17.118 L 15.333 17.118 L 15.333 17.236 L 15.569 17.236 L 15.569 17.118 L 15.805 17.118 L 15.805 17.236 L 16.041 17.236 L 16.041 17.118 L 16.277 17.118 L 16.277 17.236 L 16.513 17.236 L 16.513 17.118 L 16.749 17.118 L 16.749 17.236 L 16.985 17.236 L 16.985 17.118 L 17.221 17.118 L 17.221 17.236 L 17.457 17.236 L 17.457 17.118 L 17.693 17.118 L 17.693 17.236 L 17.929 17.236 L 17.929 17.118 L 18.165 17.118 L 18.165 17.236 L 18.401 17.236 L 18.401 17.118 L 18.637 17.118 L 18.637 17.236 L 18.873 17.236 L 18.873 17.118 L 19.109 17.118 L 19.109 17.236 L 19.345 17.236 L 19.345 17.118 L 19.581 17.118 L 19.581 17.236 L 19.817 17.236 L 19.817 17.118 L 20.053 17.118 L 20.053 17.236 L 20.289 17.236 L 20.479 17.236 L 20.479 16.86 L 20.597 16.86 L 20.597 16.624 L 20.479 16.624 L 20.479 16.388 L 20.597 16.388 L 20.597 16.152 L 20.479 16.152 L 20.479 15.916 L 20.597 15.916 L 20.597 15.68 L 20.479 15.68 L 20.479 15.444 L 20.597 15.444 L 20.597 15.208 L 20.479 15.208 L 20.479 14.972 L 20.597 14.972 L 20.597 14.736 L 20.479 14.736 L 20.479 14.5 L 20.597 14.5 L 20.597 14.264 L 20.479 14.264 L 20.479 14.028 L 20.597 14.028 L 20.597 13.792 L 20.479 13.792 L 20.479 13.556 L 20.597 13.556 L 20.597 13.32 L 20.479 13.32 L 20.479 13.084 L 20.597 13.084 L 20.597 12.848 L 20.479 12.848 L 20.479 12.612 L 20.597 12.612 L 20.597 12.376 L 20.479 12.376 L 20.479 12.14 L 20.479 12 L 20.053 12 L 20.053 12.118 L 19.817 12.118 L 19.817 12 L 19.581 12 L 19.581 12.118 L 19.345 12.118 L 19.345 12 L 19.109 12 L 19.109 12.118 L 18.873 12.118 L 18.873 12 L 18.637 12 L 18.637 12.118 L 18.401 12.118 L 18.401 12 L 18.165 12 L 18.165 12.118 L 17.929 12.118 L 17.929 12 L 17.693 12 L 17.693 12.118 L 17.457 12.118 L 17.457 12 L 17.221 12 L 17.221 12.118 L 16.985 12.118 L 16.985 12 L 16.749 12 L 16.749 12.118 L 16.513 12.118 L 16.513 12 L 16.277 12 L 16.277 12.118 L 16.041 12.118 L 16.041 12 L 15.805 12 L 15.805 12.118 L 15.569 12.118 L 15.569 12 L 15.333 12 L 15.333 12.118 L 15.097 12.118 L 15.097 12 L 14.861 12 L 14.861 12.118 L 14.625 12.118 L 14.625 12 L 14.389 12 L 14.389 12.118 L 14.153 12.118 L 14.153 12 L 13.917 12 L 13.917 12.118 L 13.681 12.118 L 13.681 12 L 13.445 12 L 13.445 12.118 L 13.209 12.118 L 13.209 12 L 12.973 12 L 12.973 12.118 L 12.737 12.118 L 12.737 12 L 12.501 12 L 12.501 12.118 L 12.265 12.118 L 12.265 12 L 12.029 12 L 12.029 12.118 L 11.793 12.118 L 11.793 12 L 11.557 12 L 11.557 12.118 L 11.321 12.118 L 11.321 12 L 11.085 12 L 11.085 12.118 L 10.849 12.118 L 10.849 12 L 10.613 12 L 10.613 12.118 L 10.377 12.118 L 10.377 12 L 10.141 12 L 10.141 12.118 L 9.905 12.118 L 9.905 12 L 9.669 12 L 9.479 12 Z"
       id="right_outsideCutPath"
       stroke="#FF0000"
       stroke-width="0.1"
       style="stroke:#FF0000;stroke-width:0.1"
       vector-effect="non-scaling-stroke" />
    <path
       d="M 15.63 14.89 L 15.545 14.89 L 15.545 14.527 Q 15.545 14.484 15.533 14.454 A 0.101 0.101 0 0 0 15.514 14.425 A 0.096 0.096 0 0 0 15.475 14.4 Q 15.45 14.391 15.416 14.391 A 0.257 0.257 0 0 0 15.368 14.396 Q 15.316 14.406 15.287 14.44 A 0.141 0.141 0 0 0 15.263 14.482 Q 15.247 14.527 15.247 14.597 L 15.247 14.89 L 15.162 14.89 L 15.162 14.094 L 15.247 14.094 L 15.247 14.335 A 0.763 0.763 0 0 1 15.246 14.365 Q 15.246 14.378 15.245 14.39 A 0.332 0.332 0 0 1 15.243 14.407 L 15.248 14.407 Q 15.273 14.367 15.319 14.344 A 0.218 0.218 0 0 1 15.391 14.322 A 0.275 0.275 0 0 1 15.425 14.32 A 0.344 0.344 0 0 1 15.482 14.325 Q 15.543 14.335 15.579 14.369 Q 15.63 14.418 15.63 14.524 L 15.63 14.89 Z M 14.853 14.33 L 15.047 14.33 L 15.047 14.383 L 14.943 14.396 A 0.138 0.138 0 0 1 14.955 14.413 Q 14.96 14.423 14.965 14.433 A 0.262 0.262 0 0 1 14.969 14.442 A 0.163 0.163 0 0 1 14.978 14.481 A 0.21 0.21 0 0 1 14.98 14.508 A 0.195 0.195 0 0 1 14.971 14.568 A 0.157 0.157 0 0 1 14.924 14.639 Q 14.873 14.683 14.788 14.688 A 0.369 0.369 0 0 1 14.769 14.688 A 0.273 0.273 0 0 1 14.738 14.686 A 0.23 0.23 0 0 1 14.722 14.684 A 0.151 0.151 0 0 0 14.698 14.7 Q 14.685 14.71 14.678 14.721 A 0.064 0.064 0 0 0 14.668 14.756 A 0.044 0.044 0 0 0 14.67 14.77 Q 14.674 14.783 14.687 14.79 A 0.06 0.06 0 0 0 14.7 14.795 Q 14.714 14.8 14.735 14.801 A 0.323 0.323 0 0 0 14.752 14.801 L 14.851 14.801 A 0.347 0.347 0 0 1 14.904 14.805 Q 14.931 14.809 14.954 14.818 A 0.153 0.153 0 0 1 14.991 14.839 Q 15.04 14.878 15.04 14.951 A 0.184 0.184 0 0 1 15.029 15.014 Q 15.012 15.062 14.965 15.093 A 0.255 0.255 0 0 1 14.899 15.123 Q 14.837 15.142 14.747 15.142 A 0.476 0.476 0 0 1 14.683 15.138 Q 14.619 15.129 14.578 15.101 A 0.135 0.135 0 0 1 14.534 15.053 Q 14.52 15.027 14.518 14.995 A 0.179 0.179 0 0 1 14.518 14.985 Q 14.518 14.934 14.551 14.897 A 0.148 0.148 0 0 1 14.602 14.86 A 0.21 0.21 0 0 1 14.643 14.846 A 0.088 0.088 0 0 1 14.609 14.818 A 0.105 0.105 0 0 1 14.607 14.816 A 0.079 0.079 0 0 1 14.592 14.773 A 0.098 0.098 0 0 1 14.592 14.768 A 0.097 0.097 0 0 1 14.597 14.737 A 0.086 0.086 0 0 1 14.609 14.715 A 0.122 0.122 0 0 1 14.625 14.697 Q 14.633 14.689 14.644 14.681 A 0.267 0.267 0 0 1 14.66 14.67 A 0.149 0.149 0 0 1 14.596 14.618 A 0.184 0.184 0 0 1 14.589 14.609 A 0.175 0.175 0 0 1 14.562 14.525 A 0.214 0.214 0 0 1 14.562 14.511 A 0.245 0.245 0 0 1 14.568 14.453 A 0.161 0.161 0 0 1 14.617 14.369 A 0.18 0.18 0 0 1 14.686 14.331 Q 14.714 14.323 14.747 14.32 A 0.375 0.375 0 0 1 14.774 14.319 A 0.325 0.325 0 0 1 14.817 14.322 A 0.248 0.248 0 0 1 14.853 14.33 Z M 16.062 14.82 L 16.062 14.885 Q 16.05 14.891 16.027 14.895 A 0.317 0.317 0 0 1 16.022 14.896 Q 15.995 14.9 15.973 14.9 A 0.222 0.222 0 0 1 15.908 14.891 Q 15.836 14.869 15.817 14.791 A 0.267 0.267 0 0 1 15.811 14.729 L 15.811 14.396 L 15.73 14.396 L 15.73 14.355 L 15.811 14.319 L 15.846 14.2 L 15.896 14.2 L 15.896 14.33 L 16.058 14.33 L 16.058 14.396 L 15.896 14.396 L 15.896 14.725 A 0.171 0.171 0 0 0 15.898 14.755 Q 15.901 14.772 15.907 14.785 A 0.082 0.082 0 0 0 15.92 14.803 Q 15.944 14.83 15.986 14.83 A 0.279 0.279 0 0 0 16.026 14.827 A 0.26 0.26 0 0 0 16.029 14.827 A 0.459 0.459 0 0 0 16.041 14.825 Q 16.053 14.823 16.061 14.82 A 0.131 0.131 0 0 0 16.062 14.82 Z M 14.218 14.326 L 14.207 14.404 A 0.374 0.374 0 0 0 14.18 14.399 Q 14.166 14.397 14.154 14.397 A 0.199 0.199 0 0 0 14.145 14.397 Q 14.077 14.397 14.029 14.452 Q 13.981 14.507 13.981 14.589 L 13.981 14.89 L 13.896 14.89 L 13.896 14.33 L 13.966 14.33 L 13.976 14.433 L 13.98 14.433 Q 14.011 14.379 14.055 14.349 Q 14.099 14.319 14.151 14.319 A 0.39 0.39 0 0 1 14.186 14.321 A 0.284 0.284 0 0 1 14.218 14.326 Z M 14.408 14.33 L 14.408 14.89 L 14.323 14.89 L 14.323 14.33 L 14.408 14.33 Z M 14.824 14.877 L 14.722 14.877 Q 14.68 14.877 14.652 14.892 A 0.1 0.1 0 0 0 14.632 14.905 A 0.089 0.089 0 0 0 14.603 14.956 A 0.136 0.136 0 0 0 14.6 14.984 Q 14.6 15.027 14.633 15.05 A 0.1 0.1 0 0 0 14.638 15.053 A 0.136 0.136 0 0 0 14.672 15.067 Q 14.703 15.077 14.747 15.077 Q 14.844 15.077 14.895 15.051 A 0.141 0.141 0 0 0 14.906 15.045 A 0.124 0.124 0 0 0 14.935 15.021 A 0.093 0.093 0 0 0 14.958 14.958 A 0.115 0.115 0 0 0 14.956 14.935 Q 14.95 14.908 14.93 14.895 Q 14.902 14.877 14.824 14.877 Z M 14.646 14.509 A 0.166 0.166 0 0 0 14.649 14.544 Q 14.657 14.578 14.679 14.598 Q 14.709 14.625 14.76 14.628 A 0.219 0.219 0 0 0 14.772 14.628 Q 14.896 14.628 14.896 14.508 Q 14.896 14.407 14.817 14.387 A 0.185 0.185 0 0 0 14.77 14.381 A 0.178 0.178 0 0 0 14.734 14.385 Q 14.712 14.389 14.695 14.4 A 0.098 0.098 0 0 0 14.678 14.413 Q 14.651 14.441 14.647 14.491 A 0.223 0.223 0 0 0 14.646 14.509 Z M 14.317 14.162 A 0.094 0.094 0 0 0 14.316 14.178 A 0.1 0.1 0 0 0 14.317 14.187 Q 14.319 14.209 14.33 14.22 A 0.048 0.048 0 0 0 14.348 14.231 A 0.054 0.054 0 0 0 14.366 14.235 A 0.05 0.05 0 0 0 14.401 14.22 Q 14.416 14.206 14.416 14.178 A 0.097 0.097 0 0 0 14.416 14.169 Q 14.414 14.147 14.401 14.135 Q 14.387 14.121 14.366 14.121 Q 14.345 14.121 14.33 14.135 Q 14.32 14.145 14.317 14.162 Z"
       id="right_labelLayer"
       stroke="#777777"
       fill="#777777"
       style="stroke:#777777;fill:#777777"
       vector-effect="non-scaling-stroke" />
    <path
       d="M 20.84 0.118 L 20.84 0.544 L 20.722 0.544 L 20.722 0.78 L 20.84 0.78 L 20.84 1.016 L 20.722 1.016 L 20.722 1.252 L 20.84 1.252 L 20.84 1.488 L 20.722 1.488 L 20.722 1.724 L 20.84 1.724 L 20.84 1.96 L 20.722 1.96 L 20.722 2.196 L 20.84 2.196 L 20.84 2.432 L 20.722 2.432 L 20.722 2.668 L 20.84 2.668 L 20.84 2.904 L 20.722 2.904 L 20.722 3.14 L 20.84 3.14 L 20.84 3.376 L 20.722 3.376 L 20.722 3.612 L 20.84 3.612 L 20.84 3.848 L 20.722 3.848 L 20.722 4.084 L 20.84 4.084 L 20.84 4.32 L 20.722 4.32 L 20.722 4.556 L 20.84 4.556 L 20.84 4.792 L 20.722 4.792 L 20.722 5.028 L 20.84 5.028 L 20.84 5.264 L 20.722 5.264 L 20.722 5.5 L 20.84 5.5 L 20.84 5.736 L 20.722 5.736 L 20.722 5.972 L 20.84 5.972 L 20.84 6.208 L 20.722 6.208 L 20.722 6.444 L 20.84 6.444 L 20.84 6.68 L 20.722 6.68 L 20.722 6.916 L 20.84 6.916 L 20.84 7.152 L 20.722 7.152 L 20.722 7.388 L 20.84 7.388 L 20.84 7.624 L 20.722 7.624 L 20.722 7.86 L 20.84 7.86 L 20.84 8.096 L 20.722 8.096 L 20.722 8.332 L 20.84 8.332 L 20.84 8.568 L 20.722 8.568 L 20.722 8.804 L 20.84 8.804 L 20.84 9.04 L 20.722 9.04 L 20.722 9.276 L 20.84 9.276 L 20.84 9.512 L 20.722 9.512 L 20.722 9.748 L 20.84 9.748 L 20.84 9.984 L 20.722 9.984 L 20.722 10.22 L 20.84 10.22 L 20.84 10.456 L 20.722 10.456 L 20.722 10.692 L 20.84 10.692 L 20.84 10.928 L 20.84 11.118 L 21.21 11.118 L 21.21 11.236 L 21.446 11.236 L 21.446 11.118 L 21.682 11.118 L 21.682 11.236 L 21.918 11.236 L 21.918 11.118 L 22.154 11.118 L 22.154 11.236 L 22.39 11.236 L 22.39 11.118 L 22.626 11.118 L 22.626 11.236 L 22.862 11.236 L 22.862 11.118 L 23.098 11.118 L 23.098 11.236 L 23.334 11.236 L 23.334 11.118 L 23.57 11.118 L 23.57 11.236 L 23.806 11.236 L 23.806 11.118 L 24.042 11.118 L 24.042 11.236 L 24.278 11.236 L 24.278 11.118 L 24.514 11.118 L 24.514 11.236 L 24.75 11.236 L 24.75 11.118 L 24.986 11.118 L 24.986 11.236 L 25.222 11.236 L 25.222 11.118 L 25.458 11.118 L 25.458 11.236 L 25.694 11.236 L 25.694 11.118 L 25.93 11.118 L 25.93 11.236 L 26.166 11.236 L 26.166 11.118 L 26.402 11.118 L 26.402 11.236 L 26.638 11.236 L 26.638 11.118 L 26.874 11.118 L 26.874 11.236 L 27.11 11.236 L 27.11 11.118 L 27.346 11.118 L 27.346 11.236 L 27.582 11.236 L 27.582 11.118 L 27.818 11.118 L 27.818 11.236 L 28.054 11.236 L 28.054 11.118 L 28.29 11.118 L 28.29 11.236 L 28.526 11.236 L 28.526 11.118 L 28.762 11.118 L 28.762 11.236 L 28.998 11.236 L 28.998 11.118 L 29.234 11.118 L 29.234 11.236 L 29.47 11.236 L 29.47 11.118 L 29.706 11.118 L 29.84 11.118 L 29.84 10.692 L 29.958 10.692 L 29.958 10.456 L 29.84 10.456 L 29.84 10.22 L 29.958 10.22 L 29.958 9.984 L 29.84 9.984 L 29.84 9.748 L 29.958 9.748 L 29.958 9.512 L 29.84 9.512 L 29.84 9.276 L 29.958 9.276 L 29.958 9.04 L 29.84 9.04 L 29.84 8.804 L 29.958 8.804 L 29.958 8.568 L 29.84 8.568 L 29.84 8.332 L 29.958 8.332 L 29.958 8.096 L 29.84 8.096 L 29.84 7.86 L 29.958 7.86 L 29.958 7.624 L 29.84 7.624 L 29.84 7.388 L 29.958 7.388 L 29.958 7.152 L 29.84 7.152 L 29.84 6.916 L 29.958 6.916 L 29.958 6.68 L 29.84 6.68 L 29.84 6.444 L 29.958 6.444 L 29.958 6.208 L 29.84 6.208 L 29.84 5.972 L 29.958 5.972 L 29.958 5.736 L 29.84 5.736 L 29.84 5.5 L 29.958 5.5 L 29.958 5.264 L 29.84 5.264 L 29.84 5.028 L 29.958 5.028 L 29.958 4.792 L 29.84 4.792 L 29.84 4.556 L 29.958 4.556 L 29.958 4.32 L 29.84 4.32 L 29.84 4.084 L 29.958 4.084 L 29.958 3.848 L 29.84 3.848 L 29.84 3.612 L 29.958 3.612 L 29.958 3.376 L 29.84 3.376 L 29.84 3.14 L 29.958 3.14 L 29.958 2.904 L 29.84 2.904 L 29.84 2.668 L 29.958 2.668 L 29.958 2.432 L 29.84 2.432 L 29.84 2.196 L 29.958 2.196 L 29.958 1.96 L 29.84 1.96 L 29.84 1.724 L 29.958 1.724 L 29.958 1.488 L 29.84 1.488 L 29.84 1.252 L 29.958 1.252 L 29.958 1.016 L 29.84 1.016 L 29.84 0.78 L 29.958 0.78 L 29.958 0.544 L 29.84 0.544 L 29.84 0.308 L 29.84 0.118 L 29.47 0.118 L 29.47 0 L 29.234 0 L 29.234 0.118 L 28.998 0.118 L 28.998 0 L 28.762 0 L 28.762 0.118 L 28.526 0.118 L 28.526 0 L 28.29 0 L 28.29 0.118 L 28.054 0.118 L 28.054 0 L 27.818 0 L 27.818 0.118 L 27.582 0.118 L 27.582 0 L 27.346 0 L 27.346 0.118 L 27.11 0.118 L 27.11 0 L 26.874 0 L 26.874 0.118 L 26.638 0.118 L 26.638 0 L 26.402 0 L 26.402 0.118 L 26.166 0.118 L 26.166 0 L 25.93 0 L 25.93 0.118 L 25.694 0.118 L 25.694 0 L 25.458 0 L 25.458 0.118 L 25.222 0.118 L 25.222 0 L 24.986 0 L 24.986 0.118 L 24.75 0.118 L 24.75 0 L 24.514 0 L 24.514 0.118 L 24.278 0.118 L 24.278 0 L 24.042 0 L 24.042 0.118 L 23.806 0.118 L 23.806 0 L 23.57 0 L 23.57 0.118 L 23.334 0.118 L 23.334 0 L 23.098 0 L 23.098 0.118 L 22.862 0.118 L 22.862 0 L 22.626 0 L 22.626 0.118 L 22.39 0.118 L 22.39 0 L 22.154 0 L 22.154 0.118 L 21.918 0.118 L 21.918 0 L 21.682 0 L 21.682 0.118 L 21.446 0.118 L 21.446 0 L 21.21 0 L 21.21 0.118 L 20.974 0.118 L 20.84 0.118 Z"
       id="bottom_outsideCutPath"
       stroke="#FF0000"
       stroke-width="0.1"
       style="stroke:#FF0000;stroke-width:0.1"
       vector-effect="non-scaling-stroke" />
    <path
       d="M 28.379 6.311 L 28.229 6.311 L 28.229 5.668 A 0.442 0.442 0 0 0 28.224 5.603 Q 28.22 5.569 28.209 5.543 A 0.181 0.181 0 0 0 28.178 5.49 Q 28.134 5.439 28.047 5.432 A 0.348 0.348 0 0 0 28.022 5.431 Q 27.923 5.431 27.861 5.471 A 0.198 0.198 0 0 0 27.815 5.512 Q 27.748 5.592 27.748 5.759 L 27.748 6.311 L 27.598 6.311 L 27.598 5.668 A 0.442 0.442 0 0 0 27.594 5.603 Q 27.589 5.569 27.579 5.543 A 0.181 0.181 0 0 0 27.548 5.49 A 0.157 0.157 0 0 0 27.476 5.443 Q 27.45 5.435 27.418 5.432 A 0.351 0.351 0 0 0 27.39 5.431 Q 27.249 5.431 27.184 5.516 Q 27.125 5.592 27.119 5.757 A 1.043 1.043 0 0 0 27.119 5.792 L 27.119 6.311 L 26.969 6.311 L 26.969 5.322 L 27.091 5.322 L 27.115 5.457 L 27.122 5.457 A 0.294 0.294 0 0 1 27.242 5.345 A 0.355 0.355 0 0 1 27.382 5.305 A 0.429 0.429 0 0 1 27.414 5.304 A 0.49 0.49 0 0 1 27.525 5.316 Q 27.665 5.348 27.718 5.472 L 27.725 5.472 A 0.313 0.313 0 0 1 27.843 5.355 A 0.376 0.376 0 0 1 27.853 5.349 A 0.379 0.379 0 0 1 27.992 5.307 A 0.472 0.472 0 0 1 28.044 5.304 A 0.52 0.52 0 0 1 28.138 5.312 Q 28.191 5.322 28.232 5.343 A 0.247 0.247 0 0 1 28.295 5.39 Q 28.356 5.453 28.373 5.57 A 0.687 0.687 0 0 1 28.379 5.666 L 28.379 6.311 Z M 22.451 6.184 L 22.44 6.184 L 22.409 6.311 L 22.301 6.311 L 22.301 4.907 L 22.451 4.907 L 22.451 5.248 A 3.122 3.122 0 0 1 22.449 5.354 Q 22.448 5.404 22.444 5.448 A 1.929 1.929 0 0 1 22.444 5.454 L 22.451 5.454 A 0.34 0.34 0 0 1 22.7 5.31 A 0.511 0.511 0 0 1 22.761 5.306 A 0.458 0.458 0 0 1 22.89 5.323 A 0.343 0.343 0 0 1 23.064 5.439 A 0.441 0.441 0 0 1 23.141 5.588 Q 23.16 5.649 23.167 5.723 A 0.961 0.961 0 0 1 23.172 5.816 Q 23.172 6.059 23.063 6.194 A 0.354 0.354 0 0 1 22.811 6.326 A 0.508 0.508 0 0 1 22.761 6.329 A 0.454 0.454 0 0 1 22.647 6.315 A 0.395 0.395 0 0 1 22.585 6.293 A 0.332 0.332 0 0 1 22.451 6.184 Z M 25.004 6.187 L 25.004 6.302 Q 24.982 6.312 24.941 6.32 A 0.56 0.56 0 0 1 24.932 6.321 A 0.649 0.649 0 0 1 24.89 6.327 Q 24.867 6.329 24.847 6.329 A 0.391 0.391 0 0 1 24.731 6.313 Q 24.56 6.26 24.56 6.027 L 24.56 5.438 L 24.418 5.438 L 24.418 5.366 L 24.56 5.304 L 24.623 5.093 L 24.71 5.093 L 24.71 5.322 L 24.996 5.322 L 24.996 5.438 L 24.71 5.438 L 24.71 6.02 Q 24.71 6.11 24.752 6.157 A 0.139 0.139 0 0 0 24.837 6.203 A 0.2 0.2 0 0 0 24.868 6.205 A 0.492 0.492 0 0 0 24.94 6.2 A 0.454 0.454 0 0 0 24.945 6.199 A 0.81 0.81 0 0 0 24.967 6.196 Q 24.987 6.192 25.002 6.188 A 0.228 0.228 0 0 0 25.004 6.187 Z M 25.656 6.187 L 25.656 6.302 Q 25.634 6.312 25.593 6.32 A 0.56 0.56 0 0 1 25.584 6.321 A 0.649 0.649 0 0 1 25.542 6.327 Q 25.519 6.329 25.499 6.329 A 0.391 0.391 0 0 1 25.383 6.313 Q 25.212 6.26 25.212 6.027 L 25.212 5.438 L 25.07 5.438 L 25.07 5.366 L 25.212 5.304 L 25.275 5.093 L 25.362 5.093 L 25.362 5.322 L 25.648 5.322 L 25.648 5.438 L 25.362 5.438 L 25.362 6.02 Q 25.362 6.11 25.404 6.157 A 0.139 0.139 0 0 0 25.49 6.203 A 0.2 0.2 0 0 0 25.52 6.205 A 0.492 0.492 0 0 0 25.592 6.2 A 0.454 0.454 0 0 0 25.597 6.199 A 0.81 0.81 0 0 0 25.619 6.196 Q 25.639 6.192 25.654 6.188 A 0.228 0.228 0 0 0 25.656 6.187 Z M 24.273 5.966 A 0.773 0.773 0 0 0 24.287 5.816 Q 24.287 5.719 24.266 5.64 A 0.466 0.466 0 0 0 24.164 5.442 A 0.392 0.392 0 0 0 23.982 5.325 A 0.503 0.503 0 0 0 23.835 5.304 Q 23.62 5.304 23.499 5.439 A 0.414 0.414 0 0 0 23.448 5.509 Q 23.409 5.578 23.392 5.665 A 0.777 0.777 0 0 0 23.378 5.816 Q 23.378 5.972 23.434 6.088 A 0.492 0.492 0 0 0 23.445 6.109 A 0.405 0.405 0 0 0 23.593 6.266 A 0.417 0.417 0 0 0 23.689 6.309 A 0.481 0.481 0 0 0 23.828 6.329 Q 24.043 6.329 24.165 6.193 Q 24.246 6.103 24.273 5.966 Z M 26.693 5.966 A 0.773 0.773 0 0 0 26.706 5.816 Q 26.706 5.719 26.686 5.64 A 0.466 0.466 0 0 0 26.584 5.442 A 0.392 0.392 0 0 0 26.402 5.325 A 0.503 0.503 0 0 0 26.255 5.304 Q 26.04 5.304 25.919 5.439 A 0.414 0.414 0 0 0 25.868 5.509 Q 25.829 5.578 25.812 5.665 A 0.777 0.777 0 0 0 25.798 5.816 Q 25.798 5.972 25.854 6.088 A 0.492 0.492 0 0 0 25.865 6.109 A 0.405 0.405 0 0 0 26.013 6.266 A 0.417 0.417 0 0 0 26.109 6.309 A 0.481 0.481 0 0 0 26.248 6.329 Q 26.463 6.329 26.585 6.193 Q 26.666 6.103 26.693 5.966 Z M 23.533 5.816 A 0.758 0.758 0 0 0 23.541 5.924 Q 23.549 5.979 23.565 6.023 A 0.314 0.314 0 0 0 23.609 6.104 Q 23.685 6.203 23.832 6.203 A 0.348 0.348 0 0 0 23.924 6.192 A 0.242 0.242 0 0 0 24.055 6.105 A 0.321 0.321 0 0 0 24.105 6.007 Q 24.12 5.962 24.126 5.907 A 0.789 0.789 0 0 0 24.131 5.816 A 0.747 0.747 0 0 0 24.124 5.709 Q 24.116 5.655 24.1 5.611 A 0.308 0.308 0 0 0 24.055 5.529 Q 23.979 5.431 23.83 5.431 A 0.356 0.356 0 0 0 23.741 5.442 A 0.238 0.238 0 0 0 23.608 5.528 A 0.31 0.31 0 0 0 23.56 5.621 Q 23.546 5.664 23.539 5.716 A 0.791 0.791 0 0 0 23.533 5.816 Z M 25.953 5.816 A 0.758 0.758 0 0 0 25.961 5.924 Q 25.968 5.979 25.985 6.023 A 0.314 0.314 0 0 0 26.029 6.104 Q 26.105 6.203 26.252 6.203 A 0.348 0.348 0 0 0 26.344 6.192 A 0.242 0.242 0 0 0 26.475 6.105 A 0.321 0.321 0 0 0 26.525 6.007 Q 26.54 5.962 26.546 5.907 A 0.789 0.789 0 0 0 26.551 5.816 A 0.747 0.747 0 0 0 26.544 5.709 Q 26.536 5.655 26.52 5.611 A 0.308 0.308 0 0 0 26.475 5.529 Q 26.399 5.431 26.25 5.431 A 0.356 0.356 0 0 0 26.161 5.442 A 0.238 0.238 0 0 0 26.028 5.528 A 0.31 0.31 0 0 0 25.98 5.621 Q 25.966 5.664 25.959 5.716 A 0.791 0.791 0 0 0 25.953 5.816 Z M 22.74 5.431 A 0.421 0.421 0 0 0 22.658 5.439 Q 22.567 5.457 22.519 5.519 A 0.256 0.256 0 0 0 22.482 5.59 Q 22.457 5.66 22.452 5.767 A 1.153 1.153 0 0 0 22.451 5.816 Q 22.451 5.992 22.501 6.084 A 0.226 0.226 0 0 0 22.52 6.114 A 0.217 0.217 0 0 0 22.631 6.188 Q 22.668 6.199 22.712 6.202 A 0.481 0.481 0 0 0 22.743 6.203 A 0.298 0.298 0 0 0 22.828 6.192 A 0.215 0.215 0 0 0 22.949 6.103 A 0.344 0.344 0 0 0 22.991 6.011 Q 23.005 5.967 23.011 5.914 A 0.858 0.858 0 0 0 23.017 5.814 A 0.885 0.885 0 0 0 23.011 5.713 Q 22.998 5.594 22.949 5.526 A 0.218 0.218 0 0 0 22.81 5.438 A 0.346 0.346 0 0 0 22.74 5.431 Z"
       id="bottom_labelLayer"
       stroke="#777777"
       fill="#777777"
       style="stroke:#777777;fill:#777777"
       vector-effect="non-scaling-stroke" />
  </g>
  <rect
     style="opacity:1;fill:#ffffff;fill-opacity:0.13500001;stroke:#000000;stroke-width:0.01041667;stroke-miterlimit:4;stroke-dasharray:none;stroke-dashoffset:0;stroke-opacity:1"
     id="rect874"
     width="3"
     height="1.1324025"
     x="0.55599999"
     y="16.103598" />
  <text
     xml:space="preserve"
     style="font-style:normal;font-weight:normal;font-size:0.41666684px;line-height:125%;font-family:Sans;letter-spacing:0px;word-spacing:0px;fill:#000000;fill-opacity:1;stroke:none;stroke-width:0.01041667px;stroke-linecap:butt;stroke-linejoin:miter;stroke-opacity:1"
     x="1.1916231"
     y="16.609241"
     id="text878"><tspan
       sodipodi:role="line"
       id="tspan876"
       x="1.1916231"
       y="16.609241"
       style="stroke-width:0.01041667px">rpi</tspan></text>
  <rect
     style="opacity:1;fill:#ffffff;fill-opacity:0.13500001;stroke:#000000;stroke-width:0.01041667;stroke-miterlimit:4;stroke-dasharray:none;stroke-dashoffset:0;stroke-opacity:1"
     id="rect884"
     width="7"
     height="0.2979058"
     x="22.005209"
     y="12.753143" />
  <rect
     style="opacity:1;fill:#ffffff;fill-opacity:0.13500001;stroke:#000000;stroke-width:0.01041667;stroke-miterlimit:4;stroke-dasharray:none;stroke-dashoffset:0;stroke-opacity:1"
     id="rect884-3"
     width="7"
     height="0.2979058"
     x="22.005209"
     y="13.253143" />
  <rect
     style="opacity:1;fill:#ffffff;fill-opacity:0.13500001;stroke:#000000;stroke-width:0.01041667;stroke-miterlimit:4;stroke-dasharray:none;stroke-dashoffset:0;stroke-opacity:1"
     id="rect884-6"
     width="7"
     height="0.2979058"
     x="22.005209"
     y="13.753143" />
  <rect
     style="opacity:1;fill:#ffffff;fill-opacity:0.13500001;stroke:#000000;stroke-width:0.01041667;stroke-miterlimit:4;stroke-dasharray:none;stroke-dashoffset:0;stroke-opacity:1"
     id="rect884-3-7"
     width="7"
     height="0.2979058"
     x="22.005209"
     y="14.253143" />
  <rect
     style="opacity:1;fill:#ffffff;fill-opacity:0.13500001;stroke:#000000;stroke-width:0.01041667;stroke-miterlimit:4;stroke-dasharray:none;stroke-dashoffset:0;stroke-opacity:1"
     id="rect884-5"
     width="7"
     height="0.2979058"
     x="22.005209"
     y="14.753143" />
  <rect
     style="opacity:1;fill:#ffffff;fill-opacity:0.13500001;stroke:#000000;stroke-width:0.01041667;stroke-miterlimit:4;stroke-dasharray:none;stroke-dashoffset:0;stroke-opacity:1"
     id="rect884-3-3"
     width="7"
     height="0.2979058"
     x="22.005209"
     y="15.253143" />
  <rect
     style="opacity:1;fill:#ffffff;fill-opacity:0.13500001;stroke:#000000;stroke-width:0.01041667;stroke-miterlimit:4;stroke-dasharray:none;stroke-dashoffset:0;stroke-opacity:1"
     id="rect884-6-5"
     width="7"
     height="0.2979058"
     x="22.005209"
     y="15.753144" />
  <rect
     style="opacity:1;fill:#ffffff;fill-opacity:0.13500001;stroke:#000000;stroke-width:0.01041667;stroke-miterlimit:4;stroke-dasharray:none;stroke-dashoffset:0;stroke-opacity:1"
     id="rect884-3-7-6"
     width="7"
     height="0.2979058"
     x="22.005209"
     y="16.253145" />
  <rect
     style="opacity:1;fill:#ffffff;fill-opacity:0.13500001;stroke:#000000;stroke-width:0.01041667;stroke-miterlimit:4;stroke-dasharray:none;stroke-dashoffset:0;stroke-opacity:1"
     id="rect884-2"
     width="7"
     height="0.2979058"
     x="22.005209"
     y="17.174803" />
  <rect
     style="opacity:1;fill:#ffffff;fill-opacity:0.13500001;stroke:#000000;stroke-width:0.01041667;stroke-miterlimit:4;stroke-dasharray:none;stroke-dashoffset:0;stroke-opacity:1"
     id="rect884-3-9"
     width="7"
     height="0.2979058"
     x="22.005209"
     y="17.674803" />
  <rect
     style="opacity:1;fill:#ffffff;fill-opacity:0.13500001;stroke:#000000;stroke-width:0.01041667;stroke-miterlimit:4;stroke-dasharray:none;stroke-dashoffset:0;stroke-opacity:1"
     id="rect884-6-1"
     width="7"
     height="0.2979058"
     x="22.005209"
     y="18.174803" />
  <rect
     style="opacity:1;fill:#ffffff;fill-opacity:0.13500001;stroke:#000000;stroke-width:0.01041667;stroke-miterlimit:4;stroke-dasharray:none;stroke-dashoffset:0;stroke-opacity:1"
     id="rect884-3-7-2"
     width="7"
     height="0.2979058"
     x="22.005209"
     y="18.674803" />
  <rect
     style="opacity:1;fill:#ffffff;fill-opacity:0.13500001;stroke:#000000;stroke-width:0.01041667;stroke-miterlimit:4;stroke-dasharray:none;stroke-dashoffset:0;stroke-opacity:1"
     id="rect884-5-7"
     width="7"
     height="0.2979058"
     x="22.005209"
     y="19.174803" />
  <rect
     style="opacity:1;fill:#ffffff;fill-opacity:0.13500001;stroke:#000000;stroke-width:0.01041667;stroke-miterlimit:4;stroke-dasharray:none;stroke-dashoffset:0;stroke-opacity:1"
     id="rect884-3-3-0"
     width="7"
     height="0.2979058"
     x="22.005209"
     y="19.674803" />
  <rect
     style="opacity:1;fill:#ffffff;fill-opacity:0.13500001;stroke:#000000;stroke-width:0.01041667;stroke-miterlimit:4;stroke-dasharray:none;stroke-dashoffset:0;stroke-opacity:1"
     id="rect884-6-5-9"
     width="7"
     height="0.2979058"
     x="22.005209"
     y="20.174803" />
  <rect
     style="opacity:1;fill:#ffffff;fill-opacity:0.13500001;stroke:#000000;stroke-width:0.01041667;stroke-miterlimit:4;stroke-dasharray:none;stroke-dashoffset:0;stroke-opacity:1"
     id="rect884-3-7-6-3"
     width="7"
     height="0.2979058"
     x="22.005209"
     y="20.674803" />
  <rect
     style="opacity:1;fill:#ffffff;fill-opacity:0.13500001;stroke:#000000;stroke-width:0.01041667;stroke-miterlimit:4;stroke-dasharray:none;stroke-dashoffset:0;stroke-opacity:1"
     id="rect884-36"
     width="7"
     height="0.2979058"
     x="12.891842"
     y="12.715031" />
  <rect
     style="opacity:1;fill:#ffffff;fill-opacity:0.13500001;stroke:#000000;stroke-width:0.01041667;stroke-miterlimit:4;stroke-dasharray:none;stroke-dashoffset:0;stroke-opacity:1"
     id="rect884-3-75"
     width="7"
     height="0.2979058"
     x="12.891842"
     y="13.215031" />
  <rect
     style="opacity:1;fill:#ffffff;fill-opacity:0.13500001;stroke:#000000;stroke-width:0.01041667;stroke-miterlimit:4;stroke-dasharray:none;stroke-dashoffset:0;stroke-opacity:1"
     id="rect884-6-3"
     width="7"
     height="0.2979058"
     x="12.891842"
     y="13.715031" />
  <rect
     style="opacity:1;fill:#ffffff;fill-opacity:0.13500001;stroke:#000000;stroke-width:0.01041667;stroke-miterlimit:4;stroke-dasharray:none;stroke-dashoffset:0;stroke-opacity:1"
     id="rect884-3-7-5"
     width="7"
     height="0.2979058"
     x="12.891842"
     y="14.215032" />
  <rect
     style="opacity:1;fill:#ffffff;fill-opacity:0.13500001;stroke:#000000;stroke-width:0.01041667;stroke-miterlimit:4;stroke-dasharray:none;stroke-dashoffset:0;stroke-opacity:1"
     id="rect884-5-6"
     width="7"
     height="0.2979058"
     x="12.891842"
     y="14.715032" />
  <rect
     style="opacity:1;fill:#ffffff;fill-opacity:0.13500001;stroke:#000000;stroke-width:0.01041667;stroke-miterlimit:4;stroke-dasharray:none;stroke-dashoffset:0;stroke-opacity:1"
     id="rect884-3-3-2"
     width="7"
     height="0.2979058"
     x="12.891842"
     y="15.215032" />
  <rect
     style="opacity:1;fill:#ffffff;fill-opacity:0.13500001;stroke:#000000;stroke-width:0.01041667;stroke-miterlimit:4;stroke-dasharray:none;stroke-dashoffset:0;stroke-opacity:1"
     id="rect884-6-5-91"
     width="7"
     height="0.2979058"
     x="12.891842"
     y="15.715032" />
  <rect
     style="opacity:1;fill:#ffffff;fill-opacity:0.13500001;stroke:#000000;stroke-width:0.01041667;stroke-miterlimit:4;stroke-dasharray:none;stroke-dashoffset:0;stroke-opacity:1"
     id="rect884-3-7-6-2"
     width="7"
     height="0.2979058"
     x="12.891842"
     y="16.215033" />
  <rect
     style="opacity:1;fill:#ffffff;fill-opacity:0.13500001;stroke:#000000;stroke-width:0.01041667;stroke-miterlimit:4;stroke-dasharray:none;stroke-dashoffset:0;stroke-opacity:1"
     id="rect884-7"
     width="7"
     height="0.2979058"
     x="12.892208"
     y="18.083384" />
  <rect
     style="opacity:1;fill:#ffffff;fill-opacity:0.13500001;stroke:#000000;stroke-width:0.01041667;stroke-miterlimit:4;stroke-dasharray:none;stroke-dashoffset:0;stroke-opacity:1"
     id="rect884-3-0"
     width="7"
     height="0.2979058"
     x="12.892208"
     y="18.583384" />
  <rect
     style="opacity:1;fill:#ffffff;fill-opacity:0.13500001;stroke:#000000;stroke-width:0.01041667;stroke-miterlimit:4;stroke-dasharray:none;stroke-dashoffset:0;stroke-opacity:1"
     id="rect884-6-9"
     width="7"
     height="0.2979058"
     x="12.892208"
     y="19.083384" />
  <rect
     style="opacity:1;fill:#ffffff;fill-opacity:0.13500001;stroke:#000000;stroke-width:0.01041667;stroke-miterlimit:4;stroke-dasharray:none;stroke-dashoffset:0;stroke-opacity:1"
     id="rect884-3-7-3"
     width="7"
     height="0.2979058"
     x="12.892208"
     y="19.583384" />
  <rect
     style="opacity:1;fill:#ffffff;fill-opacity:0.13500001;stroke:#000000;stroke-width:0.01041667;stroke-miterlimit:4;stroke-dasharray:none;stroke-dashoffset:0;stroke-opacity:1"
     id="rect884-5-60"
     width="7"
     height="0.2979058"
     x="12.892208"
     y="20.083384" />
  <rect
     style="opacity:1;fill:#ffffff;fill-opacity:0.13500001;stroke:#000000;stroke-width:0.01041667;stroke-miterlimit:4;stroke-dasharray:none;stroke-dashoffset:0;stroke-opacity:1"
     id="rect884-3-3-6"
     width="7"
     height="0.2979058"
     x="12.892208"
     y="20.583384" />
  <rect
     style="opacity:1;fill:#ffffff;fill-opacity:0.13500001;stroke:#000000;stroke-width:0.01041667;stroke-miterlimit:4;stroke-dasharray:none;stroke-dashoffset:0;stroke-opacity:1"
     id="rect884-6-5-2"
     width="7"
     height="0.2979058"
     x="12.892208"
     y="21.083384" />
  <rect
     style="opacity:1;fill:#ffffff;fill-opacity:0.13500001;stroke:#000000;stroke-width:0.01041667;stroke-miterlimit:4;stroke-dasharray:none;stroke-dashoffset:0;stroke-opacity:1"
     id="rect884-3-7-6-6"
     width="7"
     height="0.2979058"
     x="12.892208"
     y="21.583385" />
  <rect
     style="opacity:1;fill:#ffffff;fill-opacity:0.13500001;stroke:#000000;stroke-width:0.01041667;stroke-miterlimit:4;stroke-dasharray:none;stroke-dashoffset:0;stroke-opacity:1"
     id="rect1694"
     width="1.0629921"
     height="2.0171425"
     x="10.506391"
     y="19.094025" />
  <circle
     style="opacity:1;fill:#ffffff;fill-opacity:0.13500001;stroke:#000000;stroke-width:0.01041667;stroke-miterlimit:4;stroke-dasharray:none;stroke-dashoffset:0;stroke-opacity:1"
     id="path1700"
     cx="11.861902"
     cy="20.081678"
     r="0.078740157" />
  <circle
     style="opacity:1;fill:#ffffff;fill-opacity:0.13500001;stroke:#000000;stroke-width:0.01041667;stroke-miterlimit:4;stroke-dasharray:none;stroke-dashoffset:0;stroke-opacity:1"
     id="path1700-1"
     cx="10.213871"
     cy="20.081678"
     r="0.078740157" />
  <circle
     style="opacity:1;fill:#ffffff;fill-opacity:0.13500001;stroke:#000000;stroke-width:0.01041667;stroke-miterlimit:4;stroke-dasharray:none;stroke-dashoffset:0;stroke-opacity:1"
     id="path6043"
     cx="23.493483"
     cy="12.575912"
     r="0.098425195" />
  <circle
     style="opacity:1;fill:#ffffff;fill-opacity:0.13500001;stroke:#000000;stroke-width:0.01041667;stroke-miterlimit:4;stroke-dasharray:none;stroke-dashoffset:0;stroke-opacity:1"
     id="path6043-8"
     cx="27.627338"
     cy="12.575911"
     r="0.098425202" />
  <circle
     style="opacity:1;fill:#ffffff;fill-opacity:0.13500001;stroke:#000000;stroke-width:0.01041667;stroke-miterlimit:4;stroke-dasharray:none;stroke-dashoffset:0;stroke-opacity:1"
     id="path6043-7"
     cx="23.493483"
     cy="16.709768"
     r="0.098425202" />
  <circle
     style="opacity:1;fill:#ffffff;fill-opacity:0.13500001;stroke:#000000;stroke-width:0.01041667;stroke-miterlimit:4;stroke-dasharray:none;stroke-dashoffset:0;stroke-opacity:1"
     id="path6043-8-9"
     cx="27.627338"
     cy="16.709768"
     r="0.098425202" />
  <circle
     style="opacity:1;fill:#ffffff;fill-opacity:0.13500001;stroke:#000000;stroke-width:0.01041667;stroke-miterlimit:4;stroke-dasharray:none;stroke-dashoffset:0;stroke-opacity:1"
     id="path1700-2"
     cx="2.0219808"
     cy="14.440886"
     r="0.082677163" />
  <circle
     style="opacity:1;fill:#ffffff;fill-opacity:0.13500001;stroke:#000000;stroke-width:0.01041667;stroke-miterlimit:4;stroke-dasharray:none;stroke-dashoffset:0;stroke-opacity:1"
     id="path1700-1-0"
     cx="1.0381216"
     cy="14.440886"
     r="0.082677163" />
  <rect
     style="opacity:1;fill:#ffffff;fill-opacity:0.13500001;stroke:#000000;stroke-width:0.01041668;stroke-miterlimit:4;stroke-dasharray:none;stroke-dashoffset:0;stroke-opacity:1"
     id="rect6098"
     width="0.63249671"
     height="0.30060697"
     x="1.2137569"
     y="14.302978" />
  <text
     xml:space="preserve"
     style="font-style:normal;font-weight:normal;font-size:0.41666681px;line-height:125%;font-family:Sans;letter-spacing:0px;word-spacing:0px;fill:#000000;fill-opacity:1;stroke:none;stroke-width:0.01041667px;stroke-linecap:butt;stroke-linejoin:miter;stroke-opacity:1"
     x="1.0271367"
     y="14.071774"
     id="text6102"><tspan
       sodipodi:role="line"
       id="tspan6100"
       x="1.0271367"
       y="14.071774"
       style="stroke-width:0.01041667px">Door</tspan></text>
</svg>
