<?xml version="1.0" encoding="UTF-8" standalone="no"?>
<svg
   xmlns:dc="http://purl.org/dc/elements/1.1/"
   xmlns:cc="http://creativecommons.org/ns#"
   xmlns:rdf="http://www.w3.org/1999/02/22-rdf-syntax-ns#"
   xmlns:svg="http://www.w3.org/2000/svg"
   xmlns="http://www.w3.org/2000/svg"
   xmlns:sodipodi="http://sodipodi.sourceforge.net/DTD/sodipodi-0.dtd"
   xmlns:inkscape="http://www.inkscape.org/namespaces/inkscape"
   width="806mm"
   height="575mm"
   viewBox="0 0 806 575"
   version="1.1"
   preserveAspectRatio="xMidYMid meet"
   id="svg15"
   sodipodi:docname="bodgery-doorbot-box.svg"
   inkscape:version="0.92.3 (2405546, 2018-03-11)">
  <metadata
     id="metadata21">
    <rdf:RDF>
      <cc:Work
         rdf:about="">
        <dc:format>image/svg+xml</dc:format>
        <dc:type
           rdf:resource="http://purl.org/dc/dcmitype/StillImage" />
        <dc:title></dc:title>
      </cc:Work>
    </rdf:RDF>
  </metadata>
  <defs
     id="defs19" />
  <sodipodi:namedview
     pagecolor="#ffffff"
     bordercolor="#666666"
     borderopacity="1"
     objecttolerance="10"
     gridtolerance="10"
     guidetolerance="10"
     inkscape:pageopacity="0"
     inkscape:pageshadow="2"
     inkscape:window-width="1751"
     inkscape:window-height="886"
     id="namedview17"
     showgrid="false"
     inkscape:zoom="0.30715079"
     inkscape:cx="1639.7315"
     inkscape:cy="819.19422"
     inkscape:window-x="130"
     inkscape:window-y="70"
     inkscape:window-maximized="0"
     inkscape:current-layer="svg15" />
  <g
     id="svgGroup"
     stroke-linecap="round"
     fill-rule="evenodd"
     font-size="9pt"
     stroke="#000"
     stroke-width="0.25mm"
     fill="none"
     style="stroke:#000;stroke-width:0.25mm;fill:none">
    <path
       d="M 0 438 L 0 457.5 L 6.8 457.5 L 6.8 471.5 L 0 471.5 L 0 485.5 L 6.8 485.5 L 6.8 499.5 L 0 499.5 L 0 513.5 L 6.8 513.5 L 6.8 527.5 L 0 527.5 L 0 541.5 L 6.8 541.5 L 6.8 555.5 L 0 555.5 L 0 569.5 L 0 575 L 23.5 575 L 23.5 568.2 L 37.5 568.2 L 37.5 575 L 51.5 575 L 51.5 568.2 L 65.5 568.2 L 65.5 575 L 79.5 575 L 79.5 568.2 L 93.5 568.2 L 93.5 575 L 107.5 575 L 107.5 568.2 L 121.5 568.2 L 121.5 575 L 135.5 575 L 135.5 568.2 L 149.5 568.2 L 149.5 575 L 163.5 575 L 163.5 568.2 L 177.5 568.2 L 177.5 575 L 191.5 575 L 191.5 568.2 L 205.5 568.2 L 205.5 575 L 219.5 575 L 219.5 568.2 L 233.5 568.2 L 233.5 575 L 247.5 575 L 257 575 L 257 555.5 L 250.2 555.5 L 250.2 541.5 L 257 541.5 L 257 527.5 L 250.2 527.5 L 250.2 513.5 L 257 513.5 L 257 499.5 L 250.2 499.5 L 250.2 485.5 L 257 485.5 L 257 471.5 L 250.2 471.5 L 250.2 457.5 L 257 457.5 L 257 443.5 L 257 438 L 233.5 438 L 233.5 444.8 L 219.5 444.8 L 219.5 438 L 205.5 438 L 205.5 444.8 L 191.5 444.8 L 191.5 438 L 177.5 438 L 177.5 444.8 L 163.5 444.8 L 163.5 438 L 149.5 438 L 149.5 444.8 L 135.5 444.8 L 135.5 438 L 121.5 438 L 121.5 444.8 L 107.5 444.8 L 107.5 438 L 93.5 438 L 93.5 444.8 L 79.5 444.8 L 79.5 438 L 65.5 438 L 65.5 444.8 L 51.5 444.8 L 51.5 438 L 37.5 438 L 37.5 444.8 L 23.5 444.8 L 23.5 438 L 9.5 438 L 0 438 Z"
       id="front_outsideCutPath"
       stroke="#FF0000"
       stroke-width="0.1"
       style="stroke:#FF0000;stroke-width:0.1"
       vector-effect="non-scaling-stroke" />
    <path
       d="M 148.468 516.848 L 146.247 516.848 L 146.247 507.363 Q 146.247 506.22 145.915 505.447 A 2.642 2.642 0 0 0 145.431 504.687 A 2.504 2.504 0 0 0 144.404 504.032 Q 144.001 503.889 143.505 503.836 A 5.888 5.888 0 0 0 142.876 503.804 A 6.722 6.722 0 0 0 141.618 503.914 Q 140.917 504.047 140.378 504.344 A 3.131 3.131 0 0 0 139.504 505.048 Q 138.526 506.185 138.442 508.673 A 14.228 14.228 0 0 0 138.434 509.155 L 138.434 516.848 L 136.213 516.848 L 136.213 502.185 L 138.019 502.185 L 138.38 504.192 L 138.487 504.192 A 4.497 4.497 0 0 1 140.249 502.589 A 5.407 5.407 0 0 1 140.401 502.513 A 6.014 6.014 0 0 1 142.541 501.942 A 7.272 7.272 0 0 1 143.143 501.917 A 8.768 8.768 0 0 1 144.636 502.036 Q 145.442 502.176 146.08 502.479 A 3.991 3.991 0 0 1 147.13 503.195 A 3.849 3.849 0 0 1 148.068 504.668 Q 148.468 505.746 148.468 507.282 L 148.468 516.848 Z M 105.803 502.185 L 105.803 503.911 L 102.07 503.911 L 102.07 516.848 L 99.849 516.848 L 99.849 503.911 L 97.227 503.911 L 97.227 502.907 L 99.849 502.105 L 99.849 501.289 A 9.001 9.001 0 0 1 100.059 499.249 Q 100.709 496.467 103.369 495.985 A 6.751 6.751 0 0 1 104.572 495.884 A 7.152 7.152 0 0 1 105.584 495.961 Q 106.076 496.031 106.624 496.167 A 14.377 14.377 0 0 1 107.301 496.352 L 106.726 498.131 A 10.785 10.785 0 0 0 105.887 497.895 Q 105.463 497.795 105.09 497.751 A 4.776 4.776 0 0 0 104.532 497.716 A 2.995 2.995 0 0 0 103.81 497.798 A 1.923 1.923 0 0 0 102.672 498.553 A 2.57 2.57 0 0 0 102.332 499.238 Q 102.07 500.016 102.07 501.235 L 102.07 502.185 L 105.803 502.185 Z M 159.773 515.015 L 159.773 516.715 Q 159.447 516.872 158.842 516.98 A 8.306 8.306 0 0 1 158.71 517.002 A 9.626 9.626 0 0 1 158.082 517.084 Q 157.786 517.112 157.521 517.115 A 5.692 5.692 0 0 1 157.445 517.116 Q 153.191 517.116 153.191 512.634 L 153.191 503.911 L 151.09 503.911 L 151.09 502.841 L 153.191 501.917 L 154.127 498.787 L 155.412 498.787 L 155.412 502.185 L 159.666 502.185 L 159.666 503.911 L 155.412 503.911 L 155.412 512.54 Q 155.412 513.865 156.04 514.574 A 2.063 2.063 0 0 0 157.309 515.249 A 2.968 2.968 0 0 0 157.766 515.283 A 7.294 7.294 0 0 0 158.835 515.207 A 6.724 6.724 0 0 0 158.904 515.196 A 12.014 12.014 0 0 0 159.224 515.141 Q 159.531 515.084 159.743 515.024 A 3.334 3.334 0 0 0 159.773 515.015 Z M 116.921 502.078 L 116.613 504.138 A 9.788 9.788 0 0 0 115.909 504.008 Q 115.558 503.958 115.246 503.943 A 5.209 5.209 0 0 0 115.007 503.938 A 3.848 3.848 0 0 0 112.164 505.166 A 5.265 5.265 0 0 0 111.964 505.383 Q 110.699 506.827 110.699 508.981 L 110.699 516.848 L 108.478 516.848 L 108.478 502.185 L 110.311 502.185 L 110.566 504.901 L 110.673 504.901 A 7.5 7.5 0 0 1 111.511 503.703 A 5.729 5.729 0 0 1 112.639 502.693 A 4.427 4.427 0 0 1 115.168 501.917 A 10.196 10.196 0 0 1 116.081 501.956 A 7.442 7.442 0 0 1 116.921 502.078 Z M 132.116 511.735 A 11.472 11.472 0 0 0 132.32 509.503 A 13.034 13.034 0 0 0 132.315 509.151 Q 132.282 507.93 132.018 506.893 A 6.916 6.916 0 0 0 130.507 503.964 A 5.814 5.814 0 0 0 127.808 502.224 A 7.463 7.463 0 0 0 125.617 501.917 A 8.626 8.626 0 0 0 124.067 502.05 A 5.874 5.874 0 0 0 120.64 503.918 A 6.136 6.136 0 0 0 119.886 504.963 Q 119.306 505.974 119.049 507.273 A 11.531 11.531 0 0 0 118.847 509.503 A 11.11 11.11 0 0 0 118.987 511.303 A 8.216 8.216 0 0 0 119.677 513.544 A 7.3 7.3 0 0 0 119.838 513.86 A 6.013 6.013 0 0 0 122.031 516.193 A 6.184 6.184 0 0 0 123.451 516.824 A 7.132 7.132 0 0 0 125.523 517.116 A 8.624 8.624 0 0 0 127.029 516.99 A 5.921 5.921 0 0 0 130.514 515.102 Q 131.713 513.765 132.116 511.735 Z M 121.148 509.503 A 11.247 11.247 0 0 0 121.255 511.11 Q 121.373 511.926 121.621 512.586 A 4.659 4.659 0 0 0 122.272 513.785 A 3.64 3.64 0 0 0 124.643 515.181 A 5.516 5.516 0 0 0 125.577 515.256 A 5.159 5.159 0 0 0 126.938 515.087 A 3.59 3.59 0 0 0 128.888 513.791 A 4.768 4.768 0 0 0 129.63 512.345 Q 130.019 511.157 130.019 509.503 Q 130.019 507.71 129.553 506.469 A 4.573 4.573 0 0 0 128.888 505.255 A 3.653 3.653 0 0 0 126.617 503.9 A 5.601 5.601 0 0 0 125.55 503.804 A 5.285 5.285 0 0 0 124.234 503.958 A 3.537 3.537 0 0 0 122.259 505.235 A 4.592 4.592 0 0 0 121.545 506.615 Q 121.334 507.249 121.235 508.024 A 11.736 11.736 0 0 0 121.148 509.503 Z"
       id="front_labelLayer"
       stroke="#777777"
       fill="#777777"
       style="stroke:#777777;fill:#777777"
       vector-effect="non-scaling-stroke" />
    <path
       d="M 266.8 438 L 266.8 457.5 L 260 457.5 L 260 471.5 L 266.8 471.5 L 266.8 485.5 L 260 485.5 L 260 499.5 L 266.8 499.5 L 266.8 513.5 L 260 513.5 L 260 527.5 L 266.8 527.5 L 266.8 541.5 L 260 541.5 L 260 555.5 L 266.8 555.5 L 266.8 569.5 L 266.8 575 L 284 575 L 284 568.2 L 298 568.2 L 298 575 L 312 575 L 312 568.2 L 326 568.2 L 326 575 L 340 575 L 340 568.2 L 354 568.2 L 354 575 L 368 575 L 368 568.2 L 382 568.2 L 382 575 L 396 575 L 396 568.2 L 410 568.2 L 410 575 L 424 575 L 424 568.2 L 438 568.2 L 438 575 L 452 575 L 452 568.2 L 466 568.2 L 466 575 L 480 575 L 480 568.2 L 494 568.2 L 494 575 L 508 575 L 508 568.2 L 522 568.2 L 522 575 L 536 575 L 539.2 575 L 539.2 555.5 L 546 555.5 L 546 541.5 L 539.2 541.5 L 539.2 527.5 L 546 527.5 L 546 513.5 L 539.2 513.5 L 539.2 499.5 L 546 499.5 L 546 485.5 L 539.2 485.5 L 539.2 471.5 L 546 471.5 L 546 457.5 L 539.2 457.5 L 539.2 443.5 L 539.2 438 L 522 438 L 522 444.8 L 508 444.8 L 508 438 L 494 438 L 494 444.8 L 480 444.8 L 480 438 L 466 438 L 466 444.8 L 452 444.8 L 452 438 L 438 438 L 438 444.8 L 424 444.8 L 424 438 L 410 438 L 410 444.8 L 396 444.8 L 396 438 L 382 438 L 382 444.8 L 368 444.8 L 368 438 L 354 438 L 354 444.8 L 340 444.8 L 340 438 L 326 438 L 326 444.8 L 312 444.8 L 312 438 L 298 438 L 298 444.8 L 284 444.8 L 284 438 L 270 438 L 266.8 438 Z"
       id="left_outsideCutPath"
       stroke="#FF0000"
       stroke-width="0.1"
       style="stroke:#FF0000;stroke-width:0.1"
       vector-effect="non-scaling-stroke" />
    <path
       d="M 412.747 502.185 L 412.747 503.911 L 409.014 503.911 L 409.014 516.848 L 406.793 516.848 L 406.793 503.911 L 404.171 503.911 L 404.171 502.907 L 406.793 502.105 L 406.793 501.289 A 9.001 9.001 0 0 1 407.003 499.249 Q 407.653 496.467 410.312 495.985 A 6.751 6.751 0 0 1 411.516 495.884 A 7.152 7.152 0 0 1 412.528 495.961 Q 413.02 496.031 413.568 496.167 A 14.377 14.377 0 0 1 414.245 496.352 L 413.67 498.131 A 10.785 10.785 0 0 0 412.831 497.895 Q 412.407 497.795 412.034 497.751 A 4.776 4.776 0 0 0 411.476 497.716 A 2.995 2.995 0 0 0 410.754 497.798 A 1.923 1.923 0 0 0 409.616 498.553 A 2.57 2.57 0 0 0 409.276 499.238 Q 409.014 500.016 409.014 501.235 L 409.014 502.185 L 412.747 502.185 Z M 402.351 508.513 L 402.351 509.918 L 392.25 509.918 Q 392.296 511.682 392.888 512.865 A 4.17 4.17 0 0 0 393.554 513.838 A 4.036 4.036 0 0 0 395.673 515.032 A 6.115 6.115 0 0 0 397.04 515.176 A 11.73 11.73 0 0 0 401.433 514.306 A 13.441 13.441 0 0 0 401.722 514.186 L 401.722 516.166 A 13.333 13.333 0 0 1 400.507 516.625 A 10.196 10.196 0 0 1 399.495 516.895 A 9.323 9.323 0 0 1 398.57 517.038 Q 398.114 517.087 397.599 517.105 A 18.094 18.094 0 0 1 396.959 517.116 A 8.63 8.63 0 0 1 394.8 516.86 A 6.111 6.111 0 0 1 391.829 515.136 A 6.536 6.536 0 0 1 390.265 512.265 Q 389.949 511.08 389.949 509.637 A 11.662 11.662 0 0 1 390.165 507.324 Q 390.449 505.919 391.109 504.826 A 6.577 6.577 0 0 1 391.695 504.005 A 5.691 5.691 0 0 1 395.843 501.936 A 7.851 7.851 0 0 1 396.384 501.917 A 6.766 6.766 0 0 1 398.289 502.172 A 5.148 5.148 0 0 1 400.746 503.73 A 6.21 6.21 0 0 1 402.153 506.568 A 9.039 9.039 0 0 1 402.351 508.513 Z M 422.165 515.015 L 422.165 516.715 Q 421.839 516.872 421.234 516.98 A 8.306 8.306 0 0 1 421.102 517.002 A 9.626 9.626 0 0 1 420.474 517.084 Q 420.178 517.112 419.913 517.115 A 5.692 5.692 0 0 1 419.837 517.116 Q 415.583 517.116 415.583 512.634 L 415.583 503.911 L 413.482 503.911 L 413.482 502.841 L 415.583 501.917 L 416.519 498.787 L 417.804 498.787 L 417.804 502.185 L 422.058 502.185 L 422.058 503.911 L 417.804 503.911 L 417.804 512.54 Q 417.804 513.865 418.433 514.574 A 2.063 2.063 0 0 0 419.701 515.249 A 2.968 2.968 0 0 0 420.158 515.283 A 7.294 7.294 0 0 0 421.227 515.207 A 6.724 6.724 0 0 0 421.296 515.196 A 12.014 12.014 0 0 0 421.616 515.141 Q 421.923 515.084 422.135 515.024 A 3.334 3.334 0 0 0 422.165 515.015 Z M 386.056 496.031 L 386.056 516.848 L 383.835 516.848 L 383.835 496.031 L 386.056 496.031 Z M 392.304 508.112 L 399.97 508.112 Q 399.97 506.011 399.033 504.894 A 3.043 3.043 0 0 0 397.201 503.851 A 4.564 4.564 0 0 0 396.357 503.777 A 4.378 4.378 0 0 0 395.093 503.951 A 3.382 3.382 0 0 0 393.541 504.928 A 4.387 4.387 0 0 0 392.669 506.399 Q 392.391 507.159 392.304 508.112 Z"
       id="left_labelLayer"
       stroke="#777777"
       fill="#777777"
       style="stroke:#777777;fill:#777777"
       vector-effect="non-scaling-stroke" />
    <path
       d="M 555.8 295.8 L 555.8 313 L 549 313 L 549 327 L 555.8 327 L 555.8 341 L 549 341 L 549 355 L 555.8 355 L 555.8 369 L 549 369 L 549 383 L 555.8 383 L 555.8 397 L 549 397 L 549 411 L 555.8 411 L 555.8 425 L 549 425 L 549 439 L 555.8 439 L 555.8 453 L 549 453 L 549 467 L 555.8 467 L 555.8 481 L 549 481 L 549 495 L 555.8 495 L 555.8 509 L 549 509 L 549 523 L 555.8 523 L 555.8 537 L 549 537 L 549 551 L 555.8 551 L 555.8 565 L 555.8 568.2 L 572.5 568.2 L 572.5 575 L 586.5 575 L 586.5 568.2 L 600.5 568.2 L 600.5 575 L 614.5 575 L 614.5 568.2 L 628.5 568.2 L 628.5 575 L 642.5 575 L 642.5 568.2 L 656.5 568.2 L 656.5 575 L 670.5 575 L 670.5 568.2 L 684.5 568.2 L 684.5 575 L 698.5 575 L 698.5 568.2 L 712.5 568.2 L 712.5 575 L 726.5 575 L 726.5 568.2 L 740.5 568.2 L 740.5 575 L 754.5 575 L 754.5 568.2 L 768.5 568.2 L 768.5 575 L 782.5 575 L 782.5 568.2 L 796.5 568.2 L 799.2 568.2 L 799.2 551 L 806 551 L 806 537 L 799.2 537 L 799.2 523 L 806 523 L 806 509 L 799.2 509 L 799.2 495 L 806 495 L 806 481 L 799.2 481 L 799.2 467 L 806 467 L 806 453 L 799.2 453 L 799.2 439 L 806 439 L 806 425 L 799.2 425 L 799.2 411 L 806 411 L 806 397 L 799.2 397 L 799.2 383 L 806 383 L 806 369 L 799.2 369 L 799.2 355 L 806 355 L 806 341 L 799.2 341 L 799.2 327 L 806 327 L 806 313 L 799.2 313 L 799.2 299 L 799.2 295.8 L 782.5 295.8 L 782.5 289 L 768.5 289 L 768.5 295.8 L 754.5 295.8 L 754.5 289 L 740.5 289 L 740.5 295.8 L 726.5 295.8 L 726.5 289 L 712.5 289 L 712.5 295.8 L 698.5 295.8 L 698.5 289 L 684.5 289 L 684.5 295.8 L 670.5 295.8 L 670.5 289 L 656.5 289 L 656.5 295.8 L 642.5 295.8 L 642.5 289 L 628.5 289 L 628.5 295.8 L 614.5 295.8 L 614.5 289 L 600.5 289 L 600.5 295.8 L 586.5 295.8 L 586.5 289 L 572.5 289 L 572.5 295.8 L 558.5 295.8 L 555.8 295.8 Z"
       id="top_outsideCutPath"
       stroke="#FF0000"
       stroke-width="0.1"
       style="stroke:#FF0000;stroke-width:0.1"
       vector-effect="non-scaling-stroke" />
    <path
       d="M 695.972 439.228 L 695.67 439.228 A 39.428 39.428 0 0 1 695.929 442.142 A 33.039 33.039 0 0 1 695.972 443.796 L 695.972 455.115 L 691.805 455.115 L 691.805 415.26 L 695.194 415.26 L 695.771 419.025 L 695.972 419.025 A 11.214 11.214 0 0 1 697.593 417.183 A 8.672 8.672 0 0 1 699.711 415.762 A 10.434 10.434 0 0 1 702.702 414.888 A 13.504 13.504 0 0 1 704.605 414.758 A 12.771 12.771 0 0 1 708.213 415.24 A 9.439 9.439 0 0 1 713.051 418.497 A 12.51 12.51 0 0 1 715.185 422.665 Q 716.025 425.402 716.025 428.988 A 24.427 24.427 0 0 1 715.701 433.098 Q 715.035 436.992 713 439.517 A 9.863 9.863 0 0 1 705.991 443.203 A 14.13 14.13 0 0 1 704.605 443.269 A 12.637 12.637 0 0 1 701.43 442.882 A 10.995 10.995 0 0 1 699.699 442.277 Q 697.478 441.286 695.972 439.228 Z M 655.263 439.329 L 655.263 442.516 Q 654.586 442.842 653.268 443.056 A 18.057 18.057 0 0 1 652.091 443.209 Q 651.536 443.261 651.037 443.268 A 10.679 10.679 0 0 1 650.896 443.269 A 10.882 10.882 0 0 1 647.69 442.837 Q 642.915 441.364 642.915 434.861 L 642.915 418.497 L 638.975 418.497 L 638.975 416.49 L 642.915 414.758 L 644.672 408.885 L 647.081 408.885 L 647.081 415.26 L 655.062 415.26 L 655.062 418.497 L 647.081 418.497 L 647.081 434.685 A 8.389 8.389 0 0 0 647.202 436.159 Q 647.347 436.967 647.664 437.607 A 4.041 4.041 0 0 0 648.261 438.5 Q 649.441 439.83 651.499 439.83 Q 652.603 439.83 653.632 439.667 A 22.537 22.537 0 0 0 654.233 439.564 Q 654.808 439.457 655.207 439.345 A 6.251 6.251 0 0 0 655.263 439.329 Z M 684.12 433.175 A 21.52 21.52 0 0 0 684.502 428.988 A 24.452 24.452 0 0 0 684.493 428.327 Q 684.329 422.242 681.101 418.598 A 10.906 10.906 0 0 0 676.038 415.332 A 14 14 0 0 0 671.928 414.758 A 16.181 16.181 0 0 0 669.022 415.007 A 11.02 11.02 0 0 0 662.592 418.51 Q 660.358 421.002 659.608 424.805 A 21.632 21.632 0 0 0 659.229 428.988 A 20.842 20.842 0 0 0 659.49 432.364 A 15.412 15.412 0 0 0 660.785 436.568 A 13.693 13.693 0 0 0 661.088 437.162 A 11.279 11.279 0 0 0 665.202 441.537 A 11.601 11.601 0 0 0 667.865 442.721 A 13.379 13.379 0 0 0 671.752 443.269 A 16.178 16.178 0 0 0 674.577 443.033 A 11.107 11.107 0 0 0 681.114 439.492 A 11.622 11.622 0 0 0 682.498 437.59 Q 683.627 435.659 684.12 433.175 Z M 663.545 428.988 A 21.098 21.098 0 0 0 663.746 432.002 Q 663.968 433.532 664.433 434.772 A 8.74 8.74 0 0 0 665.654 437.02 A 6.828 6.828 0 0 0 670.101 439.639 A 10.347 10.347 0 0 0 671.853 439.78 A 9.677 9.677 0 0 0 674.406 439.463 A 6.735 6.735 0 0 0 678.064 437.032 Q 680.185 434.284 680.185 428.988 A 20.788 20.788 0 0 0 679.988 426.026 Q 679.539 422.913 678.064 421.02 Q 675.944 418.297 671.803 418.297 A 9.915 9.915 0 0 0 669.334 418.586 A 6.636 6.636 0 0 0 665.629 420.982 Q 664.129 422.915 663.709 426.214 A 22.015 22.015 0 0 0 663.545 428.988 Z M 695.972 428.06 L 695.972 428.988 A 27.547 27.547 0 0 0 696.108 431.835 Q 696.485 435.449 697.904 437.283 Q 699.637 439.522 703.245 439.754 A 13.396 13.396 0 0 0 704.103 439.78 Q 707.667 439.78 709.688 436.894 A 10.073 10.073 0 0 0 711.069 433.951 Q 711.468 432.6 711.618 430.98 A 22.196 22.196 0 0 0 711.708 428.938 A 21.024 21.024 0 0 0 711.511 425.957 Q 711.294 424.445 710.838 423.217 A 8.832 8.832 0 0 0 709.688 421.045 A 6.481 6.481 0 0 0 704.947 418.345 A 8.964 8.964 0 0 0 704.003 418.297 A 12.004 12.004 0 0 0 701.76 418.492 Q 700.511 418.73 699.552 419.258 A 5.505 5.505 0 0 0 697.904 420.631 Q 696.142 422.816 695.986 427.421 A 26.516 26.516 0 0 0 695.972 428.06 Z"
       id="top_labelLayer"
       stroke="#777777"
       fill="#777777"
       style="stroke:#777777;fill:#777777"
       vector-effect="non-scaling-stroke" />
    <path
       d="M 0 298 L 0 317.5 L 6.8 317.5 L 6.8 331.5 L 0 331.5 L 0 345.5 L 6.8 345.5 L 6.8 359.5 L 0 359.5 L 0 373.5 L 6.8 373.5 L 6.8 387.5 L 0 387.5 L 0 401.5 L 6.8 401.5 L 6.8 415.5 L 0 415.5 L 0 429.5 L 0 435 L 23.5 435 L 23.5 428.2 L 37.5 428.2 L 37.5 435 L 51.5 435 L 51.5 428.2 L 65.5 428.2 L 65.5 435 L 79.5 435 L 79.5 428.2 L 93.5 428.2 L 93.5 435 L 107.5 435 L 107.5 428.2 L 121.5 428.2 L 121.5 435 L 135.5 435 L 135.5 428.2 L 149.5 428.2 L 149.5 435 L 163.5 435 L 163.5 428.2 L 177.5 428.2 L 177.5 435 L 191.5 435 L 191.5 428.2 L 205.5 428.2 L 205.5 435 L 219.5 435 L 219.5 428.2 L 233.5 428.2 L 233.5 435 L 247.5 435 L 257 435 L 257 415.5 L 250.2 415.5 L 250.2 401.5 L 257 401.5 L 257 387.5 L 250.2 387.5 L 250.2 373.5 L 257 373.5 L 257 359.5 L 250.2 359.5 L 250.2 345.5 L 257 345.5 L 257 331.5 L 250.2 331.5 L 250.2 317.5 L 257 317.5 L 257 303.5 L 257 298 L 233.5 298 L 233.5 304.8 L 219.5 304.8 L 219.5 298 L 205.5 298 L 205.5 304.8 L 191.5 304.8 L 191.5 298 L 177.5 298 L 177.5 304.8 L 163.5 304.8 L 163.5 298 L 149.5 298 L 149.5 304.8 L 135.5 304.8 L 135.5 298 L 121.5 298 L 121.5 304.8 L 107.5 304.8 L 107.5 298 L 93.5 298 L 93.5 304.8 L 79.5 304.8 L 79.5 298 L 65.5 298 L 65.5 304.8 L 51.5 304.8 L 51.5 298 L 37.5 298 L 37.5 304.8 L 23.5 304.8 L 23.5 298 L 9.5 298 L 0 298 Z"
       id="back_outsideCutPath"
       stroke="#FF0000"
       stroke-width="0.1"
       style="stroke:#FF0000;stroke-width:0.1"
       vector-effect="non-scaling-stroke" />
    <path
       d="M 147.257 369.269 L 147.364 369.269 Q 147.94 368.453 149.117 367.129 L 153.853 362.112 L 156.489 362.112 L 150.548 368.36 L 156.903 376.775 L 154.214 376.775 L 149.037 369.845 L 147.364 371.289 L 147.364 376.775 L 145.17 376.775 L 145.17 355.957 L 147.364 355.957 L 147.364 366.995 A 14.8 14.8 0 0 1 147.358 367.413 Q 147.338 368.115 147.257 369.269 Z M 102.317 374.888 L 102.157 374.888 L 101.689 376.775 L 100.097 376.775 L 100.097 355.957 L 102.317 355.957 L 102.317 361.014 A 46.304 46.304 0 0 1 102.292 362.579 Q 102.267 363.319 102.217 363.977 A 27.708 27.708 0 0 1 102.21 364.065 L 102.317 364.065 A 5.049 5.049 0 0 1 106.003 361.924 A 7.585 7.585 0 0 1 106.92 361.871 A 6.788 6.788 0 0 1 108.83 362.126 A 5.081 5.081 0 0 1 111.408 363.844 A 6.544 6.544 0 0 1 112.556 366.054 Q 112.838 366.965 112.944 368.056 A 14.255 14.255 0 0 1 113.007 369.43 Q 113.007 373.042 111.395 375.042 A 5.258 5.258 0 0 1 107.658 377.007 A 7.533 7.533 0 0 1 106.92 377.042 A 6.736 6.736 0 0 1 105.227 376.836 A 5.861 5.861 0 0 1 104.304 376.514 A 4.919 4.919 0 0 1 102.317 374.888 Z M 127.55 376.775 L 125.904 376.775 L 125.463 374.688 L 125.356 374.688 A 9.207 9.207 0 0 1 124.611 375.522 Q 123.888 376.232 123.169 376.554 Q 122.078 377.042 120.446 377.042 A 6.816 6.816 0 0 1 119.059 376.91 Q 118.211 376.734 117.56 376.323 A 3.824 3.824 0 0 1 117.028 375.919 A 3.65 3.65 0 0 1 115.926 373.993 A 5.588 5.588 0 0 1 115.79 372.721 Q 115.79 368.279 122.894 368.065 L 125.383 367.985 L 125.383 367.075 A 6.379 6.379 0 0 0 125.321 366.153 Q 125.252 365.681 125.105 365.303 A 2.479 2.479 0 0 0 124.64 364.526 Q 124.048 363.87 122.889 363.737 A 5.487 5.487 0 0 0 122.265 363.704 A 7.231 7.231 0 0 0 120.601 363.911 Q 119.838 364.092 119.007 364.43 A 14.874 14.874 0 0 0 118.118 364.827 L 117.436 363.128 A 10.24 10.24 0 0 1 119.412 362.316 A 11.656 11.656 0 0 1 119.81 362.205 Q 121.101 361.871 122.399 361.871 A 9.38 9.38 0 0 1 123.828 361.972 Q 125.394 362.214 126.286 363.035 Q 127.55 364.199 127.55 366.767 L 127.55 376.775 Z M 141.906 362.607 L 141.223 364.493 A 9.88 9.88 0 0 0 140.152 364.137 A 11.8 11.8 0 0 0 139.618 364.005 Q 138.874 363.839 138.277 363.815 A 4.923 4.923 0 0 0 138.079 363.811 A 4.926 4.926 0 0 0 136.079 364.187 Q 133.982 365.111 133.667 368.307 A 12.272 12.272 0 0 0 133.611 369.51 A 10.756 10.756 0 0 0 133.717 371.076 Q 133.951 372.664 134.701 373.658 A 3.527 3.527 0 0 0 136.986 375.023 A 5.373 5.373 0 0 0 137.932 375.102 A 9.297 9.297 0 0 0 140.497 374.729 A 11.479 11.479 0 0 0 141.692 374.313 L 141.692 376.28 A 6.317 6.317 0 0 1 140.146 376.827 Q 139.432 376.985 138.602 377.027 A 12.179 12.179 0 0 1 137.986 377.042 A 8.3 8.3 0 0 1 135.966 376.811 A 5.628 5.628 0 0 1 133.056 375.082 A 6.424 6.424 0 0 1 131.719 372.629 Q 131.31 371.274 131.31 369.537 A 12.254 12.254 0 0 1 131.499 367.309 Q 131.729 366.066 132.239 365.086 A 6.123 6.123 0 0 1 133.082 363.851 A 5.751 5.751 0 0 1 136.231 362.04 A 8.718 8.718 0 0 1 138.133 361.844 Q 139.19 361.844 140.247 362.071 Q 141.292 362.296 141.892 362.6 A 3.292 3.292 0 0 1 141.906 362.607 Z M 106.599 363.73 A 6.241 6.241 0 0 0 105.39 363.839 Q 104.702 363.976 104.179 364.282 A 2.954 2.954 0 0 0 103.321 365.035 Q 102.439 366.181 102.332 368.706 A 17.111 17.111 0 0 0 102.317 369.43 A 14.684 14.684 0 0 0 102.39 370.948 Q 102.591 372.874 103.348 373.852 Q 104.271 375.045 106.195 375.168 A 7.141 7.141 0 0 0 106.652 375.183 A 4.427 4.427 0 0 0 107.91 375.014 A 3.194 3.194 0 0 0 109.703 373.691 A 5.098 5.098 0 0 0 110.333 372.327 Q 110.531 371.679 110.624 370.894 A 12.726 12.726 0 0 0 110.706 369.403 Q 110.706 366.54 109.703 365.135 A 3.239 3.239 0 0 0 107.641 363.83 A 5.136 5.136 0 0 0 106.599 363.73 Z M 125.329 370.888 L 125.329 369.564 L 123.108 369.657 Q 120.896 369.735 119.715 370.257 A 3.411 3.411 0 0 0 119.289 370.48 A 2.37 2.37 0 0 0 118.159 372.199 A 3.508 3.508 0 0 0 118.118 372.748 Q 118.118 373.952 118.847 374.581 Q 119.477 375.124 120.541 375.198 A 4.995 4.995 0 0 0 120.887 375.21 Q 122.961 375.21 124.145 374.072 Q 125.323 372.941 125.329 370.911 A 7.077 7.077 0 0 0 125.329 370.888 Z"
       id="back_labelLayer"
       stroke="#777777"
       fill="#777777"
       style="stroke:#777777;fill:#777777"
       vector-effect="non-scaling-stroke" />
    <path
       d="M 266.8 298 L 266.8 317.5 L 260 317.5 L 260 331.5 L 266.8 331.5 L 266.8 345.5 L 260 345.5 L 260 359.5 L 266.8 359.5 L 266.8 373.5 L 260 373.5 L 260 387.5 L 266.8 387.5 L 266.8 401.5 L 260 401.5 L 260 415.5 L 266.8 415.5 L 266.8 429.5 L 266.8 435 L 284 435 L 284 428.2 L 298 428.2 L 298 435 L 312 435 L 312 428.2 L 326 428.2 L 326 435 L 340 435 L 340 428.2 L 354 428.2 L 354 435 L 368 435 L 368 428.2 L 382 428.2 L 382 435 L 396 435 L 396 428.2 L 410 428.2 L 410 435 L 424 435 L 424 428.2 L 438 428.2 L 438 435 L 452 435 L 452 428.2 L 466 428.2 L 466 435 L 480 435 L 480 428.2 L 494 428.2 L 494 435 L 508 435 L 508 428.2 L 522 428.2 L 522 435 L 536 435 L 539.2 435 L 539.2 415.5 L 546 415.5 L 546 401.5 L 539.2 401.5 L 539.2 387.5 L 546 387.5 L 546 373.5 L 539.2 373.5 L 539.2 359.5 L 546 359.5 L 546 345.5 L 539.2 345.5 L 539.2 331.5 L 546 331.5 L 546 317.5 L 539.2 317.5 L 539.2 303.5 L 539.2 298 L 522 298 L 522 304.8 L 508 304.8 L 508 298 L 494 298 L 494 304.8 L 480 304.8 L 480 298 L 466 298 L 466 304.8 L 452 304.8 L 452 298 L 438 298 L 438 304.8 L 424 304.8 L 424 298 L 410 298 L 410 304.8 L 396 304.8 L 396 298 L 382 298 L 382 304.8 L 368 304.8 L 368 298 L 354 298 L 354 304.8 L 340 304.8 L 340 298 L 326 298 L 326 304.8 L 312 304.8 L 312 298 L 298 298 L 298 304.8 L 284 304.8 L 284 298 L 270 298 L 266.8 298 Z"
       id="right_outsideCutPath"
       stroke="#FF0000"
       stroke-width="0.1"
       style="stroke:#FF0000;stroke-width:0.1"
       vector-effect="non-scaling-stroke" />
    <path
       d="M 420.038 373.617 L 417.817 373.617 L 417.817 364.132 Q 417.817 362.989 417.486 362.216 A 2.642 2.642 0 0 0 417.001 361.456 A 2.504 2.504 0 0 0 415.974 360.801 Q 415.571 360.658 415.075 360.605 A 5.888 5.888 0 0 0 414.446 360.573 A 6.721 6.721 0 0 0 413.189 360.682 Q 412.493 360.815 411.956 361.109 A 3.109 3.109 0 0 0 411.067 361.831 A 3.695 3.695 0 0 0 410.44 362.942 Q 410.062 363.96 410.012 365.472 A 14.334 14.334 0 0 0 410.004 365.951 L 410.004 373.617 L 407.783 373.617 L 407.783 352.8 L 410.004 352.8 L 410.004 359.101 A 19.978 19.978 0 0 1 409.99 359.869 Q 409.965 360.508 409.897 360.988 L 410.031 360.988 A 4.437 4.437 0 0 1 411.585 359.492 A 5.421 5.421 0 0 1 411.897 359.322 A 5.701 5.701 0 0 1 413.768 358.767 A 7.208 7.208 0 0 1 414.66 358.713 A 9.011 9.011 0 0 1 416.174 358.832 Q 416.978 358.969 417.616 359.266 A 4.003 4.003 0 0 1 418.693 359.991 Q 420.038 361.269 420.038 364.052 L 420.038 373.617 Z M 399.702 358.954 L 404.773 358.954 L 404.773 360.359 L 402.057 360.68 Q 402.372 361.074 402.631 361.672 A 6.847 6.847 0 0 1 402.726 361.904 Q 403.02 362.66 403.02 363.61 A 5.091 5.091 0 0 1 402.786 365.188 A 4.118 4.118 0 0 1 401.548 367.048 Q 400.077 368.333 397.508 368.333 A 7.138 7.138 0 0 1 396.682 368.287 A 6.027 6.027 0 0 1 396.277 368.226 Q 394.859 368.975 394.859 370.112 A 1.151 1.151 0 0 0 394.917 370.489 Q 395.024 370.798 395.324 370.984 A 1.232 1.232 0 0 0 395.354 371.002 A 1.558 1.558 0 0 0 395.699 371.144 Q 396.197 371.29 397.053 371.29 L 399.649 371.29 A 9.091 9.091 0 0 1 401.029 371.388 Q 402.429 371.603 403.308 372.293 A 3.249 3.249 0 0 1 404.515 374.363 A 4.88 4.88 0 0 1 404.585 375.21 Q 404.585 377.597 402.708 378.872 A 5.282 5.282 0 0 1 402.632 378.922 A 6.66 6.66 0 0 1 400.915 379.701 Q 399.274 380.2 396.933 380.2 A 12.443 12.443 0 0 1 395.264 380.095 Q 393.569 379.865 392.498 379.13 A 3.54 3.54 0 0 1 391.356 377.891 Q 390.939 377.117 390.939 376.106 A 3.396 3.396 0 0 1 391.795 373.791 A 3.878 3.878 0 0 1 393.127 372.821 A 5.497 5.497 0 0 1 394.203 372.467 A 2.305 2.305 0 0 1 393.309 371.743 A 2.737 2.737 0 0 1 393.26 371.678 A 2.059 2.059 0 0 1 392.882 370.565 A 2.55 2.55 0 0 1 392.879 370.433 A 2.54 2.54 0 0 1 393.007 369.615 A 2.251 2.251 0 0 1 393.307 369.029 A 3.179 3.179 0 0 1 393.727 368.555 Q 394.103 368.203 394.658 367.865 A 3.893 3.893 0 0 1 392.967 366.51 A 4.826 4.826 0 0 1 392.805 366.272 A 4.591 4.591 0 0 1 392.101 364.06 A 5.603 5.603 0 0 1 392.09 363.704 Q 392.09 361.296 393.534 359.991 Q 394.979 358.687 397.628 358.687 A 8.513 8.513 0 0 1 398.754 358.758 A 6.484 6.484 0 0 1 399.702 358.954 Z M 431.343 371.785 L 431.343 373.484 Q 431.017 373.641 430.412 373.749 A 8.306 8.306 0 0 1 430.28 373.771 A 9.626 9.626 0 0 1 429.652 373.853 Q 429.356 373.881 429.091 373.885 A 5.692 5.692 0 0 1 429.015 373.885 Q 424.761 373.885 424.761 369.403 L 424.761 360.68 L 422.66 360.68 L 422.66 359.61 L 424.761 358.687 L 425.697 355.556 L 426.982 355.556 L 426.982 358.954 L 431.236 358.954 L 431.236 360.68 L 426.982 360.68 L 426.982 369.309 Q 426.982 370.634 427.61 371.343 A 2.063 2.063 0 0 0 428.879 372.018 A 2.968 2.968 0 0 0 429.336 372.052 A 7.294 7.294 0 0 0 430.405 371.976 A 6.724 6.724 0 0 0 430.474 371.965 A 12.014 12.014 0 0 0 430.794 371.91 Q 431.101 371.853 431.313 371.793 A 3.334 3.334 0 0 0 431.343 371.785 Z M 383.099 358.847 L 382.791 360.908 A 9.788 9.788 0 0 0 382.087 360.778 Q 381.736 360.727 381.424 360.712 A 5.209 5.209 0 0 0 381.186 360.707 A 3.848 3.848 0 0 0 378.343 361.935 A 5.265 5.265 0 0 0 378.142 362.152 Q 376.878 363.597 376.878 365.751 L 376.878 373.617 L 374.657 373.617 L 374.657 358.954 L 376.49 358.954 L 376.744 361.67 L 376.851 361.67 A 7.5 7.5 0 0 1 377.69 360.472 A 5.729 5.729 0 0 1 378.818 359.463 A 4.427 4.427 0 0 1 381.346 358.687 A 10.196 10.196 0 0 1 382.259 358.726 A 7.442 7.442 0 0 1 383.099 358.847 Z M 388.062 358.954 L 388.062 373.617 L 385.842 373.617 L 385.842 358.954 L 388.062 358.954 Z M 398.94 373.283 L 396.277 373.283 A 5.105 5.105 0 0 0 395.357 373.361 Q 394.835 373.457 394.422 373.67 A 2.601 2.601 0 0 0 393.922 374.005 Q 393.08 374.728 393.08 376.079 A 2.231 2.231 0 0 0 393.227 376.907 Q 393.464 377.506 394.083 377.885 A 3.557 3.557 0 0 0 394.958 378.26 Q 395.782 378.499 396.941 378.501 A 11.265 11.265 0 0 0 396.959 378.501 A 14.93 14.93 0 0 0 398.417 378.435 Q 399.879 378.291 400.797 377.834 A 3.689 3.689 0 0 0 401.1 377.665 A 3.24 3.24 0 0 0 401.852 377.036 A 2.428 2.428 0 0 0 402.445 375.397 A 3.005 3.005 0 0 0 402.39 374.8 Q 402.32 374.457 402.162 374.201 A 1.4 1.4 0 0 0 401.709 373.745 Q 401.149 373.393 399.835 373.309 A 14.131 14.131 0 0 0 398.94 373.283 Z M 394.779 365.545 A 2.376 2.376 0 0 0 395.153 365.978 Q 396.023 366.767 397.575 366.767 A 4.838 4.838 0 0 0 398.842 366.616 Q 400.291 366.222 400.682 364.8 A 4.498 4.498 0 0 0 400.826 363.61 A 4.775 4.775 0 0 0 400.663 362.302 Q 400.244 360.836 398.754 360.446 A 4.83 4.83 0 0 0 397.535 360.305 Q 396.335 360.305 395.56 360.801 A 2.556 2.556 0 0 0 395.127 361.148 Q 394.411 361.864 394.303 363.167 A 5.842 5.842 0 0 0 394.284 363.65 Q 394.284 364.811 394.779 365.545 Z M 385.686 354.574 A 2.461 2.461 0 0 0 385.654 354.981 Q 385.654 355.73 386.029 356.098 A 1.246 1.246 0 0 0 386.48 356.385 A 1.411 1.411 0 0 0 386.965 356.466 A 1.296 1.296 0 0 0 387.889 356.098 A 1.084 1.084 0 0 0 388.1 355.817 Q 388.197 355.636 388.24 355.402 A 2.298 2.298 0 0 0 388.277 354.981 Q 388.277 354.231 387.889 353.87 Q 387.501 353.509 386.965 353.509 A 1.695 1.695 0 0 0 386.853 353.513 A 1.284 1.284 0 0 0 386.029 353.864 Q 385.763 354.116 385.686 354.574 Z"
       id="right_labelLayer"
       stroke="#777777"
       fill="#777777"
       style="stroke:#777777;fill:#777777"
       vector-effect="non-scaling-stroke" />
    <path
       d="M 555.8 6.8 L 555.8 24 L 549 24 L 549 38 L 555.8 38 L 555.8 52 L 549 52 L 549 66 L 555.8 66 L 555.8 80 L 549 80 L 549 94 L 555.8 94 L 555.8 108 L 549 108 L 549 122 L 555.8 122 L 555.8 136 L 549 136 L 549 150 L 555.8 150 L 555.8 164 L 549 164 L 549 178 L 555.8 178 L 555.8 192 L 549 192 L 549 206 L 555.8 206 L 555.8 220 L 549 220 L 549 234 L 555.8 234 L 555.8 248 L 549 248 L 549 262 L 555.8 262 L 555.8 276 L 555.8 279.2 L 572.5 279.2 L 572.5 286 L 586.5 286 L 586.5 279.2 L 600.5 279.2 L 600.5 286 L 614.5 286 L 614.5 279.2 L 628.5 279.2 L 628.5 286 L 642.5 286 L 642.5 279.2 L 656.5 279.2 L 656.5 286 L 670.5 286 L 670.5 279.2 L 684.5 279.2 L 684.5 286 L 698.5 286 L 698.5 279.2 L 712.5 279.2 L 712.5 286 L 726.5 286 L 726.5 279.2 L 740.5 279.2 L 740.5 286 L 754.5 286 L 754.5 279.2 L 768.5 279.2 L 768.5 286 L 782.5 286 L 782.5 279.2 L 796.5 279.2 L 799.2 279.2 L 799.2 262 L 806 262 L 806 248 L 799.2 248 L 799.2 234 L 806 234 L 806 220 L 799.2 220 L 799.2 206 L 806 206 L 806 192 L 799.2 192 L 799.2 178 L 806 178 L 806 164 L 799.2 164 L 799.2 150 L 806 150 L 806 136 L 799.2 136 L 799.2 122 L 806 122 L 806 108 L 799.2 108 L 799.2 94 L 806 94 L 806 80 L 799.2 80 L 799.2 66 L 806 66 L 806 52 L 799.2 52 L 799.2 38 L 806 38 L 806 24 L 799.2 24 L 799.2 10 L 799.2 6.8 L 782.5 6.8 L 782.5 0 L 768.5 0 L 768.5 6.8 L 754.5 6.8 L 754.5 0 L 740.5 0 L 740.5 6.8 L 726.5 6.8 L 726.5 0 L 712.5 0 L 712.5 6.8 L 698.5 6.8 L 698.5 0 L 684.5 0 L 684.5 6.8 L 670.5 6.8 L 670.5 0 L 656.5 0 L 656.5 6.8 L 642.5 6.8 L 642.5 0 L 628.5 0 L 628.5 6.8 L 614.5 6.8 L 614.5 0 L 600.5 0 L 600.5 6.8 L 586.5 6.8 L 586.5 0 L 572.5 0 L 572.5 6.8 L 558.5 6.8 L 555.8 6.8 Z"
       id="bottom_outsideCutPath"
       stroke="#FF0000"
       stroke-width="0.1"
       style="stroke:#FF0000;stroke-width:0.1"
       vector-effect="non-scaling-stroke" />
    <path
       d="M 762.054 162.274 L 757.888 162.274 L 757.888 144.38 Q 757.888 142.32 757.336 140.906 A 5.035 5.035 0 0 0 756.482 139.448 A 4.384 4.384 0 0 0 754.444 138.13 Q 753.434 137.804 752.115 137.804 A 10.72 10.72 0 0 0 749.933 138.011 Q 747.659 138.485 746.368 140.038 Q 744.519 142.261 744.511 146.872 A 23.076 23.076 0 0 0 744.511 146.915 L 744.511 162.274 L 740.344 162.274 L 740.344 144.38 Q 740.344 142.32 739.793 140.906 A 5.035 5.035 0 0 0 738.939 139.448 A 4.37 4.37 0 0 0 736.929 138.142 Q 735.9 137.804 734.547 137.804 Q 731.815 137.804 730.103 138.947 A 5.461 5.461 0 0 0 728.812 140.151 A 6.987 6.987 0 0 0 727.776 142.118 Q 726.992 144.335 726.992 147.843 L 726.992 162.274 L 722.826 162.274 L 722.826 134.767 L 726.214 134.767 L 726.892 138.532 L 727.093 138.532 Q 728.272 136.524 730.418 135.395 A 9.891 9.891 0 0 1 734.325 134.299 A 11.947 11.947 0 0 1 735.224 134.265 A 13.64 13.64 0 0 1 738.295 134.585 Q 742.193 135.487 743.657 138.934 L 743.858 138.934 Q 745.088 136.775 747.422 135.52 Q 749.756 134.265 752.743 134.265 A 14.482 14.482 0 0 1 755.369 134.488 Q 758.118 134.996 759.732 136.662 A 7.174 7.174 0 0 1 761.273 139.182 Q 761.688 140.292 761.882 141.676 A 19.109 19.109 0 0 1 762.054 144.33 L 762.054 162.274 Z M 597.112 158.736 L 596.811 158.736 L 595.932 162.274 L 592.946 162.274 L 592.946 123.222 L 597.112 123.222 L 597.112 132.709 A 86.862 86.862 0 0 1 597.065 135.644 Q 597.018 137.032 596.924 138.268 A 51.95 51.95 0 0 1 596.911 138.432 L 597.112 138.432 Q 600.023 134.316 605.746 134.316 Q 611.167 134.316 614.166 138.017 Q 617.165 141.719 617.165 148.496 A 24.427 24.427 0 0 1 616.841 152.606 Q 616.176 156.5 614.141 159.024 A 9.863 9.863 0 0 1 607.131 162.71 A 14.13 14.13 0 0 1 605.746 162.776 A 12.637 12.637 0 0 1 602.57 162.389 A 10.995 10.995 0 0 1 600.839 161.785 Q 598.618 160.794 597.112 158.736 Z M 668.138 158.836 L 668.138 162.023 Q 667.461 162.35 666.143 162.563 A 18.057 18.057 0 0 1 664.966 162.716 Q 664.411 162.769 663.913 162.775 A 10.679 10.679 0 0 1 663.771 162.776 A 10.882 10.882 0 0 1 660.565 162.345 Q 655.79 160.871 655.79 154.369 L 655.79 138.005 L 651.85 138.005 L 651.85 135.997 L 655.79 134.265 L 657.547 128.393 L 659.957 128.393 L 659.957 134.767 L 667.938 134.767 L 667.938 138.005 L 659.957 138.005 L 659.957 154.193 A 8.389 8.389 0 0 0 660.078 155.666 Q 660.222 156.475 660.539 157.115 A 4.041 4.041 0 0 0 661.136 158.008 Q 662.316 159.338 664.374 159.338 Q 665.478 159.338 666.507 159.175 A 22.537 22.537 0 0 0 667.109 159.072 Q 667.683 158.964 668.083 158.852 A 6.251 6.251 0 0 0 668.138 158.836 Z M 686.284 158.836 L 686.284 162.023 Q 685.606 162.35 684.289 162.563 A 18.057 18.057 0 0 1 683.111 162.716 Q 682.556 162.769 682.058 162.775 A 10.679 10.679 0 0 1 681.917 162.776 A 10.882 10.882 0 0 1 678.71 162.345 Q 673.936 160.871 673.936 154.369 L 673.936 138.005 L 669.996 138.005 L 669.996 135.997 L 673.936 134.265 L 675.693 128.393 L 678.102 128.393 L 678.102 134.767 L 686.083 134.767 L 686.083 138.005 L 678.102 138.005 L 678.102 154.193 A 8.389 8.389 0 0 0 678.223 155.666 Q 678.368 156.475 678.685 157.115 A 4.041 4.041 0 0 0 679.282 158.008 Q 680.461 159.338 682.519 159.338 Q 683.624 159.338 684.653 159.175 A 22.537 22.537 0 0 0 685.254 159.072 Q 685.829 158.964 686.228 158.852 A 6.251 6.251 0 0 0 686.284 158.836 Z M 647.803 152.682 A 21.52 21.52 0 0 0 648.186 148.496 A 24.452 24.452 0 0 0 648.177 147.834 Q 648.012 141.749 644.785 138.105 A 10.906 10.906 0 0 0 639.722 134.84 A 14 14 0 0 0 635.612 134.265 A 16.181 16.181 0 0 0 632.705 134.515 A 11.02 11.02 0 0 0 626.276 138.017 Q 624.042 140.509 623.292 144.312 A 21.632 21.632 0 0 0 622.912 148.496 A 20.842 20.842 0 0 0 623.174 151.872 A 15.412 15.412 0 0 0 624.469 156.075 A 13.693 13.693 0 0 0 624.772 156.669 A 11.279 11.279 0 0 0 628.886 161.045 A 11.601 11.601 0 0 0 631.549 162.229 A 13.379 13.379 0 0 0 635.436 162.776 A 16.178 16.178 0 0 0 638.261 162.54 A 11.107 11.107 0 0 0 644.798 158.999 A 11.622 11.622 0 0 0 646.181 157.098 Q 647.31 155.167 647.803 152.682 Z M 715.14 152.682 A 21.52 21.52 0 0 0 715.523 148.496 A 24.452 24.452 0 0 0 715.514 147.834 Q 715.349 141.749 712.122 138.105 A 10.906 10.906 0 0 0 707.059 134.84 A 14 14 0 0 0 702.949 134.265 A 16.181 16.181 0 0 0 700.042 134.515 A 11.02 11.02 0 0 0 693.613 138.017 Q 691.379 140.509 690.629 144.312 A 21.632 21.632 0 0 0 690.249 148.496 A 20.842 20.842 0 0 0 690.511 151.872 A 15.412 15.412 0 0 0 691.806 156.075 A 13.693 13.693 0 0 0 692.109 156.669 A 11.279 11.279 0 0 0 696.223 161.045 A 11.601 11.601 0 0 0 698.886 162.229 A 13.379 13.379 0 0 0 702.773 162.776 A 16.178 16.178 0 0 0 705.598 162.54 A 11.107 11.107 0 0 0 712.135 158.999 A 11.622 11.622 0 0 0 713.518 157.098 Q 714.647 155.167 715.14 152.682 Z M 627.229 148.496 A 21.098 21.098 0 0 0 627.43 151.51 Q 627.651 153.04 628.117 154.279 A 8.74 8.74 0 0 0 629.337 156.527 A 6.828 6.828 0 0 0 633.785 159.146 A 10.347 10.347 0 0 0 635.537 159.288 A 9.677 9.677 0 0 0 638.09 158.97 A 6.735 6.735 0 0 0 641.748 156.54 Q 643.869 153.791 643.869 148.496 A 20.788 20.788 0 0 0 643.672 145.533 Q 643.223 142.421 641.748 140.527 Q 639.628 137.804 635.486 137.804 A 9.915 9.915 0 0 0 633.018 138.093 A 6.636 6.636 0 0 0 629.312 140.49 Q 627.813 142.423 627.393 145.721 A 22.015 22.015 0 0 0 627.229 148.496 Z M 694.566 148.496 A 21.098 21.098 0 0 0 694.767 151.51 Q 694.988 153.04 695.454 154.279 A 8.74 8.74 0 0 0 696.674 156.527 A 6.828 6.828 0 0 0 701.122 159.146 A 10.347 10.347 0 0 0 702.874 159.288 A 9.677 9.677 0 0 0 705.427 158.97 A 6.735 6.735 0 0 0 709.085 156.54 Q 711.206 153.791 711.206 148.496 A 20.788 20.788 0 0 0 711.009 145.533 Q 710.56 142.421 709.085 140.527 Q 706.965 137.804 702.823 137.804 A 9.915 9.915 0 0 0 700.355 138.093 A 6.636 6.636 0 0 0 696.649 140.49 Q 695.15 142.423 694.73 145.721 A 22.015 22.015 0 0 0 694.566 148.496 Z M 605.143 137.804 A 11.707 11.707 0 0 0 602.876 138.009 Q 600.333 138.511 598.994 140.251 A 7.132 7.132 0 0 0 597.962 142.218 Q 597.112 144.601 597.112 148.496 A 27.547 27.547 0 0 0 597.248 151.343 Q 597.625 154.957 599.045 156.791 Q 600.777 159.029 604.385 159.261 A 13.396 13.396 0 0 0 605.244 159.288 Q 609.084 159.288 610.966 156.489 A 9.564 9.564 0 0 0 612.149 153.93 Q 612.521 152.714 612.695 151.243 A 23.872 23.872 0 0 0 612.848 148.446 A 24.614 24.614 0 0 0 612.699 145.641 Q 612.346 142.573 611.157 140.721 A 6.911 6.911 0 0 0 610.966 140.439 A 6.076 6.076 0 0 0 607.098 137.991 A 9.636 9.636 0 0 0 605.143 137.804 Z"
       id="bottom_labelLayer"
       stroke="#777777"
       fill="#777777"
       style="stroke:#777777;fill:#777777"
       vector-effect="non-scaling-stroke" />
  </g>
  <circle
     style="opacity:1;fill:#ffffff;fill-opacity:0.13500001;stroke:#000000;stroke-width:0.26458344;stroke-miterlimit:4;stroke-dasharray:none;stroke-dashoffset:0;stroke-opacity:1"
     id="path1700-2"
     cx="71.071022"
     cy="358.23825"
     r="2.0999999" />
  <circle
     style="opacity:1;fill:#ffffff;fill-opacity:0.13500001;stroke:#000000;stroke-width:0.26458344;stroke-miterlimit:4;stroke-dasharray:none;stroke-dashoffset:0;stroke-opacity:1"
     id="path1700-1-0"
     cx="46.080997"
     cy="358.23825"
     r="2.0999999" />
  <rect
     style="opacity:1;fill:#ffffff;fill-opacity:0.13500001;stroke:#000000;stroke-width:0.26458368;stroke-miterlimit:4;stroke-dasharray:none;stroke-dashoffset:0;stroke-opacity:1"
     id="rect6098"
     width="18.065416"
     height="9.6354151"
     x="49.542004"
     y="353.73483" />
  <text
     xml:space="preserve"
     style="font-style:normal;font-weight:normal;font-size:10.58333778px;line-height:125%;font-family:Sans;letter-spacing:0px;word-spacing:0px;fill:#000000;fill-opacity:1;stroke:none;stroke-width:0.26458344px;stroke-linecap:butt;stroke-linejoin:miter;stroke-opacity:1"
     x="45.801983"
     y="348.86279"
     id="text6102"><tspan
       sodipodi:role="line"
       id="tspan6100"
       x="45.801983"
       y="348.86279"
       style="stroke-width:0.26458344px">Door</tspan></text>
  <rect
     style="opacity:1;fill:#ffffff;fill-opacity:0.13500001;stroke:#000000;stroke-width:0.26458344;stroke-miterlimit:4;stroke-dasharray:none;stroke-dashoffset:0;stroke-opacity:1"
     id="rect874"
     width="85.34491"
     height="38.817192"
     x="0"
     y="396.1828" />
  <text
     xml:space="preserve"
     style="font-style:normal;font-weight:normal;font-size:11.2004118px;line-height:125%;font-family:Sans;letter-spacing:0px;word-spacing:0px;fill:#000000;fill-opacity:1;stroke:none;stroke-width:0.26458344px;stroke-linecap:butt;stroke-linejoin:miter;stroke-opacity:1"
     x="17.086168"
     y="443.51529"
     id="text878"
     transform="scale(1.0583062,0.94490612)"><tspan
       sodipodi:role="line"
       id="tspan876"
       x="17.086168"
       y="443.51529"
       style="stroke-width:0.26458344px">rpi</tspan></text>
  <rect
     style="opacity:1;fill:#ffffff;fill-opacity:0.13500001;stroke:#000000;stroke-width:0.26458344;stroke-miterlimit:4;stroke-dasharray:none;stroke-dashoffset:0;stroke-opacity:1"
     id="rect884-7"
     width="177.8"
     height="7.5668073"
     x="348.4097"
     y="457.98584" />
  <rect
     style="opacity:1;fill:#ffffff;fill-opacity:0.13500001;stroke:#000000;stroke-width:0.26458344;stroke-miterlimit:4;stroke-dasharray:none;stroke-dashoffset:0;stroke-opacity:1"
     id="rect884-3-0"
     width="177.8"
     height="7.5668073"
     x="348.4097"
     y="470.68585" />
  <rect
     style="opacity:1;fill:#ffffff;fill-opacity:0.13500001;stroke:#000000;stroke-width:0.26458344;stroke-miterlimit:4;stroke-dasharray:none;stroke-dashoffset:0;stroke-opacity:1"
     id="rect884-6-9"
     width="177.8"
     height="7.5668073"
     x="348.4097"
     y="483.38583" />
  <rect
     style="opacity:1;fill:#ffffff;fill-opacity:0.13500001;stroke:#000000;stroke-width:0.26458344;stroke-miterlimit:4;stroke-dasharray:none;stroke-dashoffset:0;stroke-opacity:1"
     id="rect884-3-7-3"
     width="177.8"
     height="7.5668073"
     x="348.4097"
     y="496.08585" />
  <rect
     style="opacity:1;fill:#ffffff;fill-opacity:0.13500001;stroke:#000000;stroke-width:0.26458344;stroke-miterlimit:4;stroke-dasharray:none;stroke-dashoffset:0;stroke-opacity:1"
     id="rect884-5-60"
     width="177.8"
     height="7.5668073"
     x="348.4097"
     y="508.78586" />
  <rect
     style="opacity:1;fill:#ffffff;fill-opacity:0.13500001;stroke:#000000;stroke-width:0.26458344;stroke-miterlimit:4;stroke-dasharray:none;stroke-dashoffset:0;stroke-opacity:1"
     id="rect884-3-3-6"
     width="177.8"
     height="7.5668073"
     x="348.4097"
     y="521.48584" />
  <rect
     style="opacity:1;fill:#ffffff;fill-opacity:0.13500001;stroke:#000000;stroke-width:0.26458344;stroke-miterlimit:4;stroke-dasharray:none;stroke-dashoffset:0;stroke-opacity:1"
     id="rect884-6-5-2"
     width="177.8"
     height="7.5668073"
     x="348.4097"
     y="534.18585" />
  <rect
     style="opacity:1;fill:#ffffff;fill-opacity:0.13500001;stroke:#000000;stroke-width:0.26458344;stroke-miterlimit:4;stroke-dasharray:none;stroke-dashoffset:0;stroke-opacity:1"
     id="rect884-3-7-6-6"
     width="177.8"
     height="7.5668073"
     x="348.4097"
     y="546.88593" />
  <rect
     style="opacity:1;fill:#ffffff;fill-opacity:0.13500001;stroke:#000000;stroke-width:0.26458344;stroke-miterlimit:4;stroke-dasharray:none;stroke-dashoffset:0;stroke-opacity:1"
     id="rect1694"
     width="27"
     height="51.235424"
     x="287.46439"
     y="483.65613" />
  <circle
     style="opacity:1;fill:#ffffff;fill-opacity:0.13500001;stroke:#000000;stroke-width:0.26458344;stroke-miterlimit:4;stroke-dasharray:none;stroke-dashoffset:0;stroke-opacity:1"
     id="path1700"
     cx="321.89438"
     cy="508.74252"
     r="2" />
  <circle
     style="opacity:1;fill:#ffffff;fill-opacity:0.13500001;stroke:#000000;stroke-width:0.26458344;stroke-miterlimit:4;stroke-dasharray:none;stroke-dashoffset:0;stroke-opacity:1"
     id="path1700-1"
     cx="280.03439"
     cy="508.74252"
     r="2" />
  <path
     inkscape:connector-curvature="0"
     style="font-size:medium;vector-effect:non-scaling-stroke;fill:#777777;fill-rule:evenodd;stroke:#777777;stroke-width:0.25000001mm;stroke-linecap:round"
     id="right_labelLayer-6"
     d="m 420.124,373.645 h -2.225 v -9.504 a 6.2900002,6.2900002 0 0 0 -0.072,-0.98599 q -0.17,-1.072 -0.745,-1.695 a 2.5090001,2.5090001 0 0 0 -1.029,-0.656 q -0.404,-0.143 -0.901,-0.19601 a 5.8990002,5.8990002 0 0 0 -0.631,-0.032 6.7340004,6.7340004 0 0 0 -1.258,0.10901 q -1.375,0.26199 -2.126,1.15099 a 3.7020003,3.7020003 0 0 0 -0.629,1.113 q -0.437,1.178 -0.437,3.015 v 7.681 h -2.225 v -20.85699 h 2.225 v 6.31299 a 20.017001,20.017001 0 0 1 -0.014,0.769 q -0.014,0.36 -0.041,0.67 a 8.7040003,8.7040003 0 0 1 -0.052,0.451 h 0.134 a 4.4460001,4.4460001 0 0 1 1.557,-1.49899 5.4310002,5.4310002 0 0 1 0.313,-0.169 5.7120002,5.7120002 0 0 1 1.875,-0.55701 7.2220003,7.2220003 0 0 1 0.893,-0.053 q 1.772,0 2.961,0.553 a 4.0110003,4.0110003 0 0 1 1.08,0.727 3.8740001,3.8740001 0 0 1 0.956,1.5 q 0.229,0.624 0.324,1.398 a 9.6220005,9.6220005 0 0 1 0.067,1.17 z M 399.75,358.954 h 5.08 v 1.40701 l -2.721,0.322 a 3.6160001,3.6160001 0 0 1 0.313,0.466 q 0.191,0.335 0.357,0.761 a 4.2810001,4.2810001 0 0 1 0.254,1.02199 5.4970003,5.4970003 0 0 1 0.041,0.68701 5.1010002,5.1010002 0 0 1 -0.234,1.58099 4.1260001,4.1260001 0 0 1 -1.24,1.863 q -1.329,1.16001 -3.549,1.275 a 9.6640004,9.6640004 0 0 1 -0.499,0.012 7.1510004,7.1510004 0 0 1 -0.828,-0.046 6.0390003,6.0390003 0 0 1 -0.406,-0.061 3.9600002,3.9600002 0 0 0 -0.638,0.413 q -0.33,0.26601 -0.521,0.571 a 1.6740001,1.6740001 0 0 0 -0.262,0.906 1.153,1.153 0 0 0 0.059,0.378 q 0.112,0.324 0.437,0.513 a 1.561,1.561 0 0 0 0.347,0.14301 q 0.362,0.106 0.914,0.13499 a 8.4650003,8.4650003 0 0 0 0.442,0.011 h 2.6 q 1.592,0 2.691,0.447 a 4.0210002,4.0210002 0 0 1 0.975,0.558 q 1.28,1.005 1.28,2.922 0,2.44 -1.957,3.72 a 6.6730002,6.6730002 0 0 1 -1.72,0.78 q -0.848,0.258 -1.882,0.383 a 17.636001,17.636001 0 0 1 -2.108,0.117 12.467001,12.467001 0 0 1 -1.672,-0.105 q -1.698,-0.23 -2.771,-0.967 -1.461,-1.003 -1.555,-2.78 a 4.6990003,4.6990003 0 0 1 -0.007,-0.25 q 0,-1.34 0.858,-2.319 a 3.8850001,3.8850001 0 0 1 1.334,-0.972 5.5070002,5.5070002 0 0 1 1.079,-0.355 2.3090001,2.3090001 0 0 1 -0.897,-0.725 2.7420001,2.7420001 0 0 1 -0.048,-0.066 2.0630001,2.0630001 0 0 1 -0.379,-1.115 2.5550001,2.5550001 0 0 1 -0.003,-0.131 2.5450001,2.5450001 0 0 1 0.128,-0.82 2.2550001,2.2550001 0 0 1 0.30101,-0.588 q 0.429,-0.603 1.35299,-1.166 a 3.9010003,3.9010003 0 0 1 -1.694,-1.357 4.8350001,4.8350001 0 0 1 -0.16199,-0.238 4.6000001,4.6000001 0 0 1 -0.70601,-2.217 5.6140003,5.6140003 0 0 1 -0.011,-0.357 6.4290004,6.4290004 0 0 1 0.169,-1.52 4.2300001,4.2300001 0 0 1 1.278,-2.199 4.7250001,4.7250001 0 0 1 1.814,-1.001 q 0.721,-0.22 1.587,-0.282 a 9.8270004,9.8270004 0 0 1 0.701,-0.024 8.5290004,8.5290004 0 0 1 1.128,0.071 6.4960003,6.4960003 0 0 1 0.95,0.197 z m 31.701,12.855 v 1.70201 q -0.327,0.15699 -0.933,0.26599 a 8.3200002,8.3200002 0 0 1 -0.133,0.022 q -0.703,0.11401 -1.266,0.11401 -3.4,0 -4.088,-2.856 a 6.9940003,6.9940003 0 0 1 -0.175,-1.63401 v -8.74001 h -2.104 v -1.072 l 2.104,-0.925 0.938,-3.137 h 1.287 v 3.405 h 4.263 v 1.729 h -4.263 v 8.646 a 4.4810003,4.4810003 0 0 0 0.065,0.787 q 0.13701,0.767 0.56501,1.25 a 2.0670001,2.0670001 0 0 0 1.271,0.677 2.974,2.974 0 0 0 0.458,0.034 7.3080002,7.3080002 0 0 0 1.071,-0.077 6.7340004,6.7340004 0 0 0 0.069,-0.01 12.037,12.037 0 0 0 0.321,-0.056 q 0.307,-0.057 0.52,-0.117 a 3.3390001,3.3390001 0 0 0 0.03,-0.008 z m -48.336,-12.962 -0.308,2.06401 q -0.912,-0.20101 -1.609,-0.20101 -1.782,0 -3.049,1.448 a 5.0810001,5.0810001 0 0 0 -1.226,2.853 6.7540002,6.7540002 0 0 0 -0.041,0.75201 v 7.88199 h -2.225 v -14.691 h 1.836 l 0.255,2.72101 h 0.107 a 7.5140002,7.5140002 0 0 1 0.84,-1.20001 5.7400002,5.7400002 0 0 1 1.131,-1.012 4.4360002,4.4360002 0 0 1 2.533,-0.777 10.215,10.215 0 0 1 0.915,0.039 7.4560004,7.4560004 0 0 1 0.841,0.122 z m 4.973,0.107 v 14.691 h -2.225 v -14.691 z m 10.898,14.356 h -2.668 a 5.1150001,5.1150001 0 0 0 -0.922,0.078 q -0.523,0.096 -0.937,0.31 a 2.6060001,2.6060001 0 0 0 -0.5,0.336 2.3450001,2.3450001 0 0 0 -0.77,1.329 3.5600002,3.5600002 0 0 0 -0.074,0.748 2.2350001,2.2350001 0 0 0 0.147,0.829 q 0.238,0.6 0.858,0.981 1,0.614 2.864,0.617 a 11.308,11.308 0 0 0 0.018,0 q 2.503,0 3.845,-0.669 a 3.696,3.696 0 0 0 0.304,-0.169 3.2460001,3.2460001 0 0 0 0.753,-0.63 2.4330001,2.4330001 0 0 0 0.594,-1.642 3.0110001,3.0110001 0 0 0 -0.055,-0.598 q -0.07,-0.344 -0.228,-0.6 a 1.4030001,1.4030001 0 0 0 -0.455,-0.458 2.1110001,2.1110001 0 0 0 -0.5,-0.218 q -0.79399,-0.244 -2.274,-0.244 z m -4.169,-7.753 a 2.3810001,2.3810001 0 0 0 0.375,0.43401 2.8760002,2.8760002 0 0 0 1.158,0.62899 q 0.564,0.16201 1.269,0.16201 a 4.8480001,4.8480001 0 0 0 1.269,-0.151 q 1.452,-0.39501 1.843,-1.82 a 4.5070001,4.5070001 0 0 0 0.145,-1.192 4.7850002,4.7850002 0 0 0 -0.164,-1.311 q -0.419,-1.46901 -1.913,-1.859 a 4.8390003,4.8390003 0 0 0 -1.221,-0.14101 4.6690002,4.6690002 0 0 0 -0.951,0.091 q -0.583,0.121 -1.027,0.405 a 2.5610001,2.5610001 0 0 0 -0.434,0.34801 2.6700001,2.6700001 0 0 0 -0.647,1.08799 q -0.136,0.422 -0.179,0.934 a 5.8540002,5.8540002 0 0 0 -0.019,0.485 q 0,1.163 0.496,1.898 z m -9.11,-10.99199 a 2.4660001,2.4660001 0 0 0 -0.032,0.40799 2.6270001,2.6270001 0 0 0 0.012,0.251 q 0.021,0.22501 0.084,0.408 a 1.149,1.149 0 0 0 0.28,0.46001 1.2480001,1.2480001 0 0 0 0.451,0.288 1.413,1.413 0 0 0 0.487,0.081 1.2980001,1.2980001 0 0 0 0.925,-0.369 1.086,1.086 0 0 0 0.212,-0.281 q 0.097,-0.18201 0.14,-0.41601 a 2.3020001,2.3020001 0 0 0 0.037,-0.422 2.5450001,2.5450001 0 0 0 -0.011,-0.24099 q -0.021,-0.22 -0.082,-0.4 a 1.123,1.123 0 0 0 -0.296,-0.472 q -0.389,-0.362 -0.925,-0.362 -0.563,0 -0.938,0.356 a 1.041,1.041 0 0 0 -0.23,0.326 q -0.078,0.17 -0.114,0.385 z" />
  <rect
     style="opacity:1;fill:#ffffff;fill-opacity:0.13500001;stroke:#000000;stroke-width:0.26458344;stroke-miterlimit:4;stroke-dasharray:none;stroke-dashoffset:0;stroke-opacity:1"
     id="rect884-36"
     width="177.8"
     height="7.5668073"
     x="348.50061"
     y="317.4472" />
  <rect
     style="opacity:1;fill:#ffffff;fill-opacity:0.13500001;stroke:#000000;stroke-width:0.26458344;stroke-miterlimit:4;stroke-dasharray:none;stroke-dashoffset:0;stroke-opacity:1"
     id="rect884-3-75"
     width="177.8"
     height="7.5668073"
     x="348.50061"
     y="330.14719" />
  <rect
     style="opacity:1;fill:#ffffff;fill-opacity:0.13500001;stroke:#000000;stroke-width:0.26458344;stroke-miterlimit:4;stroke-dasharray:none;stroke-dashoffset:0;stroke-opacity:1"
     id="rect884-6-3"
     width="177.8"
     height="7.5668073"
     x="348.50061"
     y="342.8472" />
  <rect
     style="opacity:1;fill:#ffffff;fill-opacity:0.13500001;stroke:#000000;stroke-width:0.26458344;stroke-miterlimit:4;stroke-dasharray:none;stroke-dashoffset:0;stroke-opacity:1"
     id="rect884-3-7-5"
     width="177.8"
     height="7.5668073"
     x="348.50061"
     y="355.54721" />
  <rect
     style="opacity:1;fill:#ffffff;fill-opacity:0.13500001;stroke:#000000;stroke-width:0.26458344;stroke-miterlimit:4;stroke-dasharray:none;stroke-dashoffset:0;stroke-opacity:1"
     id="rect884-5-6"
     width="177.8"
     height="7.5668073"
     x="348.50061"
     y="368.24722" />
  <rect
     style="opacity:1;fill:#ffffff;fill-opacity:0.13500001;stroke:#000000;stroke-width:0.26458344;stroke-miterlimit:4;stroke-dasharray:none;stroke-dashoffset:0;stroke-opacity:1"
     id="rect884-3-3-2"
     width="177.8"
     height="7.5668073"
     x="348.50061"
     y="380.9472" />
  <rect
     style="opacity:1;fill:#ffffff;fill-opacity:0.13500001;stroke:#000000;stroke-width:0.26458344;stroke-miterlimit:4;stroke-dasharray:none;stroke-dashoffset:0;stroke-opacity:1"
     id="rect884-6-5-91"
     width="177.8"
     height="7.5668073"
     x="348.50061"
     y="393.64722" />
  <rect
     style="opacity:1;fill:#ffffff;fill-opacity:0.13500001;stroke:#000000;stroke-width:0.26458344;stroke-miterlimit:4;stroke-dasharray:none;stroke-dashoffset:0;stroke-opacity:1"
     id="rect884-3-7-6-2"
     width="177.8"
     height="7.5668073"
     x="348.50061"
     y="406.34723" />
  <path
     inkscape:connector-curvature="0"
     style="font-size:medium;vector-effect:non-scaling-stroke;fill:#777777;fill-rule:evenodd;stroke:#777777;stroke-width:0.25000001mm;stroke-linecap:round"
     id="top_labelLayer-7"
     d="m 696.029,439.24795 h -0.301 q 0.301,2.412 0.301,4.573 v 11.33 h -4.17 v -39.895 h 3.392 l 0.577,3.768 h 0.201 q 1.608,-2.261 3.744,-3.266 a 10.444,10.444 0 0 1 2.994,-0.875 13.518,13.518 0 0 1 1.905,-0.13 12.783001,12.783001 0 0 1 3.611,0.483 9.4490003,9.4490003 0 0 1 4.843,3.261 12.522001,12.522001 0 0 1 2.13601,4.172 q 0.55199,1.797 0.741,3.96099 a 27.157,27.157 0 0 1 0.1,2.368 q 0,4.78701 -1.508,8.066 a 11.722001,11.722001 0 0 1 -1.52,2.47301 9.8730004,9.8730004 0 0 1 -7.017,3.69 14.145,14.145 0 0 1 -1.386,0.066 12.65,12.65 0 0 1 -3.179,-0.38701 11.007,11.007 0 0 1 -1.733,-0.60499 9.2370002,9.2370002 0 0 1 -3.731,-3.053 z m -40.749,0.10099 v 3.19101 a 4.1020003,4.1020003 0 0 1 -0.487,0.193 q -0.604,0.2 -1.511,0.347 -1.231,0.199 -2.232,0.212 a 10.691,10.691 0 0 1 -0.142,0.001 10.893,10.893 0 0 1 -3.21,-0.43199 q -3.528,-1.08901 -4.451,-4.92201 a 13.109001,13.109001 0 0 1 -0.328,-3.062 V 418.497 h -3.944 v -2.00999 l 3.944,-1.734 1.759,-5.878 h 2.412 v 6.38099 h 7.989 v 3.241 h -7.989 v 16.204 a 8.3980004,8.3980004 0 0 0 0.121,1.475 q 0.144,0.809 0.462,1.45 a 4.0450003,4.0450003 0 0 0 0.597,0.89401 3.8740001,3.8740001 0 0 0 2.382,1.26799 5.5740001,5.5740001 0 0 0 0.859,0.063 13.696,13.696 0 0 0 2.007,-0.143 12.622001,12.622001 0 0 0 0.129,-0.02 22.560001,22.560001 0 0 0 0.602,-0.103 q 0.575,-0.108 0.975,-0.22 a 6.2680003,6.2680003 0 0 0 0.056,-0.016 z m 28.885,-6.16 a 21.542001,21.542001 0 0 0 0.383,-4.191 24.476001,24.476001 0 0 0 -0.009,-0.66199 q -0.062,-2.292 -0.558,-4.239 a 12.986001,12.986001 0 0 0 -2.837,-5.5 q -3.40401,-3.844 -9.18301,-3.844 a 16.198001,16.198001 0 0 0 -2.909,0.25 11.031,11.031 0 0 0 -6.436,3.506 11.522,11.522 0 0 0 -1.415,1.963 q -1.091,1.9 -1.572,4.338 a 21.654001,21.654001 0 0 0 -0.38,4.18799 q 0,4.34701 1.558,7.58701 1.557,3.241 4.421,4.975 a 11.612001,11.612001 0 0 0 2.666,1.185 13.392001,13.392001 0 0 0 3.892,0.548 16.194001,16.194001 0 0 0 2.828,-0.236 11.118,11.118 0 0 0 6.543,-3.545 11.634,11.634 0 0 0 1.385,-1.903 q 1.13,-1.933 1.623,-4.42001 z m -20.595,-4.191 a 21.119001,21.119001 0 0 0 0.201,3.01701 q 0.222,1.53199 0.688,2.772 a 8.7490004,8.7490004 0 0 0 1.222,2.251 6.8350003,6.8350003 0 0 0 4.451,2.621 10.358,10.358 0 0 0 1.754,0.142 9.6870004,9.6870004 0 0 0 2.556,-0.318 6.7410002,6.7410002 0 0 0 3.662,-2.433 8.9530002,8.9530002 0 0 0 1.394,-2.71501 q 0.41,-1.25499 0.589,-2.78699 a 21.968001,21.968001 0 0 0 0.14,-2.55001 20.809001,20.809001 0 0 0 -0.197,-2.965 q -0.218,-1.50899 -0.677,-2.73199 a 8.5870002,8.5870002 0 0 0 -1.249,-2.279 6.8600003,6.8600003 0 0 0 -4.265,-2.545 10.518,10.518 0 0 0 -2.003,-0.181 9.9250003,9.9250003 0 0 0 -2.471,0.289 6.6420003,6.6420003 0 0 0 -3.709,2.399 8.6230002,8.6230002 0 0 0 -1.341,2.59 q -0.395,1.191 -0.581,2.64699 a 22.038001,22.038001 0 0 0 -0.164,2.777 z m 32.459,-0.929 v 0.929 a 27.575002,27.575002 0 0 0 0.137,2.85001 q 0.3,2.876 1.259,4.626 a 6.2900002,6.2900002 0 0 0 0.539,0.827 q 1.734,2.24099 5.346,2.47299 a 13.409001,13.409001 0 0 0 0.859,0.027 7.0270002,7.0270002 0 0 0 2.732,-0.51301 q 1.688,-0.70399 2.858,-2.37599 1.596,-2.28 1.933,-5.92 a 22.218001,22.218001 0 0 0 0.09,-2.044 21.045001,21.045001 0 0 0 -0.198,-2.985 q -0.217,-1.512 -0.673,-2.741 a 8.8410002,8.8410002 0 0 0 -1.152,-2.175 q -2.022,-2.751 -5.69,-2.751 -2.709,0 -4.455,0.962 a 5.5110002,5.5110002 0 0 0 -1.65,1.374 7.1450002,7.1450002 0 0 0 -1.118,2.036 q -0.706,1.921 -0.803,4.76099 a 26.542,26.542 0 0 0 -0.014,0.64 z" />
  <rect
     style="opacity:1;fill:#ffffff;fill-opacity:0.13500001;stroke:#000000;stroke-width:0.26458344;stroke-miterlimit:4;stroke-dasharray:none;stroke-dashoffset:0;stroke-opacity:1"
     id="rect884"
     width="177.8"
     height="7.5668073"
     x="578.9823"
     y="333.1188" />
  <rect
     style="opacity:1;fill:#ffffff;fill-opacity:0.13500001;stroke:#000000;stroke-width:0.26458344;stroke-miterlimit:4;stroke-dasharray:none;stroke-dashoffset:0;stroke-opacity:1"
     id="rect884-3"
     width="177.8"
     height="7.5668073"
     x="578.9823"
     y="345.81879" />
  <rect
     style="opacity:1;fill:#ffffff;fill-opacity:0.13500001;stroke:#000000;stroke-width:0.26458344;stroke-miterlimit:4;stroke-dasharray:none;stroke-dashoffset:0;stroke-opacity:1"
     id="rect884-6"
     width="177.8"
     height="7.5668073"
     x="578.9823"
     y="358.5188" />
  <rect
     style="opacity:1;fill:#ffffff;fill-opacity:0.13500001;stroke:#000000;stroke-width:0.26458344;stroke-miterlimit:4;stroke-dasharray:none;stroke-dashoffset:0;stroke-opacity:1"
     id="rect884-3-7"
     width="177.8"
     height="7.5668073"
     x="578.9823"
     y="371.21878" />
  <rect
     style="opacity:1;fill:#ffffff;fill-opacity:0.13500001;stroke:#000000;stroke-width:0.26458344;stroke-miterlimit:4;stroke-dasharray:none;stroke-dashoffset:0;stroke-opacity:1"
     id="rect884-5"
     width="177.8"
     height="7.5668073"
     x="578.9823"
     y="383.91879" />
  <rect
     style="opacity:1;fill:#ffffff;fill-opacity:0.13500001;stroke:#000000;stroke-width:0.26458344;stroke-miterlimit:4;stroke-dasharray:none;stroke-dashoffset:0;stroke-opacity:1"
     id="rect884-3-3"
     width="177.8"
     height="7.5668073"
     x="578.9823"
     y="396.6188" />
  <rect
     style="opacity:1;fill:#ffffff;fill-opacity:0.13500001;stroke:#000000;stroke-width:0.26458344;stroke-miterlimit:4;stroke-dasharray:none;stroke-dashoffset:0;stroke-opacity:1"
     id="rect884-6-5"
     width="177.8"
     height="7.5668073"
     x="578.9823"
     y="409.31882" />
  <rect
     style="opacity:1;fill:#ffffff;fill-opacity:0.13500001;stroke:#000000;stroke-width:0.26458344;stroke-miterlimit:4;stroke-dasharray:none;stroke-dashoffset:0;stroke-opacity:1"
     id="rect884-3-7-6"
     width="177.8"
     height="7.5668073"
     x="578.9823"
     y="422.01883" />
  <rect
     style="opacity:1;fill:#ffffff;fill-opacity:0.13500001;stroke:#000000;stroke-width:0.26458344;stroke-miterlimit:4;stroke-dasharray:none;stroke-dashoffset:0;stroke-opacity:1"
     id="rect884-2"
     width="177.8"
     height="7.5668073"
     x="578.9823"
     y="445.42896" />
  <rect
     style="opacity:1;fill:#ffffff;fill-opacity:0.13500001;stroke:#000000;stroke-width:0.26458344;stroke-miterlimit:4;stroke-dasharray:none;stroke-dashoffset:0;stroke-opacity:1"
     id="rect884-3-9"
     width="177.8"
     height="7.5668073"
     x="578.9823"
     y="458.12894" />
  <rect
     style="opacity:1;fill:#ffffff;fill-opacity:0.13500001;stroke:#000000;stroke-width:0.26458344;stroke-miterlimit:4;stroke-dasharray:none;stroke-dashoffset:0;stroke-opacity:1"
     id="rect884-6-1"
     width="177.8"
     height="7.5668073"
     x="578.9823"
     y="470.82895" />
  <rect
     style="opacity:1;fill:#ffffff;fill-opacity:0.13500001;stroke:#000000;stroke-width:0.26458344;stroke-miterlimit:4;stroke-dasharray:none;stroke-dashoffset:0;stroke-opacity:1"
     id="rect884-3-7-2"
     width="177.8"
     height="7.5668073"
     x="578.9823"
     y="483.52896" />
  <rect
     style="opacity:1;fill:#ffffff;fill-opacity:0.13500001;stroke:#000000;stroke-width:0.26458344;stroke-miterlimit:4;stroke-dasharray:none;stroke-dashoffset:0;stroke-opacity:1"
     id="rect884-5-7"
     width="177.8"
     height="7.5668073"
     x="578.9823"
     y="496.22894" />
  <rect
     style="opacity:1;fill:#ffffff;fill-opacity:0.13500001;stroke:#000000;stroke-width:0.26458344;stroke-miterlimit:4;stroke-dasharray:none;stroke-dashoffset:0;stroke-opacity:1"
     id="rect884-3-3-0"
     width="177.8"
     height="7.5668073"
     x="578.9823"
     y="508.92896" />
  <rect
     style="opacity:1;fill:#ffffff;fill-opacity:0.13500001;stroke:#000000;stroke-width:0.26458344;stroke-miterlimit:4;stroke-dasharray:none;stroke-dashoffset:0;stroke-opacity:1"
     id="rect884-6-5-9"
     width="177.8"
     height="7.5668073"
     x="578.9823"
     y="521.62891" />
  <rect
     style="opacity:1;fill:#ffffff;fill-opacity:0.13500001;stroke:#000000;stroke-width:0.26458344;stroke-miterlimit:4;stroke-dasharray:none;stroke-dashoffset:0;stroke-opacity:1"
     id="rect884-3-7-6-3"
     width="177.8"
     height="7.5668073"
     x="578.9823"
     y="534.32892" />
  <circle
     style="opacity:1;fill:#ffffff;fill-opacity:0.13500001;stroke:#000000;stroke-width:0.26458344;stroke-miterlimit:4;stroke-dasharray:none;stroke-dashoffset:0;stroke-opacity:1"
     id="path6043"
     cx="616.78442"
     cy="328.61713"
     r="2.5" />
  <circle
     style="opacity:1;fill:#ffffff;fill-opacity:0.13500001;stroke:#000000;stroke-width:0.26458344;stroke-miterlimit:4;stroke-dasharray:none;stroke-dashoffset:0;stroke-opacity:1"
     id="path6043-8"
     cx="721.78436"
     cy="328.61707"
     r="2.5" />
  <circle
     style="opacity:1;fill:#ffffff;fill-opacity:0.13500001;stroke:#000000;stroke-width:0.26458344;stroke-miterlimit:4;stroke-dasharray:none;stroke-dashoffset:0;stroke-opacity:1"
     id="path6043-7"
     cx="616.78442"
     cy="433.61707"
     r="2.5" />
  <circle
     style="opacity:1;fill:#ffffff;fill-opacity:0.13500001;stroke:#000000;stroke-width:0.26458344;stroke-miterlimit:4;stroke-dasharray:none;stroke-dashoffset:0;stroke-opacity:1"
     id="path6043-8-9"
     cx="721.78436"
     cy="433.61707"
     r="2.5" />
</svg>
