<?xml version="1.0" encoding="UTF-8" standalone="no"?>
<svg
   xmlns:dc="http://purl.org/dc/elements/1.1/"
   xmlns:cc="http://creativecommons.org/ns#"
   xmlns:rdf="http://www.w3.org/1999/02/22-rdf-syntax-ns#"
   xmlns:svg="http://www.w3.org/2000/svg"
   xmlns="http://www.w3.org/2000/svg"
   xmlns:sodipodi="http://sodipodi.sourceforge.net/DTD/sodipodi-0.dtd"
   xmlns:inkscape="http://www.inkscape.org/namespaces/inkscape"
   width="806.78mm"
   height="575.52mm"
   viewBox="0 0 806.78 575.52"
   version="1.1"
   preserveAspectRatio="xMidYMid meet"
   id="svg911"
   sodipodi:docname="bodgery-doorbot-box.svg"
   inkscape:version="0.92.3 (2405546, 2018-03-11)">
  <metadata
     id="metadata917">
    <rdf:RDF>
      <cc:Work
         rdf:about="">
        <dc:format>image/svg+xml</dc:format>
        <dc:type
           rdf:resource="http://purl.org/dc/dcmitype/StillImage" />
        <dc:title></dc:title>
      </cc:Work>
    </rdf:RDF>
  </metadata>
  <defs
     id="defs915" />
  <sodipodi:namedview
     pagecolor="#ffffff"
     bordercolor="#666666"
     borderopacity="1"
     objecttolerance="10"
     gridtolerance="10"
     guidetolerance="10"
     inkscape:pageopacity="0"
     inkscape:pageshadow="2"
     inkscape:window-width="1603"
     inkscape:window-height="949"
     id="namedview913"
     showgrid="false"
     inkscape:zoom="0.86796865"
     inkscape:cx="2312.1916"
     inkscape:cy="622.86347"
     inkscape:window-x="290"
     inkscape:window-y="91"
     inkscape:window-maximized="0"
     inkscape:current-layer="svg911" />
  <g
     id="svgGroup"
     stroke-linecap="round"
     fill-rule="evenodd"
     font-size="9pt"
     stroke="#000"
     stroke-width="0.25mm"
     fill="none"
     style="stroke:#000;stroke-width:0.25mm;fill:none">
    <path
       d="M 0 438.26 L 0 450.46 L 5.13 450.46 L 5.13 460.72 L 0 460.72 L 0 470.98 L 5.13 470.98 L 5.13 481.24 L 0 481.24 L 0 491.5 L 5.13 491.5 L 5.13 501.76 L 0 501.76 L 0 512.02 L 5.13 512.02 L 5.13 522.28 L 0 522.28 L 0 532.54 L 5.13 532.54 L 5.13 542.8 L 0 542.8 L 0 553.06 L 5.13 553.06 L 5.13 563.32 L 0 563.32 L 0 575.52 L 20.9 575.52 L 20.9 570.39 L 31.16 570.39 L 31.16 575.52 L 41.42 575.52 L 41.42 570.39 L 51.68 570.39 L 51.68 575.52 L 61.94 575.52 L 61.94 570.39 L 72.2 570.39 L 72.2 575.52 L 82.46 575.52 L 82.46 570.39 L 92.72 570.39 L 92.72 575.52 L 102.98 575.52 L 102.98 570.39 L 113.24 570.39 L 113.24 575.52 L 123.5 575.52 L 123.5 570.39 L 133.76 570.39 L 133.76 575.52 L 144.02 575.52 L 144.02 570.39 L 154.28 570.39 L 154.28 575.52 L 164.54 575.52 L 164.54 570.39 L 174.8 570.39 L 174.8 575.52 L 185.06 575.52 L 185.06 570.39 L 195.32 570.39 L 195.32 575.52 L 205.58 575.52 L 205.58 570.39 L 215.84 570.39 L 215.84 575.52 L 226.1 575.52 L 226.1 570.39 L 236.36 570.39 L 236.36 575.52 L 246.62 575.52 L 257.26 575.52 L 257.26 563.32 L 252.13 563.32 L 252.13 553.06 L 257.26 553.06 L 257.26 542.8 L 252.13 542.8 L 252.13 532.54 L 257.26 532.54 L 257.26 522.28 L 252.13 522.28 L 252.13 512.02 L 257.26 512.02 L 257.26 501.76 L 252.13 501.76 L 252.13 491.5 L 257.26 491.5 L 257.26 481.24 L 252.13 481.24 L 252.13 470.98 L 257.26 470.98 L 257.26 460.72 L 252.13 460.72 L 252.13 450.46 L 257.26 450.46 L 257.26 438.26 L 236.36 438.26 L 236.36 443.39 L 226.1 443.39 L 226.1 438.26 L 215.84 438.26 L 215.84 443.39 L 205.58 443.39 L 205.58 438.26 L 195.32 438.26 L 195.32 443.39 L 185.06 443.39 L 185.06 438.26 L 174.8 438.26 L 174.8 443.39 L 164.54 443.39 L 164.54 438.26 L 154.28 438.26 L 154.28 443.39 L 144.02 443.39 L 144.02 438.26 L 133.76 438.26 L 133.76 443.39 L 123.5 443.39 L 123.5 438.26 L 113.24 438.26 L 113.24 443.39 L 102.98 443.39 L 102.98 438.26 L 92.72 438.26 L 92.72 443.39 L 82.46 443.39 L 82.46 438.26 L 72.2 438.26 L 72.2 443.39 L 61.94 443.39 L 61.94 438.26 L 51.68 438.26 L 51.68 443.39 L 41.42 443.39 L 41.42 438.26 L 31.16 438.26 L 31.16 443.39 L 20.9 443.39 L 20.9 438.26 L 10.64 438.26 L 0 438.26 Z"
       id="front_outsideCutPath"
       stroke="#FF0000"
       stroke-width="0.1"
       style="stroke:#FF0000;stroke-width:0.1"
       vector-effect="non-scaling-stroke" />
    <path
       d="M 148.636 517.258 L 146.411 517.258 L 146.411 507.754 A 6.29 6.29 0 0 0 146.339 506.768 Q 146.168 505.695 145.593 505.073 A 2.509 2.509 0 0 0 144.564 504.417 Q 144.16 504.274 143.663 504.221 A 5.899 5.899 0 0 0 143.033 504.189 Q 140.727 504.189 139.655 505.435 A 3.638 3.638 0 0 0 139.023 506.541 Q 138.583 507.713 138.583 509.55 L 138.583 517.258 L 136.358 517.258 L 136.358 502.567 L 138.167 502.567 L 138.529 504.577 L 138.636 504.577 A 4.506 4.506 0 0 1 140.401 502.972 A 5.418 5.418 0 0 1 140.553 502.895 A 6.025 6.025 0 0 1 142.697 502.323 A 7.286 7.286 0 0 1 143.301 502.299 A 8.785 8.785 0 0 1 144.796 502.418 Q 146.363 502.689 147.295 503.579 A 3.856 3.856 0 0 1 148.235 505.054 Q 148.461 505.662 148.559 506.415 A 9.71 9.71 0 0 1 148.636 507.674 L 148.636 517.258 Z M 105.89 502.567 L 105.89 504.296 L 102.15 504.296 L 102.15 517.258 L 99.925 517.258 L 99.925 504.296 L 97.297 504.296 L 97.297 503.291 L 99.925 502.486 L 99.925 501.669 Q 99.925 496.253 104.656 496.253 Q 105.823 496.253 107.391 496.723 L 106.815 498.505 A 10.805 10.805 0 0 0 105.974 498.269 Q 105.55 498.169 105.176 498.125 A 4.785 4.785 0 0 0 104.616 498.09 Q 103.356 498.09 102.753 498.928 Q 102.206 499.688 102.155 501.28 A 10.506 10.506 0 0 0 102.15 501.615 L 102.15 502.567 L 105.89 502.567 Z M 159.963 515.422 L 159.963 517.124 Q 159.636 517.281 159.03 517.389 A 8.32 8.32 0 0 1 158.897 517.412 Q 158.193 517.526 157.63 517.526 Q 154.23 517.526 153.542 514.67 A 6.994 6.994 0 0 1 153.368 513.036 L 153.368 504.296 L 151.263 504.296 L 151.263 503.224 L 153.368 502.299 L 154.306 499.162 L 155.593 499.162 L 155.593 502.567 L 159.855 502.567 L 159.855 504.296 L 155.593 504.296 L 155.593 512.942 A 4.481 4.481 0 0 0 155.657 513.729 Q 155.795 514.496 156.223 514.979 A 2.067 2.067 0 0 0 157.493 515.656 A 2.974 2.974 0 0 0 157.952 515.69 A 7.308 7.308 0 0 0 159.022 515.613 A 6.734 6.734 0 0 0 159.091 515.603 A 12.037 12.037 0 0 0 159.412 515.547 Q 159.72 515.49 159.933 515.43 A 3.339 3.339 0 0 0 159.963 515.422 Z M 117.029 502.46 L 116.72 504.524 Q 115.809 504.323 115.112 504.323 Q 113.329 504.323 112.062 505.77 A 5.081 5.081 0 0 0 110.836 508.624 A 6.754 6.754 0 0 0 110.796 509.376 L 110.796 517.258 L 108.57 517.258 L 108.57 502.567 L 110.407 502.567 L 110.662 505.288 L 110.769 505.288 A 7.514 7.514 0 0 1 111.609 504.088 A 5.74 5.74 0 0 1 112.739 503.076 A 4.436 4.436 0 0 1 115.273 502.299 A 10.215 10.215 0 0 1 116.187 502.338 A 7.456 7.456 0 0 1 117.029 502.46 Z M 130.647 515.509 A 6.207 6.207 0 0 0 131.386 514.493 Q 132.457 512.662 132.457 509.899 A 13.059 13.059 0 0 0 132.452 509.546 Q 132.364 506.296 130.641 504.35 Q 128.824 502.299 125.741 502.299 A 8.642 8.642 0 0 0 124.189 502.432 A 5.886 5.886 0 0 0 120.755 504.303 A 6.147 6.147 0 0 0 120 505.35 Q 118.959 507.164 118.959 509.899 Q 118.959 512.218 119.79 513.947 A 7.313 7.313 0 0 0 119.952 514.264 A 6.024 6.024 0 0 0 122.149 516.601 A 6.196 6.196 0 0 0 123.571 517.234 A 7.145 7.145 0 0 0 125.648 517.526 A 8.64 8.64 0 0 0 127.156 517.4 A 5.932 5.932 0 0 0 130.647 515.509 Z M 121.738 512.988 A 4.668 4.668 0 0 0 122.39 514.188 A 3.647 3.647 0 0 0 124.765 515.587 A 5.526 5.526 0 0 0 125.701 515.663 Q 127.886 515.663 129.019 514.195 A 4.777 4.777 0 0 0 129.763 512.746 Q 130.151 511.556 130.151 509.899 Q 130.151 507.097 129.019 505.643 Q 127.886 504.189 125.674 504.189 A 5.296 5.296 0 0 0 124.356 504.343 A 3.544 3.544 0 0 0 122.377 505.623 Q 121.576 506.655 121.352 508.417 A 11.758 11.758 0 0 0 121.264 509.899 Q 121.264 511.726 121.738 512.988 Z"
       id="front_labelLayer"
       stroke="#777777"
       fill="#777777"
       style="stroke:#777777;fill:#777777"
       vector-effect="non-scaling-stroke" />
    <path
       d="M 265.39 438.26 L 265.39 450.46 L 260.26 450.46 L 260.26 460.72 L 265.39 460.72 L 265.39 470.98 L 260.26 470.98 L 260.26 481.24 L 265.39 481.24 L 265.39 491.5 L 260.26 491.5 L 260.26 501.76 L 265.39 501.76 L 265.39 512.02 L 260.26 512.02 L 260.26 522.28 L 265.39 522.28 L 265.39 532.54 L 260.26 532.54 L 260.26 542.8 L 265.39 542.8 L 265.39 553.06 L 260.26 553.06 L 260.26 563.32 L 265.39 563.32 L 265.39 575.52 L 275.14 575.52 L 275.14 570.39 L 285.4 570.39 L 285.4 575.52 L 295.66 575.52 L 295.66 570.39 L 305.92 570.39 L 305.92 575.52 L 316.18 575.52 L 316.18 570.39 L 326.44 570.39 L 326.44 575.52 L 336.7 575.52 L 336.7 570.39 L 346.96 570.39 L 346.96 575.52 L 357.22 575.52 L 357.22 570.39 L 367.48 570.39 L 367.48 575.52 L 377.74 575.52 L 377.74 570.39 L 388 570.39 L 388 575.52 L 398.26 575.52 L 398.26 570.39 L 408.52 570.39 L 408.52 575.52 L 418.78 575.52 L 418.78 570.39 L 429.04 570.39 L 429.04 575.52 L 439.3 575.52 L 439.3 570.39 L 449.56 570.39 L 449.56 575.52 L 459.82 575.52 L 459.82 570.39 L 470.08 570.39 L 470.08 575.52 L 480.34 575.52 L 480.34 570.39 L 490.6 570.39 L 490.6 575.52 L 500.86 575.52 L 500.86 570.39 L 511.12 570.39 L 511.12 575.52 L 521.38 575.52 L 521.38 570.39 L 531.64 570.39 L 531.64 575.52 L 541.39 575.52 L 541.39 563.32 L 546.52 563.32 L 546.52 553.06 L 541.39 553.06 L 541.39 542.8 L 546.52 542.8 L 546.52 532.54 L 541.39 532.54 L 541.39 522.28 L 546.52 522.28 L 546.52 512.02 L 541.39 512.02 L 541.39 501.76 L 546.52 501.76 L 546.52 491.5 L 541.39 491.5 L 541.39 481.24 L 546.52 481.24 L 546.52 470.98 L 541.39 470.98 L 541.39 460.72 L 546.52 460.72 L 546.52 450.46 L 541.39 450.46 L 541.39 438.26 L 531.64 438.26 L 531.64 443.39 L 521.38 443.39 L 521.38 438.26 L 511.12 438.26 L 511.12 443.39 L 500.86 443.39 L 500.86 438.26 L 490.6 438.26 L 490.6 443.39 L 480.34 443.39 L 480.34 438.26 L 470.08 438.26 L 470.08 443.39 L 459.82 443.39 L 459.82 438.26 L 449.56 438.26 L 449.56 443.39 L 439.3 443.39 L 439.3 438.26 L 429.04 438.26 L 429.04 443.39 L 418.78 443.39 L 418.78 438.26 L 408.52 438.26 L 408.52 443.39 L 398.26 443.39 L 398.26 438.26 L 388 438.26 L 388 443.39 L 377.74 443.39 L 377.74 438.26 L 367.48 438.26 L 367.48 443.39 L 357.22 443.39 L 357.22 438.26 L 346.96 438.26 L 346.96 443.39 L 336.7 443.39 L 336.7 438.26 L 326.44 438.26 L 326.44 443.39 L 316.18 443.39 L 316.18 438.26 L 305.92 438.26 L 305.92 443.39 L 295.66 443.39 L 295.66 438.26 L 285.4 438.26 L 285.4 443.39 L 275.14 443.39 L 275.14 438.26 L 265.39 438.26 Z"
       id="left_outsideCutPath"
       stroke="#FF0000"
       stroke-width="0.1"
       style="stroke:#FF0000;stroke-width:0.1"
       vector-effect="non-scaling-stroke" />
    <path
       d="M 413.155 502.567 L 413.155 504.296 L 409.415 504.296 L 409.415 517.258 L 407.19 517.258 L 407.19 504.296 L 404.563 504.296 L 404.563 503.291 L 407.19 502.486 L 407.19 501.669 Q 407.19 496.253 411.922 496.253 Q 413.088 496.253 414.656 496.723 L 414.08 498.505 A 10.805 10.805 0 0 0 413.24 498.269 Q 412.815 498.169 412.441 498.125 A 4.785 4.785 0 0 0 411.882 498.09 Q 410.622 498.09 410.018 498.928 Q 409.471 499.688 409.42 501.28 A 10.506 10.506 0 0 0 409.415 501.615 L 409.415 502.567 L 413.155 502.567 Z M 402.74 508.907 L 402.74 510.315 L 392.62 510.315 A 8.931 8.931 0 0 0 392.776 511.81 Q 392.937 512.624 393.259 513.267 A 4.178 4.178 0 0 0 393.927 514.242 A 4.043 4.043 0 0 0 396.05 515.438 A 6.126 6.126 0 0 0 397.418 515.582 A 11.752 11.752 0 0 0 401.82 514.711 A 13.466 13.466 0 0 0 402.11 514.59 L 402.11 516.574 Q 400.93 517.084 399.878 517.305 A 9.341 9.341 0 0 1 398.951 517.448 Q 398.495 517.497 397.979 517.515 A 18.128 18.128 0 0 1 397.338 517.526 A 8.647 8.647 0 0 1 395.174 517.27 A 6.123 6.123 0 0 1 392.197 515.542 A 6.549 6.549 0 0 1 390.631 512.666 Q 390.359 511.646 390.32 510.435 A 12.71 12.71 0 0 1 390.314 510.033 A 11.684 11.684 0 0 1 390.53 507.716 Q 390.929 505.746 392.063 504.39 Q 393.813 502.299 396.762 502.299 A 6.779 6.779 0 0 1 398.67 502.554 A 5.158 5.158 0 0 1 401.131 504.115 A 6.222 6.222 0 0 1 402.541 506.958 A 9.056 9.056 0 0 1 402.74 508.907 Z M 422.592 515.422 L 422.592 517.124 Q 422.265 517.281 421.659 517.389 A 8.32 8.32 0 0 1 421.526 517.412 Q 420.822 517.526 420.259 517.526 Q 416.86 517.526 416.171 514.67 A 6.994 6.994 0 0 1 415.997 513.036 L 415.997 504.296 L 413.892 504.296 L 413.892 503.224 L 415.997 502.299 L 416.935 499.162 L 418.222 499.162 L 418.222 502.567 L 422.484 502.567 L 422.484 504.296 L 418.222 504.296 L 418.222 512.942 A 4.481 4.481 0 0 0 418.286 513.729 Q 418.424 514.496 418.852 514.979 A 2.067 2.067 0 0 0 420.123 515.656 A 2.974 2.974 0 0 0 420.581 515.69 A 7.308 7.308 0 0 0 421.652 515.613 A 6.734 6.734 0 0 0 421.72 515.603 A 12.037 12.037 0 0 0 422.042 515.547 Q 422.349 515.49 422.562 515.43 A 3.339 3.339 0 0 0 422.592 515.422 Z M 386.413 496.401 L 386.413 517.258 L 384.188 517.258 L 384.188 496.401 L 386.413 496.401 Z M 392.673 508.505 L 400.354 508.505 A 7.582 7.582 0 0 0 400.262 507.286 Q 400.156 506.632 399.925 506.109 A 3.442 3.442 0 0 0 399.416 505.281 A 3.048 3.048 0 0 0 397.58 504.236 A 4.573 4.573 0 0 0 396.735 504.162 A 4.386 4.386 0 0 0 395.468 504.336 A 3.389 3.389 0 0 0 393.913 505.315 A 4.395 4.395 0 0 0 393.039 506.789 Q 392.761 507.55 392.673 508.505 Z"
       id="left_labelLayer"
       stroke="#777777"
       fill="#777777"
       style="stroke:#777777;fill:#777777"
       vector-effect="non-scaling-stroke" />
    <path
       d="M 554.65 294.39 L 554.65 304.14 L 549.52 304.14 L 549.52 314.4 L 554.65 314.4 L 554.65 324.66 L 549.52 324.66 L 549.52 334.92 L 554.65 334.92 L 554.65 345.18 L 549.52 345.18 L 549.52 355.44 L 554.65 355.44 L 554.65 365.7 L 549.52 365.7 L 549.52 375.96 L 554.65 375.96 L 554.65 386.22 L 549.52 386.22 L 549.52 396.48 L 554.65 396.48 L 554.65 406.74 L 549.52 406.74 L 549.52 417 L 554.65 417 L 554.65 427.26 L 549.52 427.26 L 549.52 437.52 L 554.65 437.52 L 554.65 447.78 L 549.52 447.78 L 549.52 458.04 L 554.65 458.04 L 554.65 468.3 L 549.52 468.3 L 549.52 478.56 L 554.65 478.56 L 554.65 488.82 L 549.52 488.82 L 549.52 499.08 L 554.65 499.08 L 554.65 509.34 L 549.52 509.34 L 549.52 519.6 L 554.65 519.6 L 554.65 529.86 L 549.52 529.86 L 549.52 540.12 L 554.65 540.12 L 554.65 550.38 L 549.52 550.38 L 549.52 560.64 L 554.65 560.64 L 554.65 570.39 L 570.42 570.39 L 570.42 575.52 L 580.68 575.52 L 580.68 570.39 L 590.94 570.39 L 590.94 575.52 L 601.2 575.52 L 601.2 570.39 L 611.46 570.39 L 611.46 575.52 L 621.72 575.52 L 621.72 570.39 L 631.98 570.39 L 631.98 575.52 L 642.24 575.52 L 642.24 570.39 L 652.5 570.39 L 652.5 575.52 L 662.76 575.52 L 662.76 570.39 L 673.02 570.39 L 673.02 575.52 L 683.28 575.52 L 683.28 570.39 L 693.54 570.39 L 693.54 575.52 L 703.8 575.52 L 703.8 570.39 L 714.06 570.39 L 714.06 575.52 L 724.32 575.52 L 724.32 570.39 L 734.58 570.39 L 734.58 575.52 L 744.84 575.52 L 744.84 570.39 L 755.1 570.39 L 755.1 575.52 L 765.36 575.52 L 765.36 570.39 L 775.62 570.39 L 775.62 575.52 L 785.88 575.52 L 785.88 570.39 L 796.14 570.39 L 801.65 570.39 L 801.65 560.64 L 806.78 560.64 L 806.78 550.38 L 801.65 550.38 L 801.65 540.12 L 806.78 540.12 L 806.78 529.86 L 801.65 529.86 L 801.65 519.6 L 806.78 519.6 L 806.78 509.34 L 801.65 509.34 L 801.65 499.08 L 806.78 499.08 L 806.78 488.82 L 801.65 488.82 L 801.65 478.56 L 806.78 478.56 L 806.78 468.3 L 801.65 468.3 L 801.65 458.04 L 806.78 458.04 L 806.78 447.78 L 801.65 447.78 L 801.65 437.52 L 806.78 437.52 L 806.78 427.26 L 801.65 427.26 L 801.65 417 L 806.78 417 L 806.78 406.74 L 801.65 406.74 L 801.65 396.48 L 806.78 396.48 L 806.78 386.22 L 801.65 386.22 L 801.65 375.96 L 806.78 375.96 L 806.78 365.7 L 801.65 365.7 L 801.65 355.44 L 806.78 355.44 L 806.78 345.18 L 801.65 345.18 L 801.65 334.92 L 806.78 334.92 L 806.78 324.66 L 801.65 324.66 L 801.65 314.4 L 806.78 314.4 L 806.78 304.14 L 801.65 304.14 L 801.65 294.39 L 785.88 294.39 L 785.88 289.26 L 775.62 289.26 L 775.62 294.39 L 765.36 294.39 L 765.36 289.26 L 755.1 289.26 L 755.1 294.39 L 744.84 294.39 L 744.84 289.26 L 734.58 289.26 L 734.58 294.39 L 724.32 294.39 L 724.32 289.26 L 714.06 289.26 L 714.06 294.39 L 703.8 294.39 L 703.8 289.26 L 693.54 289.26 L 693.54 294.39 L 683.28 294.39 L 683.28 289.26 L 673.02 289.26 L 673.02 294.39 L 662.76 294.39 L 662.76 289.26 L 652.5 289.26 L 652.5 294.39 L 642.24 294.39 L 642.24 289.26 L 631.98 289.26 L 631.98 294.39 L 621.72 294.39 L 621.72 289.26 L 611.46 289.26 L 611.46 294.39 L 601.2 294.39 L 601.2 289.26 L 590.94 289.26 L 590.94 294.39 L 580.68 294.39 L 580.68 289.26 L 570.42 289.26 L 570.42 294.39 L 560.16 294.39 L 554.65 294.39 Z"
       id="top_outsideCutPath"
       stroke="#FF0000"
       stroke-width="0.1"
       style="stroke:#FF0000;stroke-width:0.1"
       vector-effect="non-scaling-stroke" />
    <path
       d="M 696.64 439.625 L 696.339 439.625 Q 696.64 442.037 696.64 444.198 L 696.64 455.528 L 692.47 455.528 L 692.47 415.633 L 695.862 415.633 L 696.439 419.401 L 696.64 419.401 Q 698.248 417.14 700.384 416.135 A 10.444 10.444 0 0 1 703.378 415.26 A 13.518 13.518 0 0 1 705.283 415.13 A 12.783 12.783 0 0 1 708.894 415.613 A 9.449 9.449 0 0 1 713.737 418.874 A 12.522 12.522 0 0 1 715.873 423.046 Q 716.425 424.843 716.614 427.007 A 27.157 27.157 0 0 1 716.714 429.375 Q 716.714 434.162 715.206 437.441 A 11.722 11.722 0 0 1 713.686 439.914 A 9.873 9.873 0 0 1 706.669 443.604 A 14.145 14.145 0 0 1 705.283 443.67 A 12.65 12.65 0 0 1 702.104 443.283 A 11.007 11.007 0 0 1 700.371 442.678 A 9.237 9.237 0 0 1 696.64 439.625 Z M 655.891 439.726 L 655.891 442.917 A 4.102 4.102 0 0 1 655.404 443.11 Q 654.8 443.31 653.893 443.457 Q 652.662 443.656 651.661 443.669 A 10.691 10.691 0 0 1 651.519 443.67 A 10.893 10.893 0 0 1 648.309 443.238 Q 644.781 442.149 643.858 438.316 A 13.109 13.109 0 0 1 643.53 435.254 L 643.53 418.874 L 639.586 418.874 L 639.586 416.864 L 643.53 415.13 L 645.289 409.252 L 647.701 409.252 L 647.701 415.633 L 655.69 415.633 L 655.69 418.874 L 647.701 418.874 L 647.701 435.078 A 8.398 8.398 0 0 0 647.822 436.553 Q 647.966 437.362 648.284 438.003 A 4.045 4.045 0 0 0 648.881 438.897 A 3.874 3.874 0 0 0 651.263 440.165 A 5.574 5.574 0 0 0 652.122 440.228 A 13.696 13.696 0 0 0 654.129 440.085 A 12.622 12.622 0 0 0 654.258 440.065 A 22.56 22.56 0 0 0 654.86 439.962 Q 655.435 439.854 655.835 439.742 A 6.268 6.268 0 0 0 655.891 439.726 Z M 684.776 433.566 A 21.542 21.542 0 0 0 685.159 429.375 A 24.476 24.476 0 0 0 685.15 428.713 Q 685.088 426.421 684.592 424.474 A 12.986 12.986 0 0 0 681.755 418.974 Q 678.351 415.13 672.572 415.13 A 16.198 16.198 0 0 0 669.663 415.38 A 11.031 11.031 0 0 0 663.227 418.886 A 11.522 11.522 0 0 0 661.812 420.849 Q 660.721 422.749 660.24 425.187 A 21.654 21.654 0 0 0 659.86 429.375 Q 659.86 433.722 661.418 436.962 Q 662.975 440.203 665.839 441.937 A 11.612 11.612 0 0 0 668.505 443.122 A 13.392 13.392 0 0 0 672.397 443.67 A 16.194 16.194 0 0 0 675.225 443.434 A 11.118 11.118 0 0 0 681.768 439.889 A 11.634 11.634 0 0 0 683.153 437.986 Q 684.283 436.053 684.776 433.566 Z M 664.181 429.375 A 21.119 21.119 0 0 0 664.382 432.392 Q 664.604 433.924 665.07 435.164 A 8.749 8.749 0 0 0 666.292 437.415 A 6.835 6.835 0 0 0 670.743 440.036 A 10.358 10.358 0 0 0 672.497 440.178 A 9.687 9.687 0 0 0 675.053 439.86 A 6.741 6.741 0 0 0 678.715 437.427 A 8.953 8.953 0 0 0 680.109 434.712 Q 680.519 433.457 680.698 431.925 A 21.968 21.968 0 0 0 680.838 429.375 A 20.809 20.809 0 0 0 680.641 426.41 Q 680.423 424.901 679.964 423.678 A 8.587 8.587 0 0 0 678.715 421.399 A 6.86 6.86 0 0 0 674.45 418.854 A 10.518 10.518 0 0 0 672.447 418.673 A 9.925 9.925 0 0 0 669.976 418.962 A 6.642 6.642 0 0 0 666.267 421.361 A 8.623 8.623 0 0 0 664.926 423.951 Q 664.531 425.142 664.345 426.598 A 22.038 22.038 0 0 0 664.181 429.375 Z M 696.64 428.446 L 696.64 429.375 A 27.575 27.575 0 0 0 696.777 432.225 Q 697.077 435.101 698.036 436.851 A 6.29 6.29 0 0 0 698.575 437.678 Q 700.309 439.919 703.921 440.151 A 13.409 13.409 0 0 0 704.78 440.178 A 7.027 7.027 0 0 0 707.512 439.665 Q 709.2 438.961 710.37 437.289 Q 711.966 435.009 712.303 431.369 A 22.218 22.218 0 0 0 712.393 429.325 A 21.045 21.045 0 0 0 712.195 426.34 Q 711.978 424.828 711.522 423.599 A 8.841 8.841 0 0 0 710.37 421.424 Q 708.348 418.673 704.68 418.673 Q 701.971 418.673 700.225 419.635 A 5.511 5.511 0 0 0 698.575 421.009 A 7.145 7.145 0 0 0 697.457 423.045 Q 696.751 424.966 696.654 427.806 A 26.542 26.542 0 0 0 696.64 428.446 Z"
       id="top_labelLayer"
       stroke="#777777"
       fill="#777777"
       style="stroke:#777777;fill:#777777"
       vector-effect="non-scaling-stroke" />
    <path
       d="M 0 298 L 0 310.2 L 5.13 310.2 L 5.13 320.46 L 0 320.46 L 0 330.72 L 5.13 330.72 L 5.13 340.98 L 0 340.98 L 0 351.24 L 5.13 351.24 L 5.13 361.5 L 0 361.5 L 0 371.76 L 5.13 371.76 L 5.13 382.02 L 0 382.02 L 0 392.28 L 5.13 392.28 L 5.13 402.54 L 0 402.54 L 0 412.8 L 5.13 412.8 L 5.13 423.06 L 0 423.06 L 0 435.26 L 20.9 435.26 L 20.9 430.13 L 31.16 430.13 L 31.16 435.26 L 41.42 435.26 L 41.42 430.13 L 51.68 430.13 L 51.68 435.26 L 61.94 435.26 L 61.94 430.13 L 72.2 430.13 L 72.2 435.26 L 82.46 435.26 L 82.46 430.13 L 92.72 430.13 L 92.72 435.26 L 102.98 435.26 L 102.98 430.13 L 113.24 430.13 L 113.24 435.26 L 123.5 435.26 L 123.5 430.13 L 133.76 430.13 L 133.76 435.26 L 144.02 435.26 L 144.02 430.13 L 154.28 430.13 L 154.28 435.26 L 164.54 435.26 L 164.54 430.13 L 174.8 430.13 L 174.8 435.26 L 185.06 435.26 L 185.06 430.13 L 195.32 430.13 L 195.32 435.26 L 205.58 435.26 L 205.58 430.13 L 215.84 430.13 L 215.84 435.26 L 226.1 435.26 L 226.1 430.13 L 236.36 430.13 L 236.36 435.26 L 246.62 435.26 L 257.26 435.26 L 257.26 423.06 L 252.13 423.06 L 252.13 412.8 L 257.26 412.8 L 257.26 402.54 L 252.13 402.54 L 252.13 392.28 L 257.26 392.28 L 257.26 382.02 L 252.13 382.02 L 252.13 371.76 L 257.26 371.76 L 257.26 361.5 L 252.13 361.5 L 252.13 351.24 L 257.26 351.24 L 257.26 340.98 L 252.13 340.98 L 252.13 330.72 L 257.26 330.72 L 257.26 320.46 L 252.13 320.46 L 252.13 310.2 L 257.26 310.2 L 257.26 298 L 236.36 298 L 236.36 303.13 L 226.1 303.13 L 226.1 298 L 215.84 298 L 215.84 303.13 L 205.58 303.13 L 205.58 298 L 195.32 298 L 195.32 303.13 L 185.06 303.13 L 185.06 298 L 174.8 298 L 174.8 303.13 L 164.54 303.13 L 164.54 298 L 154.28 298 L 154.28 303.13 L 144.02 303.13 L 144.02 298 L 133.76 298 L 133.76 303.13 L 123.5 303.13 L 123.5 298 L 113.24 298 L 113.24 303.13 L 102.98 303.13 L 102.98 298 L 92.72 298 L 92.72 303.13 L 82.46 303.13 L 82.46 298 L 72.2 298 L 72.2 303.13 L 61.94 303.13 L 61.94 298 L 51.68 298 L 51.68 303.13 L 41.42 303.13 L 41.42 298 L 31.16 298 L 31.16 303.13 L 20.9 303.13 L 20.9 298 L 10.64 298 L 0 298 Z"
       id="back_outsideCutPath"
       stroke="#FF0000"
       stroke-width="0.1"
       style="stroke:#FF0000;stroke-width:0.1"
       vector-effect="non-scaling-stroke" />
    <path
       d="M 147.423 369.405 L 147.53 369.405 A 13.172 13.172 0 0 1 147.856 368.964 Q 148.401 368.255 149.286 367.26 L 154.031 362.233 L 156.672 362.233 L 150.72 368.493 L 157.087 376.924 L 154.393 376.924 L 149.206 369.981 L 147.53 371.429 L 147.53 376.924 L 145.332 376.924 L 145.332 356.067 L 147.53 356.067 L 147.53 367.126 A 14.828 14.828 0 0 1 147.523 367.545 Q 147.504 368.231 147.427 369.349 A 92.109 92.109 0 0 1 147.423 369.405 Z M 102.398 375.034 L 102.237 375.034 L 101.768 376.924 L 100.173 376.924 L 100.173 356.067 L 102.398 356.067 L 102.398 361.134 Q 102.398 362.836 102.291 364.19 L 102.398 364.19 A 5.059 5.059 0 0 1 106.09 362.046 A 7.6 7.6 0 0 1 107.009 361.992 A 6.801 6.801 0 0 1 108.923 362.247 A 5.091 5.091 0 0 1 111.506 363.969 A 6.557 6.557 0 0 1 112.656 366.183 Q 113.108 367.643 113.108 369.565 A 13.046 13.046 0 0 1 112.935 371.761 Q 112.579 373.84 111.493 375.188 Q 109.877 377.192 107.009 377.192 A 6.749 6.749 0 0 1 105.313 376.986 A 5.872 5.872 0 0 1 104.388 376.663 Q 103.202 376.133 102.398 375.034 Z M 127.678 376.924 L 126.03 376.924 L 125.587 374.833 L 125.48 374.833 A 9.224 9.224 0 0 1 124.734 375.669 Q 124.332 376.063 123.931 376.338 A 4.1 4.1 0 0 1 123.288 376.703 A 5.131 5.131 0 0 1 122.229 377.038 Q 121.48 377.192 120.561 377.192 Q 118.376 377.192 117.136 376.066 Q 115.896 374.941 115.896 372.863 A 3.85 3.85 0 0 1 118.086 369.229 Q 119.717 368.361 122.561 368.216 A 21.736 21.736 0 0 1 123.014 368.198 L 125.507 368.118 L 125.507 367.206 Q 125.507 366.149 125.229 365.43 A 2.483 2.483 0 0 0 124.763 364.653 A 2.259 2.259 0 0 0 123.838 364.049 Q 123.23 363.828 122.384 363.828 A 7.244 7.244 0 0 0 120.716 364.036 Q 119.551 364.312 118.228 364.954 L 117.545 363.252 A 10.259 10.259 0 0 1 119.525 362.438 A 11.678 11.678 0 0 1 119.924 362.327 Q 121.217 361.992 122.518 361.992 A 9.398 9.398 0 0 1 123.949 362.093 Q 124.685 362.207 125.272 362.448 A 3.787 3.787 0 0 1 126.412 363.158 Q 127.405 364.073 127.619 365.853 A 8.755 8.755 0 0 1 127.678 366.898 L 127.678 376.924 Z M 142.061 362.729 L 141.377 364.619 A 9.899 9.899 0 0 0 140.304 364.262 A 11.822 11.822 0 0 0 139.769 364.13 A 9.191 9.191 0 0 0 139.07 364.001 Q 138.729 363.952 138.425 363.94 A 4.932 4.932 0 0 0 138.227 363.936 A 4.936 4.936 0 0 0 136.223 364.312 Q 134.122 365.238 133.806 368.441 A 12.295 12.295 0 0 0 133.75 369.646 A 10.776 10.776 0 0 0 133.857 371.215 Q 133.974 372.01 134.221 372.657 A 4.615 4.615 0 0 0 134.843 373.801 A 3.534 3.534 0 0 0 137.133 375.169 A 5.383 5.383 0 0 0 138.08 375.249 A 9.315 9.315 0 0 0 140.649 374.875 A 11.5 11.5 0 0 0 141.847 374.458 L 141.847 376.428 Q 140.58 377.085 138.751 377.177 A 12.202 12.202 0 0 1 138.134 377.192 A 8.316 8.316 0 0 1 136.111 376.96 A 5.639 5.639 0 0 1 133.194 375.229 A 6.436 6.436 0 0 1 131.855 372.771 Q 131.56 371.795 131.477 370.621 A 13.454 13.454 0 0 1 131.445 369.673 Q 131.445 367.004 132.376 365.213 A 6.134 6.134 0 0 1 133.221 363.976 Q 134.997 361.965 138.281 361.965 A 10.041 10.041 0 0 1 140.399 362.193 A 11.106 11.106 0 0 1 141.016 362.343 Q 141.636 362.514 142.048 362.722 A 3.305 3.305 0 0 1 142.061 362.729 Z M 104.263 364.407 A 2.959 2.959 0 0 0 103.403 365.162 A 3.809 3.809 0 0 0 102.852 366.212 Q 102.48 367.255 102.413 368.84 A 17.143 17.143 0 0 0 102.398 369.565 A 14.712 14.712 0 0 0 102.471 371.086 Q 102.631 372.62 103.142 373.554 A 3.356 3.356 0 0 0 103.43 373.996 A 3.228 3.228 0 0 0 105.067 375.101 Q 105.615 375.272 106.282 375.315 A 7.155 7.155 0 0 0 106.741 375.329 A 4.436 4.436 0 0 0 108.001 375.161 A 3.2 3.2 0 0 0 109.797 373.835 A 5.108 5.108 0 0 0 110.429 372.468 Q 110.802 371.246 110.802 369.539 Q 110.802 366.819 109.899 365.413 A 3.691 3.691 0 0 0 109.797 365.263 A 3.245 3.245 0 0 0 107.731 363.955 A 5.146 5.146 0 0 0 106.687 363.855 Q 105.206 363.855 104.263 364.407 Z M 125.453 371.026 L 125.453 369.699 L 123.228 369.793 A 16.338 16.338 0 0 0 121.923 369.888 Q 120.635 370.038 119.828 370.394 A 3.417 3.417 0 0 0 119.401 370.618 A 2.374 2.374 0 0 0 118.269 372.34 A 3.514 3.514 0 0 0 118.228 372.89 Q 118.228 374.096 118.959 374.726 Q 119.59 375.27 120.656 375.344 A 5.005 5.005 0 0 0 121.003 375.356 Q 122.798 375.356 123.928 374.505 A 3.715 3.715 0 0 0 124.267 374.217 A 3.727 3.727 0 0 0 125.307 372.356 Q 125.453 371.747 125.453 371.026 Z"
       id="back_labelLayer"
       stroke="#777777"
       fill="#777777"
       style="stroke:#777777;fill:#777777"
       vector-effect="non-scaling-stroke" />
    <path
       d="M 265.39 298 L 265.39 310.2 L 260.26 310.2 L 260.26 320.46 L 265.39 320.46 L 265.39 330.72 L 260.26 330.72 L 260.26 340.98 L 265.39 340.98 L 265.39 351.24 L 260.26 351.24 L 260.26 361.5 L 265.39 361.5 L 265.39 371.76 L 260.26 371.76 L 260.26 382.02 L 265.39 382.02 L 265.39 392.28 L 260.26 392.28 L 260.26 402.54 L 265.39 402.54 L 265.39 412.8 L 260.26 412.8 L 260.26 423.06 L 265.39 423.06 L 265.39 435.26 L 275.14 435.26 L 275.14 430.13 L 285.4 430.13 L 285.4 435.26 L 295.66 435.26 L 295.66 430.13 L 305.92 430.13 L 305.92 435.26 L 316.18 435.26 L 316.18 430.13 L 326.44 430.13 L 326.44 435.26 L 336.7 435.26 L 336.7 430.13 L 346.96 430.13 L 346.96 435.26 L 357.22 435.26 L 357.22 430.13 L 367.48 430.13 L 367.48 435.26 L 377.74 435.26 L 377.74 430.13 L 388 430.13 L 388 435.26 L 398.26 435.26 L 398.26 430.13 L 408.52 430.13 L 408.52 435.26 L 418.78 435.26 L 418.78 430.13 L 429.04 430.13 L 429.04 435.26 L 439.3 435.26 L 439.3 430.13 L 449.56 430.13 L 449.56 435.26 L 459.82 435.26 L 459.82 430.13 L 470.08 430.13 L 470.08 435.26 L 480.34 435.26 L 480.34 430.13 L 490.6 430.13 L 490.6 435.26 L 500.86 435.26 L 500.86 430.13 L 511.12 430.13 L 511.12 435.26 L 521.38 435.26 L 521.38 430.13 L 531.64 430.13 L 531.64 435.26 L 541.39 435.26 L 541.39 423.06 L 546.52 423.06 L 546.52 412.8 L 541.39 412.8 L 541.39 402.54 L 546.52 402.54 L 546.52 392.28 L 541.39 392.28 L 541.39 382.02 L 546.52 382.02 L 546.52 371.76 L 541.39 371.76 L 541.39 361.5 L 546.52 361.5 L 546.52 351.24 L 541.39 351.24 L 541.39 340.98 L 546.52 340.98 L 546.52 330.72 L 541.39 330.72 L 541.39 320.46 L 546.52 320.46 L 546.52 310.2 L 541.39 310.2 L 541.39 298 L 531.64 298 L 531.64 303.13 L 521.38 303.13 L 521.38 298 L 511.12 298 L 511.12 303.13 L 500.86 303.13 L 500.86 298 L 490.6 298 L 490.6 303.13 L 480.34 303.13 L 480.34 298 L 470.08 298 L 470.08 303.13 L 459.82 303.13 L 459.82 298 L 449.56 298 L 449.56 303.13 L 439.3 303.13 L 439.3 298 L 429.04 298 L 429.04 303.13 L 418.78 303.13 L 418.78 298 L 408.52 298 L 408.52 303.13 L 398.26 303.13 L 398.26 298 L 388 298 L 388 303.13 L 377.74 303.13 L 377.74 298 L 367.48 298 L 367.48 303.13 L 357.22 303.13 L 357.22 298 L 346.96 298 L 346.96 303.13 L 336.7 303.13 L 336.7 298 L 326.44 298 L 326.44 303.13 L 316.18 303.13 L 316.18 298 L 305.92 298 L 305.92 303.13 L 295.66 303.13 L 295.66 298 L 285.4 298 L 285.4 303.13 L 275.14 303.13 L 275.14 298 L 265.39 298 Z"
       id="right_outsideCutPath"
       stroke="#FF0000"
       stroke-width="0.1"
       style="stroke:#FF0000;stroke-width:0.1"
       vector-effect="non-scaling-stroke" />
    <path
       d="M 420.46 373.761 L 418.235 373.761 L 418.235 364.257 A 6.29 6.29 0 0 0 418.163 363.271 Q 417.993 362.199 417.418 361.576 A 2.509 2.509 0 0 0 416.389 360.92 Q 415.985 360.777 415.488 360.724 A 5.899 5.899 0 0 0 414.857 360.692 A 6.734 6.734 0 0 0 413.599 360.801 Q 412.224 361.063 411.473 361.952 A 3.702 3.702 0 0 0 410.844 363.065 Q 410.407 364.243 410.407 366.08 L 410.407 373.761 L 408.182 373.761 L 408.182 352.904 L 410.407 352.904 L 410.407 359.217 A 20.017 20.017 0 0 1 410.393 359.986 Q 410.379 360.346 410.352 360.656 A 8.704 8.704 0 0 1 410.3 361.107 L 410.434 361.107 A 4.446 4.446 0 0 1 411.991 359.608 A 5.431 5.431 0 0 1 412.304 359.439 A 5.712 5.712 0 0 1 414.179 358.882 A 7.222 7.222 0 0 1 415.072 358.829 Q 416.844 358.829 418.033 359.382 A 4.011 4.011 0 0 1 419.113 360.109 A 3.874 3.874 0 0 1 420.069 361.609 Q 420.298 362.233 420.393 363.007 A 9.622 9.622 0 0 1 420.46 364.177 L 420.46 373.761 Z M 400.086 359.07 L 405.166 359.07 L 405.166 360.477 L 402.445 360.799 A 3.616 3.616 0 0 1 402.758 361.265 Q 402.949 361.6 403.115 362.026 A 4.281 4.281 0 0 1 403.369 363.048 A 5.497 5.497 0 0 1 403.41 363.735 A 5.101 5.101 0 0 1 403.176 365.316 A 4.126 4.126 0 0 1 401.936 367.179 Q 400.607 368.339 398.387 368.454 A 9.664 9.664 0 0 1 397.888 368.466 A 7.151 7.151 0 0 1 397.06 368.42 A 6.039 6.039 0 0 1 396.654 368.359 A 3.96 3.96 0 0 0 396.016 368.772 Q 395.686 369.038 395.495 369.343 A 1.674 1.674 0 0 0 395.233 370.249 A 1.153 1.153 0 0 0 395.292 370.627 Q 395.404 370.951 395.729 371.14 A 1.561 1.561 0 0 0 396.076 371.283 Q 396.438 371.389 396.99 371.418 A 8.465 8.465 0 0 0 397.432 371.429 L 400.032 371.429 Q 401.624 371.429 402.723 371.876 A 4.021 4.021 0 0 1 403.698 372.434 Q 404.978 373.439 404.978 375.356 Q 404.978 377.796 403.021 379.076 A 6.673 6.673 0 0 1 401.301 379.856 Q 400.453 380.114 399.419 380.239 A 17.636 17.636 0 0 1 397.311 380.356 A 12.467 12.467 0 0 1 395.639 380.251 Q 393.941 380.021 392.868 379.284 Q 391.407 378.281 391.313 376.504 A 4.699 4.699 0 0 1 391.306 376.254 Q 391.306 374.914 392.164 373.935 A 3.885 3.885 0 0 1 393.498 372.963 A 5.507 5.507 0 0 1 394.577 372.608 A 2.309 2.309 0 0 1 393.68 371.883 A 2.742 2.742 0 0 1 393.632 371.817 A 2.063 2.063 0 0 1 393.253 370.702 A 2.555 2.555 0 0 1 393.25 370.571 A 2.545 2.545 0 0 1 393.378 369.751 A 2.255 2.255 0 0 1 393.679 369.163 Q 394.108 368.56 395.032 367.997 A 3.901 3.901 0 0 1 393.338 366.64 A 4.835 4.835 0 0 1 393.176 366.402 A 4.6 4.6 0 0 1 392.47 364.185 A 5.614 5.614 0 0 1 392.459 363.828 A 6.429 6.429 0 0 1 392.628 362.308 A 4.23 4.23 0 0 1 393.906 360.109 A 4.725 4.725 0 0 1 395.72 359.108 Q 396.441 358.888 397.307 358.826 A 9.827 9.827 0 0 1 398.008 358.802 A 8.529 8.529 0 0 1 399.136 358.873 A 6.496 6.496 0 0 1 400.086 359.07 Z M 431.787 371.925 L 431.787 373.627 Q 431.46 373.784 430.854 373.893 A 8.32 8.32 0 0 1 430.721 373.915 Q 430.018 374.029 429.455 374.029 Q 426.055 374.029 425.367 371.173 A 6.994 6.994 0 0 1 425.192 369.539 L 425.192 360.799 L 423.088 360.799 L 423.088 359.727 L 425.192 358.802 L 426.13 355.665 L 427.417 355.665 L 427.417 359.07 L 431.68 359.07 L 431.68 360.799 L 427.417 360.799 L 427.417 369.445 A 4.481 4.481 0 0 0 427.482 370.232 Q 427.619 370.999 428.047 371.482 A 2.067 2.067 0 0 0 429.318 372.159 A 2.974 2.974 0 0 0 429.776 372.193 A 7.308 7.308 0 0 0 430.847 372.116 A 6.734 6.734 0 0 0 430.916 372.106 A 12.037 12.037 0 0 0 431.237 372.05 Q 431.544 371.993 431.757 371.933 A 3.339 3.339 0 0 0 431.787 371.925 Z M 383.451 358.963 L 383.143 361.027 Q 382.231 360.826 381.534 360.826 Q 379.752 360.826 378.485 362.274 A 5.081 5.081 0 0 0 377.259 365.127 A 6.754 6.754 0 0 0 377.218 365.879 L 377.218 373.761 L 374.993 373.761 L 374.993 359.07 L 376.829 359.07 L 377.084 361.791 L 377.191 361.791 A 7.514 7.514 0 0 1 378.031 360.591 A 5.74 5.74 0 0 1 379.162 359.579 A 4.436 4.436 0 0 1 381.695 358.802 A 10.215 10.215 0 0 1 382.61 358.841 A 7.456 7.456 0 0 1 383.451 358.963 Z M 388.424 359.07 L 388.424 373.761 L 386.199 373.761 L 386.199 359.07 L 388.424 359.07 Z M 399.322 373.426 L 396.654 373.426 A 5.115 5.115 0 0 0 395.732 373.504 Q 395.209 373.6 394.795 373.814 A 2.606 2.606 0 0 0 394.295 374.15 A 2.345 2.345 0 0 0 393.525 375.479 A 3.56 3.56 0 0 0 393.451 376.227 A 2.235 2.235 0 0 0 393.598 377.056 Q 393.836 377.656 394.456 378.037 Q 395.456 378.651 397.32 378.654 A 11.308 11.308 0 0 0 397.338 378.654 Q 399.841 378.654 401.183 377.985 A 3.696 3.696 0 0 0 401.487 377.816 A 3.246 3.246 0 0 0 402.24 377.186 A 2.433 2.433 0 0 0 402.834 375.544 A 3.011 3.011 0 0 0 402.779 374.946 Q 402.709 374.602 402.551 374.346 A 1.403 1.403 0 0 0 402.096 373.888 A 2.111 2.111 0 0 0 401.596 373.67 Q 400.802 373.426 399.322 373.426 Z M 395.153 365.673 A 2.381 2.381 0 0 0 395.528 366.107 A 2.876 2.876 0 0 0 396.686 366.736 Q 397.25 366.898 397.955 366.898 A 4.848 4.848 0 0 0 399.224 366.747 Q 400.676 366.352 401.067 364.927 A 4.507 4.507 0 0 0 401.212 363.735 A 4.785 4.785 0 0 0 401.048 362.424 Q 400.629 360.955 399.135 360.565 A 4.839 4.839 0 0 0 397.914 360.424 A 4.669 4.669 0 0 0 396.963 360.515 Q 396.38 360.636 395.936 360.92 A 2.561 2.561 0 0 0 395.502 361.268 A 2.67 2.67 0 0 0 394.855 362.356 Q 394.719 362.778 394.676 363.29 A 5.854 5.854 0 0 0 394.657 363.775 Q 394.657 364.938 395.153 365.673 Z M 386.043 354.681 A 2.466 2.466 0 0 0 386.011 355.089 A 2.627 2.627 0 0 0 386.023 355.34 Q 386.044 355.565 386.107 355.748 A 1.149 1.149 0 0 0 386.387 356.208 A 1.248 1.248 0 0 0 386.838 356.496 A 1.413 1.413 0 0 0 387.325 356.577 A 1.298 1.298 0 0 0 388.25 356.208 A 1.086 1.086 0 0 0 388.462 355.927 Q 388.559 355.745 388.602 355.511 A 2.302 2.302 0 0 0 388.639 355.089 A 2.545 2.545 0 0 0 388.628 354.848 Q 388.607 354.628 388.546 354.448 A 1.123 1.123 0 0 0 388.25 353.976 Q 387.861 353.614 387.325 353.614 Q 386.762 353.614 386.387 353.97 A 1.041 1.041 0 0 0 386.157 354.296 Q 386.079 354.466 386.043 354.681 Z"
       id="right_labelLayer"
       stroke="#777777"
       fill="#777777"
       style="stroke:#777777;fill:#777777"
       vector-effect="non-scaling-stroke" />
    <path
       d="M 554.65 5.13 L 554.65 14.88 L 549.52 14.88 L 549.52 25.14 L 554.65 25.14 L 554.65 35.4 L 549.52 35.4 L 549.52 45.66 L 554.65 45.66 L 554.65 55.92 L 549.52 55.92 L 549.52 66.18 L 554.65 66.18 L 554.65 76.44 L 549.52 76.44 L 549.52 86.7 L 554.65 86.7 L 554.65 96.96 L 549.52 96.96 L 549.52 107.22 L 554.65 107.22 L 554.65 117.48 L 549.52 117.48 L 549.52 127.74 L 554.65 127.74 L 554.65 138 L 549.52 138 L 549.52 148.26 L 554.65 148.26 L 554.65 158.52 L 549.52 158.52 L 549.52 168.78 L 554.65 168.78 L 554.65 179.04 L 549.52 179.04 L 549.52 189.3 L 554.65 189.3 L 554.65 199.56 L 549.52 199.56 L 549.52 209.82 L 554.65 209.82 L 554.65 220.08 L 549.52 220.08 L 549.52 230.34 L 554.65 230.34 L 554.65 240.6 L 549.52 240.6 L 549.52 250.86 L 554.65 250.86 L 554.65 261.12 L 549.52 261.12 L 549.52 271.38 L 554.65 271.38 L 554.65 281.13 L 570.42 281.13 L 570.42 286.26 L 580.68 286.26 L 580.68 281.13 L 590.94 281.13 L 590.94 286.26 L 601.2 286.26 L 601.2 281.13 L 611.46 281.13 L 611.46 286.26 L 621.72 286.26 L 621.72 281.13 L 631.98 281.13 L 631.98 286.26 L 642.24 286.26 L 642.24 281.13 L 652.5 281.13 L 652.5 286.26 L 662.76 286.26 L 662.76 281.13 L 673.02 281.13 L 673.02 286.26 L 683.28 286.26 L 683.28 281.13 L 693.54 281.13 L 693.54 286.26 L 703.8 286.26 L 703.8 281.13 L 714.06 281.13 L 714.06 286.26 L 724.32 286.26 L 724.32 281.13 L 734.58 281.13 L 734.58 286.26 L 744.84 286.26 L 744.84 281.13 L 755.1 281.13 L 755.1 286.26 L 765.36 286.26 L 765.36 281.13 L 775.62 281.13 L 775.62 286.26 L 785.88 286.26 L 785.88 281.13 L 796.14 281.13 L 801.65 281.13 L 801.65 271.38 L 806.78 271.38 L 806.78 261.12 L 801.65 261.12 L 801.65 250.86 L 806.78 250.86 L 806.78 240.6 L 801.65 240.6 L 801.65 230.34 L 806.78 230.34 L 806.78 220.08 L 801.65 220.08 L 801.65 209.82 L 806.78 209.82 L 806.78 199.56 L 801.65 199.56 L 801.65 189.3 L 806.78 189.3 L 806.78 179.04 L 801.65 179.04 L 801.65 168.78 L 806.78 168.78 L 806.78 158.52 L 801.65 158.52 L 801.65 148.26 L 806.78 148.26 L 806.78 138 L 801.65 138 L 801.65 127.74 L 806.78 127.74 L 806.78 117.48 L 801.65 117.48 L 801.65 107.22 L 806.78 107.22 L 806.78 96.96 L 801.65 96.96 L 801.65 86.7 L 806.78 86.7 L 806.78 76.44 L 801.65 76.44 L 801.65 66.18 L 806.78 66.18 L 806.78 55.92 L 801.65 55.92 L 801.65 45.66 L 806.78 45.66 L 806.78 35.4 L 801.65 35.4 L 801.65 25.14 L 806.78 25.14 L 806.78 14.88 L 801.65 14.88 L 801.65 5.13 L 785.88 5.13 L 785.88 0 L 775.62 0 L 775.62 5.13 L 765.36 5.13 L 765.36 0 L 755.1 0 L 755.1 5.13 L 744.84 5.13 L 744.84 0 L 734.58 0 L 734.58 5.13 L 724.32 5.13 L 724.32 0 L 714.06 0 L 714.06 5.13 L 703.8 5.13 L 703.8 0 L 693.54 0 L 693.54 5.13 L 683.28 5.13 L 683.28 0 L 673.02 0 L 673.02 5.13 L 662.76 5.13 L 662.76 0 L 652.5 0 L 652.5 5.13 L 642.24 5.13 L 642.24 0 L 631.98 0 L 631.98 5.13 L 621.72 5.13 L 621.72 0 L 611.46 0 L 611.46 5.13 L 601.2 5.13 L 601.2 0 L 590.94 0 L 590.94 5.13 L 580.68 5.13 L 580.68 0 L 570.42 0 L 570.42 5.13 L 560.16 5.13 L 554.65 5.13 Z"
       id="bottom_outsideCutPath"
       stroke="#FF0000"
       stroke-width="0.1"
       style="stroke:#FF0000;stroke-width:0.1"
       vector-effect="non-scaling-stroke" />
    <path
       d="M 762.789 162.424 L 758.619 162.424 L 758.619 144.511 Q 758.619 142.449 758.067 141.033 A 5.04 5.04 0 0 0 757.212 139.574 Q 755.981 138.135 753.559 137.955 A 9.681 9.681 0 0 0 752.841 137.929 Q 750.11 137.929 748.38 139.028 A 5.523 5.523 0 0 0 747.088 140.165 Q 745.237 142.39 745.228 147.006 A 23.123 23.123 0 0 0 745.228 147.049 L 745.228 162.424 L 741.058 162.424 L 741.058 144.511 Q 741.058 142.449 740.506 141.033 A 5.04 5.04 0 0 0 739.651 139.574 A 4.375 4.375 0 0 0 737.639 138.267 Q 736.915 138.029 736.03 137.959 A 9.766 9.766 0 0 0 735.255 137.929 Q 732.519 137.929 730.806 139.073 A 5.466 5.466 0 0 0 729.514 140.278 Q 727.863 142.407 727.709 147.001 A 29.036 29.036 0 0 0 727.693 147.978 L 727.693 162.424 L 723.522 162.424 L 723.522 134.889 L 726.914 134.889 L 727.592 138.657 L 727.793 138.657 A 8.196 8.196 0 0 1 731.122 135.517 A 9.901 9.901 0 0 1 735.033 134.42 A 11.959 11.959 0 0 1 735.933 134.387 A 13.654 13.654 0 0 1 739.006 134.707 Q 740.897 135.144 742.215 136.179 A 7.12 7.12 0 0 1 744.374 139.059 L 744.575 139.059 A 8.708 8.708 0 0 1 747.855 135.803 A 10.462 10.462 0 0 1 748.143 135.643 A 10.555 10.555 0 0 1 752.015 134.465 A 13.162 13.162 0 0 1 753.469 134.387 A 14.497 14.497 0 0 1 756.098 134.609 Q 757.56 134.879 758.701 135.477 A 6.873 6.873 0 0 1 760.466 136.786 A 7.182 7.182 0 0 1 762.007 139.308 Q 762.789 141.4 762.789 144.461 L 762.789 162.424 Z M 597.681 158.882 L 597.379 158.882 L 596.5 162.424 L 593.51 162.424 L 593.51 123.332 L 597.681 123.332 L 597.681 132.829 A 86.95 86.95 0 0 1 597.634 135.767 Q 597.587 137.156 597.493 138.393 A 52.043 52.043 0 0 1 597.48 138.557 L 597.681 138.557 A 9.482 9.482 0 0 1 604.602 134.537 A 14.244 14.244 0 0 1 606.323 134.437 A 12.746 12.746 0 0 1 609.91 134.915 A 9.542 9.542 0 0 1 614.752 138.142 Q 617.754 141.848 617.754 148.631 Q 617.754 153.418 616.247 156.697 A 11.722 11.722 0 0 1 614.727 159.17 A 9.873 9.873 0 0 1 607.71 162.86 A 14.145 14.145 0 0 1 606.323 162.926 A 12.65 12.65 0 0 1 603.144 162.539 A 11.007 11.007 0 0 1 601.412 161.934 A 9.237 9.237 0 0 1 597.681 158.882 Z M 668.779 158.982 L 668.779 162.173 A 4.102 4.102 0 0 1 668.292 162.366 Q 667.688 162.566 666.782 162.713 Q 665.55 162.912 664.549 162.925 A 10.691 10.691 0 0 1 664.408 162.926 A 10.893 10.893 0 0 1 661.198 162.494 Q 657.669 161.405 656.746 157.573 A 13.109 13.109 0 0 1 656.418 154.51 L 656.418 138.13 L 652.474 138.13 L 652.474 136.12 L 656.418 134.387 L 658.177 128.508 L 660.589 128.508 L 660.589 134.889 L 668.578 134.889 L 668.578 138.13 L 660.589 138.13 L 660.589 154.334 A 8.398 8.398 0 0 0 660.71 155.809 Q 660.855 156.618 661.172 157.259 A 4.045 4.045 0 0 0 661.77 158.153 A 3.874 3.874 0 0 0 664.151 159.421 A 5.574 5.574 0 0 0 665.011 159.484 A 13.696 13.696 0 0 0 667.017 159.341 A 12.622 12.622 0 0 0 667.146 159.321 A 22.56 22.56 0 0 0 667.748 159.218 Q 668.324 159.111 668.723 158.998 A 6.268 6.268 0 0 0 668.779 158.982 Z M 686.943 158.982 L 686.943 162.173 A 4.102 4.102 0 0 1 686.456 162.366 Q 685.852 162.566 684.946 162.713 Q 683.714 162.912 682.713 162.925 A 10.691 10.691 0 0 1 682.572 162.926 A 10.893 10.893 0 0 1 679.362 162.494 Q 675.833 161.405 674.91 157.573 A 13.109 13.109 0 0 1 674.582 154.51 L 674.582 138.13 L 670.638 138.13 L 670.638 136.12 L 674.582 134.387 L 676.341 128.508 L 678.753 128.508 L 678.753 134.889 L 686.742 134.889 L 686.742 138.13 L 678.753 138.13 L 678.753 154.334 A 8.398 8.398 0 0 0 678.874 155.809 Q 679.019 156.618 679.336 157.259 A 4.045 4.045 0 0 0 679.934 158.153 A 3.874 3.874 0 0 0 682.315 159.421 A 5.574 5.574 0 0 0 683.174 159.484 A 13.696 13.696 0 0 0 685.181 159.341 A 12.622 12.622 0 0 0 685.31 159.321 A 22.56 22.56 0 0 0 685.912 159.218 Q 686.487 159.111 686.887 158.998 A 6.268 6.268 0 0 0 686.943 158.982 Z M 648.423 152.822 A 21.542 21.542 0 0 0 648.806 148.631 A 24.476 24.476 0 0 0 648.797 147.969 Q 648.735 145.677 648.239 143.73 A 12.986 12.986 0 0 0 645.402 138.23 Q 641.998 134.387 636.22 134.387 A 16.198 16.198 0 0 0 633.31 134.636 A 11.031 11.031 0 0 0 626.874 138.142 A 11.522 11.522 0 0 0 625.459 140.105 Q 624.368 142.005 623.887 144.444 A 21.654 21.654 0 0 0 623.507 148.631 Q 623.507 152.978 625.065 156.218 Q 626.623 159.459 629.487 161.193 A 11.612 11.612 0 0 0 632.152 162.378 A 13.392 13.392 0 0 0 636.044 162.926 A 16.194 16.194 0 0 0 638.872 162.69 A 11.118 11.118 0 0 0 645.415 159.145 A 11.634 11.634 0 0 0 646.8 157.242 Q 647.93 155.309 648.423 152.822 Z M 715.829 152.822 A 21.542 21.542 0 0 0 716.211 148.631 A 24.476 24.476 0 0 0 716.202 147.969 Q 716.14 145.677 715.644 143.73 A 12.986 12.986 0 0 0 712.807 138.23 Q 709.403 134.387 703.625 134.387 A 16.198 16.198 0 0 0 700.715 134.636 A 11.031 11.031 0 0 0 694.279 138.142 A 11.522 11.522 0 0 0 692.864 140.105 Q 691.773 142.005 691.292 144.444 A 21.654 21.654 0 0 0 690.912 148.631 Q 690.912 152.978 692.47 156.218 Q 694.028 159.459 696.892 161.193 A 11.612 11.612 0 0 0 699.557 162.378 A 13.392 13.392 0 0 0 703.449 162.926 A 16.194 16.194 0 0 0 706.277 162.69 A 11.118 11.118 0 0 0 712.82 159.145 A 11.634 11.634 0 0 0 714.205 157.242 Q 715.335 155.309 715.829 152.822 Z M 627.828 148.631 A 21.119 21.119 0 0 0 628.029 151.648 Q 628.251 153.18 628.717 154.42 A 8.749 8.749 0 0 0 629.939 156.671 A 6.835 6.835 0 0 0 634.39 159.292 A 10.358 10.358 0 0 0 636.144 159.434 A 9.687 9.687 0 0 0 638.7 159.116 A 6.741 6.741 0 0 0 642.362 156.683 A 8.953 8.953 0 0 0 643.756 153.968 Q 644.166 152.713 644.345 151.182 A 21.968 21.968 0 0 0 644.485 148.631 A 20.809 20.809 0 0 0 644.288 145.666 Q 644.07 144.157 643.611 142.934 A 8.587 8.587 0 0 0 642.362 140.655 A 6.86 6.86 0 0 0 638.097 138.11 A 10.518 10.518 0 0 0 636.094 137.929 A 9.925 9.925 0 0 0 633.623 138.218 A 6.642 6.642 0 0 0 629.914 140.617 A 8.623 8.623 0 0 0 628.573 143.207 Q 628.178 144.398 627.992 145.854 A 22.038 22.038 0 0 0 627.828 148.631 Z M 695.234 148.631 A 21.119 21.119 0 0 0 695.435 151.648 Q 695.656 153.18 696.122 154.42 A 8.749 8.749 0 0 0 697.344 156.671 A 6.835 6.835 0 0 0 701.796 159.292 A 10.358 10.358 0 0 0 703.549 159.434 A 9.687 9.687 0 0 0 706.105 159.116 A 6.741 6.741 0 0 0 709.767 156.683 A 8.953 8.953 0 0 0 711.161 153.968 Q 711.571 152.713 711.751 151.182 A 21.968 21.968 0 0 0 711.89 148.631 A 20.809 20.809 0 0 0 711.693 145.666 Q 711.475 144.157 711.017 142.934 A 8.587 8.587 0 0 0 709.767 140.655 A 6.86 6.86 0 0 0 705.502 138.11 A 10.518 10.518 0 0 0 703.499 137.929 A 9.925 9.925 0 0 0 701.028 138.218 A 6.642 6.642 0 0 0 697.319 140.617 A 8.623 8.623 0 0 0 695.978 143.207 Q 695.583 144.398 695.397 145.854 A 22.038 22.038 0 0 0 695.234 148.631 Z M 605.72 137.929 Q 601.449 137.929 599.565 140.378 Q 597.681 142.828 597.681 148.631 A 27.575 27.575 0 0 0 597.817 151.481 Q 598.117 154.357 599.076 156.107 A 6.29 6.29 0 0 0 599.615 156.934 Q 601.349 159.175 604.961 159.407 A 13.409 13.409 0 0 0 605.821 159.434 A 8.314 8.314 0 0 0 608.182 159.118 A 5.998 5.998 0 0 0 611.549 156.633 Q 613.433 153.832 613.433 148.581 Q 613.433 143.205 611.549 140.567 Q 609.664 137.929 605.72 137.929 Z"
       id="bottom_labelLayer"
       stroke="#777777"
       fill="#777777"
       style="stroke:#777777;fill:#777777"
       vector-effect="non-scaling-stroke" />
  </g>
  <circle
     style="opacity:1;fill:#ffffff;fill-opacity:0.13500001;stroke:#000000;stroke-width:0.26458341;stroke-miterlimit:4;stroke-dasharray:none;stroke-dashoffset:0;stroke-opacity:1"
     id="path1700-2"
     cx="60.353401"
     cy="363.78424"
     r="2.0999999" />
  <circle
     style="opacity:1;fill:#ffffff;fill-opacity:0.13500001;stroke:#000000;stroke-width:0.26458341;stroke-miterlimit:4;stroke-dasharray:none;stroke-dashoffset:0;stroke-opacity:1"
     id="path1700-1-0"
     cx="35.36338"
     cy="363.78424"
     r="2.0999999" />
  <rect
     style="opacity:1;fill:#ffffff;fill-opacity:0.13500001;stroke:#000000;stroke-width:0.26458368;stroke-miterlimit:4;stroke-dasharray:none;stroke-dashoffset:0;stroke-opacity:1"
     id="rect6098"
     width="18.065416"
     height="9.6354151"
     x="38.824387"
     y="359.28085" />
  <text
     xml:space="preserve"
     style="font-style:normal;font-weight:normal;font-size:10.58333683px;line-height:125%;font-family:Sans;letter-spacing:0px;word-spacing:0px;fill:#000000;fill-opacity:1;stroke:none;stroke-width:0.26458341px;stroke-linecap:butt;stroke-linejoin:miter;stroke-opacity:1"
     x="35.084366"
     y="354.40881"
     id="text6102"><tspan
       sodipodi:role="line"
       id="tspan6100"
       x="35.084366"
       y="354.40881"
       style="stroke-width:0.26458341px">Door</tspan></text>
  <rect
     style="opacity:1;fill:#ffffff;fill-opacity:0.13500001;stroke:#000000;stroke-width:0.26458341;stroke-miterlimit:4;stroke-dasharray:none;stroke-dashoffset:0;stroke-opacity:1"
     id="rect874"
     width="85.34491"
     height="38.817192"
     x="0.16339058"
     y="395.88525" />
  <text
     xml:space="preserve"
     style="font-style:normal;font-weight:normal;font-size:11.20041084px;line-height:125%;font-family:Sans;letter-spacing:0px;word-spacing:0px;fill:#000000;fill-opacity:1;stroke:none;stroke-width:0.26458341px;stroke-linecap:butt;stroke-linejoin:miter;stroke-opacity:1"
     x="17.240555"
     y="443.20038"
     id="text878"
     transform="scale(1.0583062,0.94490614)"><tspan
       sodipodi:role="line"
       id="tspan876"
       x="17.240555"
       y="443.20038"
       style="stroke-width:0.26458341px">rpi</tspan></text>
  <rect
     style="opacity:1;fill:#ffffff;fill-opacity:0.13500001;stroke:#000000;stroke-width:0.26458341;stroke-miterlimit:4;stroke-dasharray:none;stroke-dashoffset:0;stroke-opacity:1"
     id="rect884-7"
     width="177.79999"
     height="7.5668073"
     x="348.8367"
     y="458.39487" />
  <rect
     style="opacity:1;fill:#ffffff;fill-opacity:0.13500001;stroke:#000000;stroke-width:0.26458341;stroke-miterlimit:4;stroke-dasharray:none;stroke-dashoffset:0;stroke-opacity:1"
     id="rect884-3-0"
     width="177.79999"
     height="7.5668073"
     x="348.8367"
     y="471.09488" />
  <rect
     style="opacity:1;fill:#ffffff;fill-opacity:0.13500001;stroke:#000000;stroke-width:0.26458341;stroke-miterlimit:4;stroke-dasharray:none;stroke-dashoffset:0;stroke-opacity:1"
     id="rect884-6-9"
     width="177.79999"
     height="7.5668073"
     x="348.8367"
     y="483.79486" />
  <rect
     style="opacity:1;fill:#ffffff;fill-opacity:0.13500001;stroke:#000000;stroke-width:0.26458341;stroke-miterlimit:4;stroke-dasharray:none;stroke-dashoffset:0;stroke-opacity:1"
     id="rect884-3-7-3"
     width="177.79999"
     height="7.5668073"
     x="348.8367"
     y="496.49487" />
  <rect
     style="opacity:1;fill:#ffffff;fill-opacity:0.13500001;stroke:#000000;stroke-width:0.26458341;stroke-miterlimit:4;stroke-dasharray:none;stroke-dashoffset:0;stroke-opacity:1"
     id="rect884-5-60"
     width="177.79999"
     height="7.5668073"
     x="348.8367"
     y="509.19489" />
  <rect
     style="opacity:1;fill:#ffffff;fill-opacity:0.13500001;stroke:#000000;stroke-width:0.26458341;stroke-miterlimit:4;stroke-dasharray:none;stroke-dashoffset:0;stroke-opacity:1"
     id="rect884-3-3-6"
     width="177.79999"
     height="7.5668073"
     x="348.8367"
     y="521.89484" />
  <rect
     style="opacity:1;fill:#ffffff;fill-opacity:0.13500001;stroke:#000000;stroke-width:0.26458341;stroke-miterlimit:4;stroke-dasharray:none;stroke-dashoffset:0;stroke-opacity:1"
     id="rect884-6-5-2"
     width="177.79999"
     height="7.5668073"
     x="348.8367"
     y="534.59485" />
  <rect
     style="opacity:1;fill:#ffffff;fill-opacity:0.13500001;stroke:#000000;stroke-width:0.26458341;stroke-miterlimit:4;stroke-dasharray:none;stroke-dashoffset:0;stroke-opacity:1"
     id="rect884-3-7-6-6"
     width="177.79999"
     height="7.5668073"
     x="348.8367"
     y="547.29492" />
  <rect
     style="opacity:1;fill:#ffffff;fill-opacity:0.13500001;stroke:#000000;stroke-width:0.26458341;stroke-miterlimit:4;stroke-dasharray:none;stroke-dashoffset:0;stroke-opacity:1"
     id="rect1694"
     width="26.999998"
     height="51.23542"
     x="287.89139"
     y="484.06516" />
  <circle
     style="opacity:1;fill:#ffffff;fill-opacity:0.13500001;stroke:#000000;stroke-width:0.26458341;stroke-miterlimit:4;stroke-dasharray:none;stroke-dashoffset:0;stroke-opacity:1"
     id="path1700"
     cx="322.32138"
     cy="509.15155"
     r="2" />
  <circle
     style="opacity:1;fill:#ffffff;fill-opacity:0.13500001;stroke:#000000;stroke-width:0.26458341;stroke-miterlimit:4;stroke-dasharray:none;stroke-dashoffset:0;stroke-opacity:1"
     id="path1700-1"
     cx="280.4614"
     cy="509.15155"
     r="2" />
  <rect
     style="opacity:1;fill:#ffffff;fill-opacity:0.13500001;stroke:#000000;stroke-width:0.26458341;stroke-miterlimit:4;stroke-dasharray:none;stroke-dashoffset:0;stroke-opacity:1"
     id="rect884-36"
     width="177.79999"
     height="7.5668073"
     x="348.83661"
     y="317.5632" />
  <rect
     style="opacity:1;fill:#ffffff;fill-opacity:0.13500001;stroke:#000000;stroke-width:0.26458341;stroke-miterlimit:4;stroke-dasharray:none;stroke-dashoffset:0;stroke-opacity:1"
     id="rect884-3-75"
     width="177.79999"
     height="7.5668073"
     x="348.83661"
     y="330.26318" />
  <rect
     style="opacity:1;fill:#ffffff;fill-opacity:0.13500001;stroke:#000000;stroke-width:0.26458341;stroke-miterlimit:4;stroke-dasharray:none;stroke-dashoffset:0;stroke-opacity:1"
     id="rect884-6-3"
     width="177.79999"
     height="7.5668073"
     x="348.83661"
     y="342.9632" />
  <rect
     style="opacity:1;fill:#ffffff;fill-opacity:0.13500001;stroke:#000000;stroke-width:0.26458341;stroke-miterlimit:4;stroke-dasharray:none;stroke-dashoffset:0;stroke-opacity:1"
     id="rect884-3-7-5"
     width="177.79999"
     height="7.5668073"
     x="348.83661"
     y="355.66321" />
  <rect
     style="opacity:1;fill:#ffffff;fill-opacity:0.13500001;stroke:#000000;stroke-width:0.26458341;stroke-miterlimit:4;stroke-dasharray:none;stroke-dashoffset:0;stroke-opacity:1"
     id="rect884-5-6"
     width="177.79999"
     height="7.5668073"
     x="348.83661"
     y="368.36322" />
  <rect
     style="opacity:1;fill:#ffffff;fill-opacity:0.13500001;stroke:#000000;stroke-width:0.26458341;stroke-miterlimit:4;stroke-dasharray:none;stroke-dashoffset:0;stroke-opacity:1"
     id="rect884-3-3-2"
     width="177.79999"
     height="7.5668073"
     x="348.83661"
     y="381.0632" />
  <rect
     style="opacity:1;fill:#ffffff;fill-opacity:0.13500001;stroke:#000000;stroke-width:0.26458341;stroke-miterlimit:4;stroke-dasharray:none;stroke-dashoffset:0;stroke-opacity:1"
     id="rect884-6-5-91"
     width="177.79999"
     height="7.5668073"
     x="348.83661"
     y="393.76321" />
  <rect
     style="opacity:1;fill:#ffffff;fill-opacity:0.13500001;stroke:#000000;stroke-width:0.26458341;stroke-miterlimit:4;stroke-dasharray:none;stroke-dashoffset:0;stroke-opacity:1"
     id="rect884-3-7-6-2"
     width="177.79999"
     height="7.5668073"
     x="348.83661"
     y="406.46323" />
  <rect
     style="opacity:1;fill:#ffffff;fill-opacity:0.13500001;stroke:#000000;stroke-width:0.26458341;stroke-miterlimit:4;stroke-dasharray:none;stroke-dashoffset:0;stroke-opacity:1"
     id="rect884"
     width="177.79999"
     height="7.5668073"
     x="579.59332"
     y="333.49585" />
  <rect
     style="opacity:1;fill:#ffffff;fill-opacity:0.13500001;stroke:#000000;stroke-width:0.26458341;stroke-miterlimit:4;stroke-dasharray:none;stroke-dashoffset:0;stroke-opacity:1"
     id="rect884-3"
     width="177.79999"
     height="7.5668073"
     x="579.59332"
     y="346.19583" />
  <rect
     style="opacity:1;fill:#ffffff;fill-opacity:0.13500001;stroke:#000000;stroke-width:0.26458341;stroke-miterlimit:4;stroke-dasharray:none;stroke-dashoffset:0;stroke-opacity:1"
     id="rect884-6"
     width="177.79999"
     height="7.5668073"
     x="579.59332"
     y="358.89584" />
  <rect
     style="opacity:1;fill:#ffffff;fill-opacity:0.13500001;stroke:#000000;stroke-width:0.26458341;stroke-miterlimit:4;stroke-dasharray:none;stroke-dashoffset:0;stroke-opacity:1"
     id="rect884-3-7"
     width="177.79999"
     height="7.5668073"
     x="579.59332"
     y="371.59583" />
  <rect
     style="opacity:1;fill:#ffffff;fill-opacity:0.13500001;stroke:#000000;stroke-width:0.26458341;stroke-miterlimit:4;stroke-dasharray:none;stroke-dashoffset:0;stroke-opacity:1"
     id="rect884-5"
     width="177.79999"
     height="7.5668073"
     x="579.59332"
     y="384.29584" />
  <rect
     style="opacity:1;fill:#ffffff;fill-opacity:0.13500001;stroke:#000000;stroke-width:0.26458341;stroke-miterlimit:4;stroke-dasharray:none;stroke-dashoffset:0;stroke-opacity:1"
     id="rect884-3-3"
     width="177.79999"
     height="7.5668073"
     x="579.59332"
     y="396.99585" />
  <rect
     style="opacity:1;fill:#ffffff;fill-opacity:0.13500001;stroke:#000000;stroke-width:0.26458341;stroke-miterlimit:4;stroke-dasharray:none;stroke-dashoffset:0;stroke-opacity:1"
     id="rect884-6-5"
     width="177.79999"
     height="7.5668073"
     x="579.59332"
     y="409.69586" />
  <rect
     style="opacity:1;fill:#ffffff;fill-opacity:0.13500001;stroke:#000000;stroke-width:0.26458341;stroke-miterlimit:4;stroke-dasharray:none;stroke-dashoffset:0;stroke-opacity:1"
     id="rect884-3-7-6"
     width="177.79999"
     height="7.5668073"
     x="579.59332"
     y="422.39587" />
  <rect
     style="opacity:1;fill:#ffffff;fill-opacity:0.13500001;stroke:#000000;stroke-width:0.26458341;stroke-miterlimit:4;stroke-dasharray:none;stroke-dashoffset:0;stroke-opacity:1"
     id="rect884-2"
     width="177.79999"
     height="7.5668073"
     x="579.59332"
     y="445.806" />
  <rect
     style="opacity:1;fill:#ffffff;fill-opacity:0.13500001;stroke:#000000;stroke-width:0.26458341;stroke-miterlimit:4;stroke-dasharray:none;stroke-dashoffset:0;stroke-opacity:1"
     id="rect884-3-9"
     width="177.79999"
     height="7.5668073"
     x="579.59332"
     y="458.50598" />
  <rect
     style="opacity:1;fill:#ffffff;fill-opacity:0.13500001;stroke:#000000;stroke-width:0.26458341;stroke-miterlimit:4;stroke-dasharray:none;stroke-dashoffset:0;stroke-opacity:1"
     id="rect884-6-1"
     width="177.79999"
     height="7.5668073"
     x="579.59332"
     y="471.20599" />
  <rect
     style="opacity:1;fill:#ffffff;fill-opacity:0.13500001;stroke:#000000;stroke-width:0.26458341;stroke-miterlimit:4;stroke-dasharray:none;stroke-dashoffset:0;stroke-opacity:1"
     id="rect884-3-7-2"
     width="177.79999"
     height="7.5668073"
     x="579.59332"
     y="483.90601" />
  <rect
     style="opacity:1;fill:#ffffff;fill-opacity:0.13500001;stroke:#000000;stroke-width:0.26458341;stroke-miterlimit:4;stroke-dasharray:none;stroke-dashoffset:0;stroke-opacity:1"
     id="rect884-5-7"
     width="177.79999"
     height="7.5668073"
     x="579.59332"
     y="496.60599" />
  <rect
     style="opacity:1;fill:#ffffff;fill-opacity:0.13500001;stroke:#000000;stroke-width:0.26458341;stroke-miterlimit:4;stroke-dasharray:none;stroke-dashoffset:0;stroke-opacity:1"
     id="rect884-3-3-0"
     width="177.79999"
     height="7.5668073"
     x="579.59332"
     y="509.306" />
  <rect
     style="opacity:1;fill:#ffffff;fill-opacity:0.13500001;stroke:#000000;stroke-width:0.26458341;stroke-miterlimit:4;stroke-dasharray:none;stroke-dashoffset:0;stroke-opacity:1"
     id="rect884-6-5-9"
     width="177.79999"
     height="7.5668073"
     x="579.59332"
     y="522.00598" />
  <rect
     style="opacity:1;fill:#ffffff;fill-opacity:0.13500001;stroke:#000000;stroke-width:0.26458341;stroke-miterlimit:4;stroke-dasharray:none;stroke-dashoffset:0;stroke-opacity:1"
     id="rect884-3-7-6-3"
     width="177.79999"
     height="7.5668073"
     x="579.59332"
     y="534.70599" />
  <circle
     style="opacity:1;fill:#ffffff;fill-opacity:0.13500001;stroke:#000000;stroke-width:0.26458341;stroke-miterlimit:4;stroke-dasharray:none;stroke-dashoffset:0;stroke-opacity:1"
     id="path6043"
     cx="617.39545"
     cy="328.99417"
     r="2.5" />
  <circle
     style="opacity:1;fill:#ffffff;fill-opacity:0.13500001;stroke:#000000;stroke-width:0.26458341;stroke-miterlimit:4;stroke-dasharray:none;stroke-dashoffset:0;stroke-opacity:1"
     id="path6043-8"
     cx="722.39539"
     cy="328.99411"
     r="2.5" />
  <circle
     style="opacity:1;fill:#ffffff;fill-opacity:0.13500001;stroke:#000000;stroke-width:0.26458341;stroke-miterlimit:4;stroke-dasharray:none;stroke-dashoffset:0;stroke-opacity:1"
     id="path6043-7"
     cx="617.39545"
     cy="433.99411"
     r="2.5" />
  <circle
     style="opacity:1;fill:#ffffff;fill-opacity:0.13500001;stroke:#000000;stroke-width:0.26458341;stroke-miterlimit:4;stroke-dasharray:none;stroke-dashoffset:0;stroke-opacity:1"
     id="path6043-8-9"
     cx="722.39539"
     cy="433.99411"
     r="2.5" />
</svg>
